%TF.GenerationSoftware,KiCad,Pcbnew,10.99.0-unknown-ab00e101b5~187~ubuntu24.04.1*%
%TF.CreationDate,2026-07-12T23:55:04-04:00*%
%TF.ProjectId,STM32Dev,53544d33-3244-4657-962e-6b696361645f,rev?*%
%TF.SameCoordinates,Original*%
%TF.FileFunction,Copper,L1,Top*%
%TF.FilePolarity,Positive*%
%FSLAX46Y46*%
G04 Gerber Fmt 4.6, Leading zero omitted, Abs format (unit mm)*
G04 Created by KiCad (PCBNEW 10.99.0-unknown-ab00e101b5~187~ubuntu24.04.1) date 2026-07-12 23:55:04*
%MOMM*%
%LPD*%
G01*
G04 APERTURE LIST*
G04 Aperture macros list*
%AMRoundRect*
0 Rectangle with rounded corners*
0 $1 Rounding radius*
0 $2 $3 $4 $5 $6 $7 $8 $9 X,Y pos of 4 corners*
0 Add a 4 corners polygon primitive as box body*
4,1,4,$2,$3,$4,$5,$6,$7,$8,$9,$2,$3,0*
0 Add four circle primitives for the rounded corners*
1,1,$1+$1,$2,$3*
1,1,$1+$1,$4,$5*
1,1,$1+$1,$6,$7*
1,1,$1+$1,$8,$9*
0 Add four rect primitives between the rounded corners*
20,1,$1+$1,$2,$3,$4,$5,0*
20,1,$1+$1,$4,$5,$6,$7,0*
20,1,$1+$1,$6,$7,$8,$9,0*
20,1,$1+$1,$8,$9,$2,$3,0*%
G04 Aperture macros list end*
%TA.AperFunction,SMDPad,CuDef*%
%ADD10RoundRect,0.093750X-0.106250X0.093750X-0.106250X-0.093750X0.106250X-0.093750X0.106250X0.093750X0*%
%TD*%
%TA.AperFunction,HeatsinkPad*%
%ADD11R,1.600000X1.000000*%
%TD*%
%TA.AperFunction,SMDPad,CuDef*%
%ADD12RoundRect,0.250000X0.250000X0.475000X-0.250000X0.475000X-0.250000X-0.475000X0.250000X-0.475000X0*%
%TD*%
%TA.AperFunction,SMDPad,CuDef*%
%ADD13RoundRect,0.250000X0.475000X-0.250000X0.475000X0.250000X-0.475000X0.250000X-0.475000X-0.250000X0*%
%TD*%
%TA.AperFunction,SMDPad,CuDef*%
%ADD14R,1.000000X0.900000*%
%TD*%
%TA.AperFunction,SMDPad,CuDef*%
%ADD15RoundRect,0.200000X0.275000X-0.200000X0.275000X0.200000X-0.275000X0.200000X-0.275000X-0.200000X0*%
%TD*%
%TA.AperFunction,SMDPad,CuDef*%
%ADD16RoundRect,0.075000X0.441942X0.548008X-0.548008X-0.441942X-0.441942X-0.548008X0.548008X0.441942X0*%
%TD*%
%TA.AperFunction,SMDPad,CuDef*%
%ADD17RoundRect,0.075000X-0.441942X0.548008X-0.548008X0.441942X0.441942X-0.548008X0.548008X-0.441942X0*%
%TD*%
%TA.AperFunction,SMDPad,CuDef*%
%ADD18RoundRect,0.375000X-0.375000X0.625000X-0.375000X-0.625000X0.375000X-0.625000X0.375000X0.625000X0*%
%TD*%
%TA.AperFunction,SMDPad,CuDef*%
%ADD19RoundRect,0.500000X-1.400000X0.500000X-1.400000X-0.500000X1.400000X-0.500000X1.400000X0.500000X0*%
%TD*%
%TA.AperFunction,ComponentPad*%
%ADD20R,1.700000X1.700000*%
%TD*%
%TA.AperFunction,ComponentPad*%
%ADD21C,1.700000*%
%TD*%
%TA.AperFunction,SMDPad,CuDef*%
%ADD22RoundRect,0.200000X-0.275000X0.200000X-0.275000X-0.200000X0.275000X-0.200000X0.275000X0.200000X0*%
%TD*%
%TA.AperFunction,SMDPad,CuDef*%
%ADD23RoundRect,0.250000X-0.250000X-0.475000X0.250000X-0.475000X0.250000X0.475000X-0.250000X0.475000X0*%
%TD*%
%TA.AperFunction,SMDPad,CuDef*%
%ADD24RoundRect,0.150000X-0.150000X-0.425000X0.150000X-0.425000X0.150000X0.425000X-0.150000X0.425000X0*%
%TD*%
%TA.AperFunction,SMDPad,CuDef*%
%ADD25RoundRect,0.075000X-0.075000X-0.500000X0.075000X-0.500000X0.075000X0.500000X-0.075000X0.500000X0*%
%TD*%
%TA.AperFunction,ComponentPad*%
%ADD26O,1.000000X2.100000*%
%TD*%
%TA.AperFunction,ComponentPad*%
%ADD27O,1.000000X1.800000*%
%TD*%
%TA.AperFunction,SMDPad,CuDef*%
%ADD28RoundRect,0.200000X0.318198X-0.035355X-0.035355X0.318198X-0.318198X0.035355X0.035355X-0.318198X0*%
%TD*%
%TA.AperFunction,SMDPad,CuDef*%
%ADD29RoundRect,0.200000X-0.200000X-0.275000X0.200000X-0.275000X0.200000X0.275000X-0.200000X0.275000X0*%
%TD*%
%TA.AperFunction,ViaPad*%
%ADD30C,0.600000*%
%TD*%
%TA.AperFunction,Conductor*%
%ADD31C,0.200000*%
%TD*%
G04 APERTURE END LIST*
D10*
%TO.P,U3,1,GND_1*%
%TO.N,GND*%
X150060000Y-98055000D03*
%TO.P,U3,2,GND_2*%
X149410000Y-98055000D03*
%TO.P,U3,3,GND_3*%
X148760000Y-98055000D03*
%TO.P,U3,4,IN_4*%
%TO.N,+5V*%
X148760000Y-99830000D03*
%TO.P,U3,5,IN_5*%
X149410000Y-99830000D03*
%TO.P,U3,6,IN_6*%
X150060000Y-99830000D03*
D11*
%TO.P,U3,7,GND_7*%
%TO.N,GND*%
X149410000Y-98942500D03*
%TD*%
D12*
%TO.P,C2,1*%
%TO.N,+3V3*%
X168870000Y-89750000D03*
%TO.P,C2,2*%
%TO.N,Net-(U4-BOOT0)*%
X166970000Y-89750000D03*
%TD*%
D13*
%TO.P,C12,1*%
%TO.N,+3V3*%
X163870000Y-77050000D03*
%TO.P,C12,2*%
%TO.N,GND*%
X163870000Y-75150000D03*
%TD*%
D14*
%TO.P,SW1,1,1_1*%
%TO.N,GND*%
X169490000Y-74380000D03*
X169490000Y-78480000D03*
%TO.P,SW1,2,2_2*%
%TO.N,/NRST*%
X167890000Y-74380000D03*
X167890000Y-78480000D03*
%TD*%
D15*
%TO.P,R6,1*%
%TO.N,+3V3*%
X171720000Y-79930000D03*
%TO.P,R6,2*%
%TO.N,/NRST*%
X171720000Y-78280000D03*
%TD*%
D16*
%TO.P,U4,1,VBAT_1*%
%TO.N,+3V3*%
X165059422Y-84134888D03*
%TO.P,U4,2,PC13_2*%
%TO.N,unconnected-(U4-PC13-Pad2)*%
X164705869Y-83781335D03*
%TO.P,U4,3,PC14_3*%
%TO.N,unconnected-(U4-PC14-Pad3)*%
X164352316Y-83427782D03*
%TO.P,U4,4,PC15_4*%
%TO.N,unconnected-(U4-PC15-Pad4)*%
X163998762Y-83074228D03*
%TO.P,U4,5,PH0_5*%
%TO.N,/OSC_{IN}*%
X163645209Y-82720675D03*
%TO.P,U4,6,PH1_6*%
%TO.N,/OSC_{OUT}*%
X163291655Y-82367121D03*
%TO.P,U4,7,NRST_7*%
%TO.N,/NRST*%
X162938102Y-82013568D03*
%TO.P,U4,8,PC0_8*%
%TO.N,/PC0*%
X162584549Y-81660015D03*
%TO.P,U4,9,PC1_9*%
%TO.N,/PC1*%
X162230995Y-81306461D03*
%TO.P,U4,10,PC2_10*%
%TO.N,/PC2*%
X161877442Y-80952908D03*
%TO.P,U4,11,PC3_11*%
%TO.N,/PC3*%
X161523889Y-80599355D03*
%TO.P,U4,12,VSSA_12*%
%TO.N,GND*%
X161170335Y-80245801D03*
%TO.P,U4,13,VDDA_13*%
%TO.N,+3V3*%
X160816782Y-79892248D03*
%TO.P,U4,14,PA0_14*%
%TO.N,/PA0*%
X160463228Y-79538694D03*
%TO.P,U4,15,PA1_15*%
%TO.N,/PA1*%
X160109675Y-79185141D03*
%TO.P,U4,16,PA2_16*%
%TO.N,/PA2*%
X159756122Y-78831588D03*
D17*
%TO.P,U4,17,PA3_17*%
%TO.N,unconnected-(U4-PA3-Pad17)*%
X157033760Y-78831588D03*
%TO.P,U4,18,VSS_18*%
%TO.N,GND*%
X156680207Y-79185141D03*
%TO.P,U4,19,VDD_19*%
%TO.N,+3V3*%
X156326654Y-79538694D03*
%TO.P,U4,20,PA4_20*%
%TO.N,unconnected-(U4-PA4-Pad20)*%
X155973100Y-79892248D03*
%TO.P,U4,21,PA5_21*%
%TO.N,unconnected-(U4-PA5-Pad21)*%
X155619547Y-80245801D03*
%TO.P,U4,22,PA6_22*%
%TO.N,unconnected-(U4-PA6-Pad22)*%
X155265993Y-80599355D03*
%TO.P,U4,23,PA7_23*%
%TO.N,unconnected-(U4-PA7-Pad23)*%
X154912440Y-80952908D03*
%TO.P,U4,24,PC4_24*%
%TO.N,unconnected-(U4-PC4-Pad24)*%
X154558887Y-81306461D03*
%TO.P,U4,25,PC5_25*%
%TO.N,unconnected-(U4-PC5-Pad25)*%
X154205333Y-81660015D03*
%TO.P,U4,26,PB0_26*%
%TO.N,unconnected-(U4-PB0-Pad26)*%
X153851780Y-82013568D03*
%TO.P,U4,27,PB1_27*%
%TO.N,unconnected-(U4-PB1-Pad27)*%
X153498227Y-82367121D03*
%TO.P,U4,28,PB2_28*%
%TO.N,GND*%
X153144673Y-82720675D03*
%TO.P,U4,29,PB10_29*%
%TO.N,/PB10*%
X152791120Y-83074228D03*
%TO.P,U4,30,VCAP1_30*%
%TO.N,Net-(U4-VCAP1)*%
X152437566Y-83427782D03*
%TO.P,U4,31,VSS_31*%
%TO.N,GND*%
X152084013Y-83781335D03*
%TO.P,U4,32,VDD_32*%
%TO.N,+3V3*%
X151730460Y-84134888D03*
D16*
%TO.P,U4,33,PB12_33*%
%TO.N,/PB12*%
X151730460Y-86857250D03*
%TO.P,U4,34,PB13_34*%
%TO.N,/PB13*%
X152084013Y-87210803D03*
%TO.P,U4,35,PB14_35*%
%TO.N,/PB14*%
X152437566Y-87564356D03*
%TO.P,U4,36,PB15_36*%
%TO.N,/PB15*%
X152791120Y-87917910D03*
%TO.P,U4,37,PC6_37*%
%TO.N,/PC6*%
X153144673Y-88271463D03*
%TO.P,U4,38,PC7_38*%
%TO.N,/PC7*%
X153498227Y-88625017D03*
%TO.P,U4,39,PC8_39*%
%TO.N,/PC8*%
X153851780Y-88978570D03*
%TO.P,U4,40,PC9_40*%
%TO.N,/PC9*%
X154205333Y-89332123D03*
%TO.P,U4,41,PA8_41*%
%TO.N,/PA8*%
X154558887Y-89685677D03*
%TO.P,U4,42,PA9_42*%
%TO.N,/PA9*%
X154912440Y-90039230D03*
%TO.P,U4,43,PA10_43*%
%TO.N,/PA10*%
X155265993Y-90392783D03*
%TO.P,U4,44,PA11_44*%
%TO.N,/D-*%
X155619547Y-90746337D03*
%TO.P,U4,45,PA12_45*%
%TO.N,/D+*%
X155973100Y-91099890D03*
%TO.P,U4,46,PA13_46*%
%TO.N,/SWDIO*%
X156326654Y-91453444D03*
%TO.P,U4,47,VSS_47*%
%TO.N,GND*%
X156680207Y-91806997D03*
%TO.P,U4,48,VDD_48*%
%TO.N,+3V3*%
X157033760Y-92160550D03*
D17*
%TO.P,U4,49,PA14_49*%
%TO.N,/SWCLK*%
X159756122Y-92160550D03*
%TO.P,U4,50,PA15_50*%
%TO.N,unconnected-(U4-PA15-Pad50)*%
X160109675Y-91806997D03*
%TO.P,U4,51,PC10_51*%
%TO.N,unconnected-(U4-PC10-Pad51)*%
X160463228Y-91453444D03*
%TO.P,U4,52,PC11_52*%
%TO.N,/PC11*%
X160816782Y-91099890D03*
%TO.P,U4,53,PC12_53*%
%TO.N,/PC12*%
X161170335Y-90746337D03*
%TO.P,U4,54,PD2_54*%
%TO.N,/PD2*%
X161523889Y-90392783D03*
%TO.P,U4,55,PB3_55*%
%TO.N,/SWO*%
X161877442Y-90039230D03*
%TO.P,U4,56,PB4_56*%
%TO.N,/PB4*%
X162230995Y-89685677D03*
%TO.P,U4,57,PB5_57*%
%TO.N,/PB5*%
X162584549Y-89332123D03*
%TO.P,U4,58,PB6_58*%
%TO.N,/SCL*%
X162938102Y-88978570D03*
%TO.P,U4,59,PB7_59*%
%TO.N,/SDA*%
X163291655Y-88625017D03*
%TO.P,U4,60,BOOT0_60*%
%TO.N,Net-(U4-BOOT0)*%
X163645209Y-88271463D03*
%TO.P,U4,61,PB8_61*%
%TO.N,/PB8*%
X163998762Y-87917910D03*
%TO.P,U4,62,PB9_62*%
%TO.N,/PB9*%
X164352316Y-87564356D03*
%TO.P,U4,63,VSS_63*%
%TO.N,GND*%
X164705869Y-87210803D03*
%TO.P,U4,64,VDD_64*%
%TO.N,+3V3*%
X165059422Y-86857250D03*
%TD*%
D18*
%TO.P,U2,1,GND_1*%
%TO.N,GND*%
X166570000Y-101260000D03*
%TO.P,U2,2,VO_2*%
%TO.N,+3V3*%
X164270000Y-101260000D03*
D19*
X164270000Y-107560000D03*
D18*
%TO.P,U2,3,VI_3*%
%TO.N,+5V*%
X161970000Y-101260000D03*
%TD*%
D13*
%TO.P,C8,1*%
%TO.N,+3V3*%
X159750000Y-76230000D03*
%TO.P,C8,2*%
%TO.N,GND*%
X159750000Y-74330000D03*
%TD*%
D20*
%TO.P,J1,1,Pin_1_1*%
%TO.N,+3V3*%
X169610000Y-97780000D03*
D21*
%TO.P,J1,2,Pin_2_2*%
%TO.N,/SWDIO*%
X167070000Y-97780000D03*
%TO.P,J1,3,Pin_3_3*%
%TO.N,/NRST*%
X169610000Y-95240000D03*
%TO.P,J1,4,Pin_4_4*%
%TO.N,/SWCLK*%
X167070000Y-95240000D03*
%TO.P,J1,5,Pin_5_5*%
%TO.N,GND*%
X169610000Y-92700000D03*
%TO.P,J1,6,Pin_6_6*%
%TO.N,/SWO*%
X167070000Y-92700000D03*
%TD*%
D22*
%TO.P,R2,1*%
%TO.N,GND*%
X152340000Y-97860000D03*
%TO.P,R2,2*%
%TO.N,Net-(J3-CC1)*%
X152340000Y-99510000D03*
%TD*%
D23*
%TO.P,C18,1*%
%TO.N,+5V*%
X161970000Y-98940000D03*
%TO.P,C18,2*%
%TO.N,GND*%
X163870000Y-98940000D03*
%TD*%
D24*
%TO.P,J3,A1,GND_A1*%
%TO.N,GND*%
X151050000Y-101660000D03*
%TO.P,J3,A4,VBUS_A4*%
%TO.N,+5V*%
X151850000Y-101660000D03*
D25*
%TO.P,J3,A5,CC1_A5*%
%TO.N,Net-(J3-CC1)*%
X153000000Y-101660000D03*
%TO.P,J3,A6,D+_A6*%
%TO.N,/D+*%
X154000000Y-101660000D03*
%TO.P,J3,A7,D-_A7*%
%TO.N,/D-*%
X154500000Y-101660000D03*
%TO.P,J3,A8*%
%TO.N,N/C*%
X155500000Y-101660000D03*
D24*
%TO.P,J3,A9,VBUS_A9*%
%TO.N,+5V*%
X156650000Y-101660000D03*
%TO.P,J3,A12,GND_A12*%
%TO.N,GND*%
X157450000Y-101660000D03*
%TO.P,J3,B1,GND_B1*%
X157450000Y-101660000D03*
%TO.P,J3,B4,VBUS_B4*%
%TO.N,+5V*%
X156650000Y-101660000D03*
D25*
%TO.P,J3,B5,CC2_B5*%
%TO.N,Net-(J3-CC2)*%
X156000000Y-101660000D03*
%TO.P,J3,B6,D+_B6*%
%TO.N,/D+*%
X155000000Y-101660000D03*
%TO.P,J3,B7,D-_B7*%
%TO.N,/D-*%
X153500000Y-101660000D03*
%TO.P,J3,B8*%
%TO.N,N/C*%
X152500000Y-101660000D03*
D24*
%TO.P,J3,B9,VBUS_B9*%
%TO.N,+5V*%
X151850000Y-101660000D03*
%TO.P,J3,B12,GND_B12*%
%TO.N,GND*%
X151050000Y-101660000D03*
D26*
%TO.P,J3,SH,SHIELD_SH*%
X149930000Y-102235000D03*
D27*
X149930000Y-106415000D03*
D26*
X158570000Y-102235000D03*
D27*
X158570000Y-106415000D03*
%TD*%
D28*
%TO.P,Y1,1,1_1*%
%TO.N,/OSC_{IN}*%
X167177766Y-81132132D03*
%TO.P,Y1,2,G_2*%
%TO.N,GND*%
X166187817Y-80142183D03*
%TO.P,Y1,3,3_3*%
%TO.N,/OSC_{OUT}*%
X165410000Y-80920000D03*
%TO.P,Y1,4,G_4*%
%TO.N,GND*%
X166399949Y-81909949D03*
%TD*%
D15*
%TO.P,R1,1*%
%TO.N,Net-(J3-CC2)*%
X155470000Y-99480000D03*
%TO.P,R1,2*%
%TO.N,GND*%
X155470000Y-97830000D03*
%TD*%
D13*
%TO.P,C13,1*%
%TO.N,+3V3*%
X150160000Y-79790000D03*
%TO.P,C13,2*%
%TO.N,GND*%
X150160000Y-77890000D03*
%TD*%
D14*
%TO.P,SW2,1,1_1*%
%TO.N,Net-(U4-BOOT0)*%
X168220000Y-88000000D03*
X168220000Y-83900000D03*
%TO.P,SW2,2,2_2*%
%TO.N,+3V3*%
X169820000Y-88000000D03*
X169820000Y-83900000D03*
%TD*%
D23*
%TO.P,C1,1*%
%TO.N,/NRST*%
X167780000Y-72560000D03*
%TO.P,C1,2*%
%TO.N,GND*%
X169680000Y-72560000D03*
%TD*%
D13*
%TO.P,C7,1*%
%TO.N,+3V3*%
X157460000Y-76520000D03*
%TO.P,C7,2*%
%TO.N,GND*%
X157460000Y-74620000D03*
%TD*%
%TO.P,C9,1*%
%TO.N,+3V3*%
X154760000Y-77450000D03*
%TO.P,C9,2*%
%TO.N,GND*%
X154760000Y-75550000D03*
%TD*%
D23*
%TO.P,C19,1*%
%TO.N,+3V3*%
X169620000Y-101000000D03*
%TO.P,C19,2*%
%TO.N,GND*%
X171520000Y-101000000D03*
%TD*%
D13*
%TO.P,C14,1*%
%TO.N,+3V3*%
X152240000Y-78330000D03*
%TO.P,C14,2*%
%TO.N,GND*%
X152240000Y-76430000D03*
%TD*%
%TO.P,C10,1*%
%TO.N,+3V3*%
X161750000Y-76520000D03*
%TO.P,C10,2*%
%TO.N,GND*%
X161750000Y-74620000D03*
%TD*%
D12*
%TO.P,C15,1*%
%TO.N,+3V3*%
X150210000Y-81610000D03*
%TO.P,C15,2*%
%TO.N,GND*%
X148310000Y-81610000D03*
%TD*%
D20*
%TO.P,J5,1,Pin_1_1*%
%TO.N,/PB10*%
X142090000Y-76220000D03*
D21*
%TO.P,J5,2,Pin_2_2*%
%TO.N,/PB12*%
X142090000Y-78760000D03*
%TO.P,J5,3,Pin_3_3*%
%TO.N,/PB13*%
X142090000Y-81300000D03*
%TO.P,J5,4,Pin_4_4*%
%TO.N,/PB14*%
X142090000Y-83840000D03*
%TO.P,J5,5,Pin_5_5*%
%TO.N,/PB15*%
X142090000Y-86380000D03*
%TO.P,J5,6,Pin_6_6*%
%TO.N,/PC6*%
X142090000Y-88920000D03*
%TO.P,J5,7,Pin_7_7*%
%TO.N,/PC7*%
X142090000Y-91460000D03*
%TO.P,J5,8,Pin_8_8*%
%TO.N,/PC8*%
X142090000Y-94000000D03*
%TO.P,J5,9,Pin_9_9*%
%TO.N,/PC9*%
X142090000Y-96540000D03*
%TO.P,J5,10,Pin_10_10*%
%TO.N,/PA8*%
X142090000Y-99080000D03*
%TO.P,J5,11,Pin_11_11*%
%TO.N,/PA9*%
X142090000Y-101620000D03*
%TO.P,J5,12,Pin_12_12*%
%TO.N,/PA10*%
X142090000Y-104160000D03*
%TD*%
D29*
%TO.P,R3,1*%
%TO.N,Net-(U4-BOOT0)*%
X169335000Y-82190000D03*
%TO.P,R3,2*%
%TO.N,GND*%
X170985000Y-82190000D03*
%TD*%
D20*
%TO.P,J4,1,Pin_1_1*%
%TO.N,/PA2*%
X174684765Y-76332872D03*
D21*
%TO.P,J4,2,Pin_2_2*%
%TO.N,/PA1*%
X174684765Y-78872872D03*
%TO.P,J4,3,Pin_3_3*%
%TO.N,/PC3*%
X174684765Y-81412872D03*
%TO.P,J4,4,Pin_4_4*%
%TO.N,/PC2*%
X174684765Y-83952872D03*
%TO.P,J4,5,Pin_5_5*%
%TO.N,/PC1*%
X174684765Y-86492872D03*
%TO.P,J4,6,Pin_6_6*%
%TO.N,/PB9*%
X174684765Y-89032872D03*
%TO.P,J4,7,Pin_7_7*%
%TO.N,/PB8*%
X174684765Y-91572872D03*
%TO.P,J4,8,Pin_8_8*%
%TO.N,/PB5*%
X174684765Y-94112872D03*
%TO.P,J4,9,Pin_9_9*%
%TO.N,/PB4*%
X174684765Y-96652872D03*
%TO.P,J4,10,Pin_10_10*%
%TO.N,/PD2*%
X174684765Y-99192872D03*
%TO.P,J4,11,Pin_11_11*%
%TO.N,/PC12*%
X174684765Y-101732872D03*
%TO.P,J4,12,Pin_12_12*%
%TO.N,/PC11*%
X174684765Y-104272872D03*
%TD*%
D30*
%TO.N,GND*%
X171010000Y-84860000D03*
X170985000Y-82190000D03*
X152129621Y-79785343D03*
X163241751Y-85371751D03*
%TO.N,+3V3*%
X164210000Y-86020000D03*
X171720000Y-79930000D03*
X161750000Y-76520000D03*
X156000000Y-93200000D03*
X168870000Y-89750000D03*
%TO.N,/NRST*%
X171720000Y-78260000D03*
%TO.N,/OSC_{IN}*%
X169320000Y-80420000D03*
%TO.N,/OSC_{OUT}*%
X161898249Y-84028249D03*
%TO.N,/PC1*%
X163650000Y-80440000D03*
X171700000Y-86280000D03*
%TO.N,/PC2*%
X163510000Y-79580000D03*
X171980000Y-82120000D03*
%TO.N,/PC3*%
X164710000Y-78980000D03*
X170640000Y-80000000D03*
%TO.N,/PA1*%
X161360000Y-78380000D03*
X170800000Y-78860000D03*
%TO.N,/PA2*%
X160930000Y-77660000D03*
%TO.N,Net-(U4-VCAP1)*%
X151630000Y-82020000D03*
%TO.N,/SWDIO*%
X154790000Y-93270000D03*
%TO.N,/SWCLK*%
X160830000Y-93300000D03*
%TO.N,/PC11*%
X167570000Y-99570000D03*
%TO.N,/SWO*%
X165420000Y-92700000D03*
%TO.N,/SCL*%
X160970000Y-87940000D03*
%TO.N,/SDA*%
X162123363Y-86913363D03*
%TO.N,/PB8*%
X171640000Y-89950000D03*
X165800000Y-89080000D03*
%TO.N,/PB9*%
X166760000Y-88350000D03*
X171610000Y-88740000D03*
%TD*%
%TO.N,+5V*%
D31*
X161970000Y-101260000D02*
X161970000Y-98940000D01*
X152550001Y-102935000D02*
X155949999Y-102935000D01*
X151850000Y-101660000D02*
X151850000Y-101140000D01*
X155949999Y-102935000D02*
X156655000Y-102229999D01*
X148760000Y-99830000D02*
X150540000Y-99830000D01*
X151850000Y-101660000D02*
X151850000Y-102117410D01*
X151850000Y-101140000D02*
X150540000Y-99830000D01*
X156650000Y-100640000D02*
X158350000Y-98940000D01*
X156650000Y-101660000D02*
X156650000Y-100640000D01*
X152667590Y-102935000D02*
X155832410Y-102935000D01*
X158350000Y-98940000D02*
X161970000Y-98940000D01*
X155832410Y-102935000D02*
X156650000Y-102117410D01*
X151850000Y-102234999D02*
X152550001Y-102935000D01*
X151850000Y-101660000D02*
X151850000Y-102234999D01*
X156650000Y-102117410D02*
X156650000Y-101660000D01*
%TO.N,+3V3*%
X163340000Y-76520000D02*
X163870000Y-77050000D01*
X154760000Y-77450000D02*
X153120000Y-77450000D01*
X151620000Y-78330000D02*
X152240000Y-78330000D01*
X159750000Y-76230000D02*
X157750000Y-76230000D01*
X169620000Y-101000000D02*
X169060000Y-101000000D01*
X150160000Y-82564428D02*
X150160000Y-79790000D01*
X161960000Y-78749030D02*
X160816782Y-79892248D01*
X164210000Y-86020000D02*
X164210000Y-84950000D01*
X154760000Y-77972040D02*
X154760000Y-77450000D01*
X165025112Y-84134888D02*
X165059422Y-84134888D01*
X169620000Y-97790000D02*
X169610000Y-97780000D01*
X156000000Y-93194310D02*
X157033760Y-92160550D01*
X169060000Y-101000000D02*
X164270000Y-105790000D01*
X155690000Y-76520000D02*
X154760000Y-77450000D01*
X156326654Y-79538694D02*
X154760000Y-77972040D01*
X164270000Y-106350000D02*
X164270000Y-101260000D01*
X151730460Y-84134888D02*
X150160000Y-82564428D01*
X164210000Y-84950000D02*
X165025112Y-84134888D01*
X165059422Y-86857250D02*
X165047250Y-86857250D01*
X157460000Y-76520000D02*
X155690000Y-76520000D01*
X169820000Y-88000000D02*
X169820000Y-88800000D01*
X165047250Y-86857250D02*
X164210000Y-86020000D01*
X153120000Y-77450000D02*
X152240000Y-78330000D01*
X161750000Y-76520000D02*
X161360000Y-76520000D01*
X169620000Y-101000000D02*
X169620000Y-97790000D01*
X161750000Y-76520000D02*
X163340000Y-76520000D01*
X161960000Y-76730000D02*
X161960000Y-78749030D01*
X164270000Y-107560000D02*
X164270000Y-106350000D01*
X150160000Y-79790000D02*
X151620000Y-78330000D01*
X161750000Y-76520000D02*
X161960000Y-76730000D01*
X157750000Y-76230000D02*
X157460000Y-76520000D01*
X169820000Y-88800000D02*
X168870000Y-89750000D01*
X161360000Y-76520000D02*
X161070000Y-76230000D01*
X164270000Y-105790000D02*
X164270000Y-106350000D01*
X156000000Y-93200000D02*
X156000000Y-93194310D01*
X169820000Y-88000000D02*
X169820000Y-83900000D01*
X161070000Y-76230000D02*
X159750000Y-76230000D01*
%TO.N,Net-(U4-BOOT0)*%
X168220000Y-88000000D02*
X168220000Y-83900000D01*
X165123746Y-89750000D02*
X166970000Y-89750000D01*
X163645209Y-88271463D02*
X165123746Y-89750000D01*
X168220000Y-88000000D02*
X168220000Y-88500000D01*
X168220000Y-83305000D02*
X169335000Y-82190000D01*
X168220000Y-83900000D02*
X168220000Y-83305000D01*
X168220000Y-88500000D02*
X166970000Y-89750000D01*
%TO.N,/NRST*%
X171720000Y-78260000D02*
X167890000Y-74430000D01*
X167890000Y-78480000D02*
X166471670Y-78480000D01*
X167890000Y-72670000D02*
X167780000Y-72560000D01*
X167890000Y-78480000D02*
X167890000Y-76280000D01*
X167890000Y-76280000D02*
X167890000Y-72670000D01*
X167890000Y-74430000D02*
X167890000Y-76280000D01*
X166471670Y-78480000D02*
X162938102Y-82013568D01*
%TO.N,/OSC_{IN}*%
X166740000Y-83170000D02*
X166250000Y-83170000D01*
X167177766Y-81132132D02*
X167850000Y-81804366D01*
X166250000Y-83170000D02*
X164910000Y-81830000D01*
X167850000Y-81804366D02*
X167850000Y-82060000D01*
X169320000Y-80420000D02*
X169320000Y-80590000D01*
X169320000Y-80590000D02*
X167850000Y-82060000D01*
X164910000Y-81830000D02*
X164535884Y-81830000D01*
X164535884Y-81830000D02*
X163645209Y-82720675D01*
X167850000Y-82060000D02*
X166740000Y-83170000D01*
%TO.N,/OSC_{OUT}*%
X163291655Y-82367121D02*
X164738776Y-80920000D01*
X161898249Y-83760527D02*
X161898249Y-84028249D01*
X164738776Y-80920000D02*
X165410000Y-80920000D01*
X163291655Y-82367121D02*
X161898249Y-83760527D01*
%TO.N,/PC1*%
X162230995Y-81306461D02*
X163097456Y-80440000D01*
X171700000Y-86280000D02*
X171912872Y-86492872D01*
X171912872Y-86492872D02*
X174684765Y-86492872D01*
X163097456Y-80440000D02*
X163650000Y-80440000D01*
X163650000Y-80440000D02*
X163800000Y-80440000D01*
%TO.N,/PC2*%
X163510000Y-79470000D02*
X163580000Y-79540000D01*
X161877442Y-80952908D02*
X163360350Y-79470000D01*
X163360350Y-79470000D02*
X163510000Y-79470000D01*
X171980000Y-82120000D02*
X171980000Y-82140000D01*
X171980000Y-82140000D02*
X173792872Y-83952872D01*
X173792872Y-83952872D02*
X174684765Y-83952872D01*
%TO.N,/PC3*%
X170640000Y-80037648D02*
X172015224Y-81412872D01*
X172015224Y-81412872D02*
X174684765Y-81412872D01*
X163143244Y-78980000D02*
X161523889Y-80599355D01*
X164710000Y-78980000D02*
X163143244Y-78980000D01*
X170640000Y-80000000D02*
X170640000Y-80037648D01*
%TO.N,/PA1*%
X170920000Y-78980000D02*
X174577637Y-78980000D01*
X174577637Y-78980000D02*
X174684765Y-78872872D01*
X161330000Y-78360000D02*
X161400000Y-78290000D01*
X160109675Y-79185141D02*
X160934816Y-78360000D01*
X160934816Y-78360000D02*
X161330000Y-78360000D01*
X170800000Y-78860000D02*
X170920000Y-78980000D01*
%TO.N,/PA2*%
X160930000Y-77660000D02*
X160670000Y-77920000D01*
X160667710Y-77920000D02*
X159756122Y-78831588D01*
X160670000Y-77920000D02*
X160667710Y-77920000D01*
%TO.N,/PB10*%
X153362043Y-84187957D02*
X152490635Y-85059365D01*
X150189365Y-85059365D02*
X142090000Y-76960000D01*
X152791120Y-83074228D02*
X153362043Y-83645151D01*
X142090000Y-76960000D02*
X142090000Y-76220000D01*
X152490635Y-85059365D02*
X150189365Y-85059365D01*
X153362043Y-83645151D02*
X153362043Y-84187957D01*
%TO.N,Net-(U4-VCAP1)*%
X152437566Y-83427782D02*
X151630000Y-82620216D01*
X151630000Y-82620216D02*
X151630000Y-82020000D01*
%TO.N,/PB12*%
X150430000Y-87620000D02*
X150967710Y-87620000D01*
X150967710Y-87620000D02*
X151730460Y-86857250D01*
X142090000Y-78760000D02*
X142090000Y-79280000D01*
X142090000Y-79280000D02*
X150430000Y-87620000D01*
%TO.N,/PB13*%
X142090000Y-81300000D02*
X148810000Y-88020000D01*
X151274816Y-88020000D02*
X152084013Y-87210803D01*
X148810000Y-88020000D02*
X151274816Y-88020000D01*
%TO.N,/PB14*%
X151581922Y-88420000D02*
X146670000Y-88420000D01*
X152437566Y-87564356D02*
X151581922Y-88420000D01*
X146670000Y-88420000D02*
X142090000Y-83840000D01*
%TO.N,/PB15*%
X152791120Y-87917910D02*
X151889030Y-88820000D01*
X144530000Y-88820000D02*
X142090000Y-86380000D01*
X151889030Y-88820000D02*
X144530000Y-88820000D01*
%TO.N,/PC6*%
X152196136Y-89220000D02*
X142390000Y-89220000D01*
X142390000Y-89220000D02*
X142090000Y-88920000D01*
X153144673Y-88271463D02*
X152196136Y-89220000D01*
%TO.N,/PC7*%
X150663244Y-91460000D02*
X142090000Y-91460000D01*
X153498227Y-88625017D02*
X150663244Y-91460000D01*
%TO.N,/PC8*%
X153851780Y-88978570D02*
X148830350Y-94000000D01*
X148830350Y-94000000D02*
X142090000Y-94000000D01*
%TO.N,/PC9*%
X154205333Y-89332123D02*
X146997456Y-96540000D01*
X146997456Y-96540000D02*
X142090000Y-96540000D01*
%TO.N,/PA8*%
X145164564Y-99080000D02*
X142090000Y-99080000D01*
X154558887Y-89685677D02*
X145164564Y-99080000D01*
%TO.N,/PA9*%
X154912440Y-90039230D02*
X143331670Y-101620000D01*
X143331670Y-101620000D02*
X142090000Y-101620000D01*
%TO.N,/PA10*%
X142090000Y-103568776D02*
X142090000Y-104160000D01*
X155265993Y-90392783D02*
X142090000Y-103568776D01*
%TO.N,/D-*%
X153500000Y-102267410D02*
X153767590Y-102535000D01*
X154500000Y-102267410D02*
X154500000Y-101660000D01*
X153500000Y-101660000D02*
X153500000Y-100797499D01*
X153525000Y-100772499D02*
X153525000Y-92876240D01*
X153767590Y-102535000D02*
X154232410Y-102535000D01*
X153500000Y-101660000D02*
X153500000Y-102267410D01*
X154957188Y-91408696D02*
X155619547Y-90746337D01*
X154957188Y-91444052D02*
X154957188Y-91408696D01*
X154232410Y-102535000D02*
X154500000Y-102267410D01*
X153500000Y-100797499D02*
X153525000Y-100772499D01*
X153525000Y-92876240D02*
X154957188Y-91444052D01*
%TO.N,/D+*%
X154000000Y-101660000D02*
X154000000Y-100797499D01*
X153975000Y-100772499D02*
X153975000Y-93062634D01*
X154267590Y-100785000D02*
X154000000Y-101052590D01*
X154000000Y-100797499D02*
X153975000Y-100772499D01*
X155310741Y-91762249D02*
X155973100Y-91099890D01*
X154732410Y-100785000D02*
X154267590Y-100785000D01*
X155000000Y-101660000D02*
X155000000Y-101052590D01*
X153975000Y-93062634D02*
X155275385Y-91762249D01*
X155275385Y-91762249D02*
X155310741Y-91762249D01*
X155000000Y-101052590D02*
X154732410Y-100785000D01*
X154000000Y-101052590D02*
X154000000Y-101660000D01*
%TO.N,/SWDIO*%
X156326654Y-91453444D02*
X154790000Y-92990098D01*
X154790000Y-92990098D02*
X154790000Y-93270000D01*
%TO.N,/SWCLK*%
X160830000Y-93300000D02*
X160830000Y-93234428D01*
X160830000Y-93234428D02*
X159756122Y-92160550D01*
%TO.N,/PC11*%
X165390000Y-95673108D02*
X165390000Y-98570000D01*
X165390000Y-98570000D02*
X166390000Y-99570000D01*
X166390000Y-99570000D02*
X167570000Y-99570000D01*
X160816782Y-91099890D02*
X165390000Y-95673108D01*
%TO.N,/PC12*%
X171250000Y-97150000D02*
X171250000Y-98298107D01*
X171250000Y-98298107D02*
X174684765Y-101732872D01*
X161170335Y-90746337D02*
X165790000Y-95366002D01*
X165790000Y-95890000D02*
X166530000Y-96630000D01*
X170730000Y-96630000D02*
X171250000Y-97150000D01*
X166530000Y-96630000D02*
X170730000Y-96630000D01*
X165790000Y-95366002D02*
X165790000Y-95890000D01*
%TO.N,/PD2*%
X171500000Y-96550000D02*
X174142872Y-99192872D01*
X161523889Y-90392783D02*
X165111106Y-93980000D01*
X174142872Y-99192872D02*
X174684765Y-99192872D01*
X165111106Y-93980000D02*
X170740000Y-93980000D01*
X171500000Y-94740000D02*
X171500000Y-96550000D01*
X170740000Y-93980000D02*
X171500000Y-94740000D01*
%TO.N,/SWO*%
X165420000Y-92700000D02*
X164560000Y-92700000D01*
X164560000Y-92700000D02*
X161899230Y-90039230D01*
X161899230Y-90039230D02*
X161877442Y-90039230D01*
%TO.N,/PB4*%
X170006346Y-91470000D02*
X164015318Y-91470000D01*
X174684765Y-96652872D02*
X174684765Y-96148419D01*
X174684765Y-96148419D02*
X170006346Y-91470000D01*
X164015318Y-91470000D02*
X162230995Y-89685677D01*
%TO.N,/PB5*%
X171641893Y-91070000D02*
X174684765Y-94112872D01*
X164322426Y-91070000D02*
X171641893Y-91070000D01*
X162584549Y-89332123D02*
X164322426Y-91070000D01*
%TO.N,/SCL*%
X161899532Y-87940000D02*
X160970000Y-87940000D01*
X162938102Y-88978570D02*
X161899532Y-87940000D01*
%TO.N,/SDA*%
X163291655Y-88625017D02*
X162123363Y-87456725D01*
X162123363Y-87456725D02*
X162123363Y-86913363D01*
%TO.N,/PB8*%
X171640000Y-89950000D02*
X171660000Y-89950000D01*
X165160852Y-89080000D02*
X165800000Y-89080000D01*
X171660000Y-89950000D02*
X173282872Y-91572872D01*
X173282872Y-91572872D02*
X174684765Y-91572872D01*
X163998762Y-87917910D02*
X165160852Y-89080000D01*
%TO.N,/PB9*%
X174684765Y-89032872D02*
X171902872Y-89032872D01*
X164352316Y-87564356D02*
X165137960Y-88350000D01*
X171902872Y-89032872D02*
X171610000Y-88740000D01*
X165137960Y-88350000D02*
X166760000Y-88350000D01*
%TO.N,Net-(J3-CC1)*%
X153000000Y-101660000D02*
X153000000Y-100170000D01*
X153000000Y-100170000D02*
X152340000Y-99510000D01*
%TO.N,Net-(J3-CC2)*%
X156000000Y-100010000D02*
X155470000Y-99480000D01*
X156000000Y-101660000D02*
X156000000Y-100010000D01*
%TD*%
%TA.AperFunction,Conductor*%
%TO.N,GND*%
G36*
X167369083Y-71499407D02*
G01*
X167405047Y-71548907D01*
X167405047Y-71610093D01*
X167369083Y-71659593D01*
X167343592Y-71672943D01*
X167328047Y-71678382D01*
X167317114Y-71682208D01*
X167207855Y-71762845D01*
X167207845Y-71762855D01*
X167127207Y-71872116D01*
X167082355Y-72000296D01*
X167082353Y-72000305D01*
X167079500Y-72030725D01*
X167079500Y-73089274D01*
X167082353Y-73119694D01*
X167082355Y-73119703D01*
X167127207Y-73247883D01*
X167207845Y-73357144D01*
X167207847Y-73357146D01*
X167207850Y-73357150D01*
X167207853Y-73357152D01*
X167207855Y-73357154D01*
X167317116Y-73437792D01*
X167317117Y-73437792D01*
X167317118Y-73437793D01*
X167445301Y-73482646D01*
X167475725Y-73485499D01*
X167475727Y-73485500D01*
X167475734Y-73485500D01*
X167490500Y-73485500D01*
X167548691Y-73504407D01*
X167584655Y-73553907D01*
X167589500Y-73584500D01*
X167589500Y-73630500D01*
X167570593Y-73688691D01*
X167521093Y-73724655D01*
X167490500Y-73729500D01*
X167370252Y-73729500D01*
X167370251Y-73729500D01*
X167370241Y-73729501D01*
X167311772Y-73741132D01*
X167311766Y-73741134D01*
X167245451Y-73785445D01*
X167245445Y-73785451D01*
X167201134Y-73851766D01*
X167201132Y-73851772D01*
X167189501Y-73910241D01*
X167189500Y-73910253D01*
X167189500Y-74849746D01*
X167189501Y-74849758D01*
X167201132Y-74908227D01*
X167201133Y-74908231D01*
X167245448Y-74974552D01*
X167311769Y-75018867D01*
X167356231Y-75027711D01*
X167370241Y-75030498D01*
X167370246Y-75030498D01*
X167370252Y-75030500D01*
X167490500Y-75030500D01*
X167548691Y-75049407D01*
X167584655Y-75098907D01*
X167589500Y-75129500D01*
X167589500Y-77730500D01*
X167570593Y-77788691D01*
X167521093Y-77824655D01*
X167490500Y-77829500D01*
X167370252Y-77829500D01*
X167370251Y-77829500D01*
X167370241Y-77829501D01*
X167311772Y-77841132D01*
X167311766Y-77841134D01*
X167245451Y-77885445D01*
X167245445Y-77885451D01*
X167201134Y-77951766D01*
X167201132Y-77951772D01*
X167189501Y-78010241D01*
X167189500Y-78010253D01*
X167189500Y-78080500D01*
X167170593Y-78138691D01*
X167121093Y-78174655D01*
X167090500Y-78179500D01*
X166511232Y-78179500D01*
X166432108Y-78179500D01*
X166385331Y-78192033D01*
X166355677Y-78199979D01*
X166287163Y-78239536D01*
X166287158Y-78239540D01*
X165372816Y-79153881D01*
X165318300Y-79181658D01*
X165257868Y-79172087D01*
X165214603Y-79128822D01*
X165205032Y-79068390D01*
X165207184Y-79058266D01*
X165210500Y-79045892D01*
X165210500Y-78914108D01*
X165176392Y-78786814D01*
X165176390Y-78786811D01*
X165176390Y-78786809D01*
X165110503Y-78672690D01*
X165110501Y-78672688D01*
X165110500Y-78672686D01*
X165017314Y-78579500D01*
X165017311Y-78579498D01*
X165017309Y-78579496D01*
X164903189Y-78513609D01*
X164903191Y-78513609D01*
X164853799Y-78500375D01*
X164775892Y-78479500D01*
X164644108Y-78479500D01*
X164566200Y-78500375D01*
X164516809Y-78513609D01*
X164402690Y-78579496D01*
X164402689Y-78579497D01*
X164402686Y-78579499D01*
X164402686Y-78579500D01*
X164331680Y-78650505D01*
X164277166Y-78678281D01*
X164261679Y-78679500D01*
X163103679Y-78679500D01*
X163027256Y-78699978D01*
X162991819Y-78720438D01*
X162991818Y-78720437D01*
X162958732Y-78739540D01*
X161939618Y-79758652D01*
X161888932Y-79785745D01*
X161858337Y-79791831D01*
X161858334Y-79791832D01*
X161790209Y-79837353D01*
X161790200Y-79837360D01*
X160761886Y-80865677D01*
X160716366Y-80933800D01*
X160699461Y-81018788D01*
X160694984Y-81041297D01*
X160712755Y-81130637D01*
X160716366Y-81148791D01*
X160716367Y-81148793D01*
X160752660Y-81203110D01*
X160761886Y-81216918D01*
X160761889Y-81216921D01*
X160906325Y-81361355D01*
X160906324Y-81361355D01*
X160951847Y-81391772D01*
X160974453Y-81406878D01*
X160974454Y-81406878D01*
X160974456Y-81406879D01*
X160989198Y-81409811D01*
X161042583Y-81439706D01*
X161066985Y-81487595D01*
X161069918Y-81502343D01*
X161106213Y-81556663D01*
X161115439Y-81570471D01*
X161115442Y-81570474D01*
X161259878Y-81714908D01*
X161259877Y-81714908D01*
X161301024Y-81742402D01*
X161328006Y-81760431D01*
X161328007Y-81760431D01*
X161328009Y-81760432D01*
X161342751Y-81763364D01*
X161396136Y-81793259D01*
X161420538Y-81841148D01*
X161423471Y-81855896D01*
X161441903Y-81883482D01*
X161468992Y-81924024D01*
X161468995Y-81924027D01*
X161613431Y-82068461D01*
X161613430Y-82068461D01*
X161658953Y-82098878D01*
X161681559Y-82113984D01*
X161696308Y-82116917D01*
X161749692Y-82146813D01*
X161774091Y-82194699D01*
X161777025Y-82209449D01*
X161777026Y-82209452D01*
X161822544Y-82277575D01*
X161822546Y-82277578D01*
X161822549Y-82277581D01*
X161966985Y-82422015D01*
X161966984Y-82422015D01*
X162012507Y-82452432D01*
X162035113Y-82467538D01*
X162035114Y-82467538D01*
X162035116Y-82467539D01*
X162049858Y-82470471D01*
X162103243Y-82500366D01*
X162127645Y-82548255D01*
X162130578Y-82563003D01*
X162157966Y-82603992D01*
X162176099Y-82631131D01*
X162176102Y-82631134D01*
X162319382Y-82774412D01*
X162347160Y-82828928D01*
X162337589Y-82889360D01*
X162319383Y-82914419D01*
X161713738Y-83520066D01*
X161657789Y-83576015D01*
X161653838Y-83581165D01*
X161652381Y-83580047D01*
X161623441Y-83608981D01*
X161590937Y-83627747D01*
X161497745Y-83720939D01*
X161431858Y-83835058D01*
X161428013Y-83849408D01*
X161397749Y-83962357D01*
X161397749Y-84094141D01*
X161411757Y-84146420D01*
X161431858Y-84221439D01*
X161497745Y-84335558D01*
X161497747Y-84335560D01*
X161497749Y-84335563D01*
X161590935Y-84428749D01*
X161590937Y-84428750D01*
X161590939Y-84428752D01*
X161705059Y-84494639D01*
X161705057Y-84494639D01*
X161705061Y-84494640D01*
X161705063Y-84494641D01*
X161832357Y-84528749D01*
X161832359Y-84528749D01*
X161964139Y-84528749D01*
X161964141Y-84528749D01*
X162091435Y-84494641D01*
X162091437Y-84494639D01*
X162091439Y-84494639D01*
X162205558Y-84428752D01*
X162205558Y-84428751D01*
X162205563Y-84428749D01*
X162298749Y-84335563D01*
X162342784Y-84259292D01*
X162364639Y-84221439D01*
X162364639Y-84221437D01*
X162364641Y-84221435D01*
X162398749Y-84094141D01*
X162398749Y-83962357D01*
X162364641Y-83835063D01*
X162364640Y-83835061D01*
X162364639Y-83835057D01*
X162360180Y-83827334D01*
X162347460Y-83767486D01*
X162372347Y-83711591D01*
X162375894Y-83707851D01*
X162744355Y-83339390D01*
X162798870Y-83311615D01*
X162859302Y-83321186D01*
X162884360Y-83339392D01*
X163027645Y-83482675D01*
X163027644Y-83482675D01*
X163041461Y-83491907D01*
X163095773Y-83528198D01*
X163095774Y-83528198D01*
X163095776Y-83528199D01*
X163110518Y-83531131D01*
X163163903Y-83561026D01*
X163188305Y-83608915D01*
X163191238Y-83623663D01*
X163236757Y-83691788D01*
X163236762Y-83691794D01*
X163381198Y-83836228D01*
X163381197Y-83836228D01*
X163426720Y-83866645D01*
X163449326Y-83881751D01*
X163464075Y-83884684D01*
X163517459Y-83914580D01*
X163541858Y-83962466D01*
X163544792Y-83977216D01*
X163544793Y-83977219D01*
X163590311Y-84045342D01*
X163590316Y-84045348D01*
X163734752Y-84189782D01*
X163734751Y-84189782D01*
X163773140Y-84215433D01*
X163802880Y-84235305D01*
X163802881Y-84235305D01*
X163802883Y-84235306D01*
X163817625Y-84238238D01*
X163871010Y-84268133D01*
X163895412Y-84316022D01*
X163898345Y-84330770D01*
X163938116Y-84390292D01*
X163943867Y-84398899D01*
X164039610Y-84494641D01*
X164069995Y-84525025D01*
X164097773Y-84579541D01*
X164088202Y-84639973D01*
X164069996Y-84665031D01*
X164025489Y-84709540D01*
X164025488Y-84709539D01*
X163969539Y-84765489D01*
X163929980Y-84834007D01*
X163929978Y-84834011D01*
X163909500Y-84910435D01*
X163909500Y-85571679D01*
X163890593Y-85629870D01*
X163880509Y-85641676D01*
X163811841Y-85710345D01*
X163809497Y-85712689D01*
X163809496Y-85712690D01*
X163743609Y-85826809D01*
X163743608Y-85826814D01*
X163709500Y-85954108D01*
X163709500Y-86085892D01*
X163712009Y-86095255D01*
X163743609Y-86213190D01*
X163809496Y-86327309D01*
X163809498Y-86327311D01*
X163809500Y-86327314D01*
X163902686Y-86420500D01*
X163902688Y-86420501D01*
X163902690Y-86420503D01*
X164016810Y-86486390D01*
X164016808Y-86486390D01*
X164016812Y-86486391D01*
X164016814Y-86486392D01*
X164144108Y-86520500D01*
X164197444Y-86520500D01*
X164255635Y-86539407D01*
X164279758Y-86564496D01*
X164297420Y-86590930D01*
X164297423Y-86590933D01*
X164297427Y-86590938D01*
X165325744Y-87619252D01*
X165356047Y-87639500D01*
X165393866Y-87664771D01*
X165393868Y-87664772D01*
X165393867Y-87664772D01*
X165393869Y-87664773D01*
X165501364Y-87686155D01*
X165608858Y-87664773D01*
X165676986Y-87619252D01*
X165821422Y-87474814D01*
X165866945Y-87406686D01*
X165888327Y-87299192D01*
X165867797Y-87195979D01*
X165866945Y-87191696D01*
X165843032Y-87155909D01*
X165821424Y-87123570D01*
X165821419Y-87123565D01*
X165821416Y-87123561D01*
X164793101Y-86095249D01*
X164754497Y-86069454D01*
X164716619Y-86021403D01*
X164710500Y-85987139D01*
X164710500Y-85954109D01*
X164710500Y-85954108D01*
X164676392Y-85826814D01*
X164676390Y-85826811D01*
X164676390Y-85826809D01*
X164610503Y-85712690D01*
X164610501Y-85712688D01*
X164610500Y-85712686D01*
X164539494Y-85641680D01*
X164511719Y-85587166D01*
X164510500Y-85571679D01*
X164510500Y-85115477D01*
X164529407Y-85057286D01*
X164539491Y-85045479D01*
X164600861Y-84984108D01*
X164651550Y-84957015D01*
X164724975Y-84942411D01*
X164793102Y-84896890D01*
X165821422Y-83868568D01*
X165866945Y-83800441D01*
X165888327Y-83692946D01*
X165866945Y-83585452D01*
X165821424Y-83517324D01*
X165676986Y-83372888D01*
X165676985Y-83372887D01*
X165676986Y-83372887D01*
X165608858Y-83327365D01*
X165608856Y-83327364D01*
X165594106Y-83324430D01*
X165540723Y-83294532D01*
X165516325Y-83246645D01*
X165513392Y-83231900D01*
X165513391Y-83231897D01*
X165467876Y-83163778D01*
X165467874Y-83163775D01*
X165467871Y-83163771D01*
X165323433Y-83019335D01*
X165323432Y-83019334D01*
X165323433Y-83019334D01*
X165255305Y-82973812D01*
X165255303Y-82973811D01*
X165240553Y-82970877D01*
X165187170Y-82940979D01*
X165162772Y-82893092D01*
X165159839Y-82878347D01*
X165159838Y-82878344D01*
X165114323Y-82810225D01*
X165114321Y-82810222D01*
X165114318Y-82810218D01*
X164969880Y-82665782D01*
X164969879Y-82665781D01*
X164969880Y-82665781D01*
X164901752Y-82620259D01*
X164901749Y-82620258D01*
X164887000Y-82617324D01*
X164833616Y-82587426D01*
X164809219Y-82539543D01*
X164806285Y-82524792D01*
X164760764Y-82456664D01*
X164617479Y-82313381D01*
X164589702Y-82258866D01*
X164599273Y-82198434D01*
X164617480Y-82173374D01*
X164631361Y-82159494D01*
X164685879Y-82131718D01*
X164701362Y-82130500D01*
X164744521Y-82130500D01*
X164802712Y-82149407D01*
X164814525Y-82159496D01*
X166009540Y-83354511D01*
X166009539Y-83354511D01*
X166065489Y-83410460D01*
X166134007Y-83450019D01*
X166134011Y-83450021D01*
X166210435Y-83470499D01*
X166210437Y-83470500D01*
X166210438Y-83470500D01*
X166779563Y-83470500D01*
X166779563Y-83470499D01*
X166855989Y-83450021D01*
X166924511Y-83410460D01*
X166980460Y-83354511D01*
X168090460Y-82244511D01*
X168572310Y-81762661D01*
X168626827Y-81734883D01*
X168687259Y-81744454D01*
X168730524Y-81787719D01*
X168740095Y-81848150D01*
X168734500Y-81883476D01*
X168734500Y-82324520D01*
X168715593Y-82382711D01*
X168705504Y-82394524D01*
X168035489Y-83064540D01*
X168035488Y-83064539D01*
X167979542Y-83120486D01*
X167979540Y-83120488D01*
X167979540Y-83120489D01*
X167939979Y-83189011D01*
X167939978Y-83189013D01*
X167936735Y-83194631D01*
X167935509Y-83193923D01*
X167900500Y-83234912D01*
X167848774Y-83249500D01*
X167700252Y-83249500D01*
X167700251Y-83249500D01*
X167700241Y-83249501D01*
X167641772Y-83261132D01*
X167641766Y-83261134D01*
X167575451Y-83305445D01*
X167575445Y-83305451D01*
X167531134Y-83371766D01*
X167531132Y-83371772D01*
X167519501Y-83430241D01*
X167519500Y-83430253D01*
X167519500Y-84369746D01*
X167519501Y-84369758D01*
X167531132Y-84428227D01*
X167531134Y-84428233D01*
X167575445Y-84494548D01*
X167575448Y-84494552D01*
X167641769Y-84538867D01*
X167686231Y-84547711D01*
X167700241Y-84550498D01*
X167700246Y-84550498D01*
X167700252Y-84550500D01*
X167820500Y-84550500D01*
X167878691Y-84569407D01*
X167914655Y-84618907D01*
X167919500Y-84649500D01*
X167919500Y-87250500D01*
X167900593Y-87308691D01*
X167851093Y-87344655D01*
X167820500Y-87349500D01*
X167700252Y-87349500D01*
X167700251Y-87349500D01*
X167700241Y-87349501D01*
X167641772Y-87361132D01*
X167641766Y-87361134D01*
X167575451Y-87405445D01*
X167575445Y-87405451D01*
X167531134Y-87471766D01*
X167531132Y-87471772D01*
X167519501Y-87530241D01*
X167519500Y-87530253D01*
X167519500Y-88469746D01*
X167519501Y-88469758D01*
X167531132Y-88528227D01*
X167531133Y-88528231D01*
X167543152Y-88546218D01*
X167580388Y-88601946D01*
X167596996Y-88660834D01*
X167575818Y-88718237D01*
X167568076Y-88726951D01*
X167469415Y-88825612D01*
X167414898Y-88853389D01*
X167366715Y-88849053D01*
X167304701Y-88827354D01*
X167304694Y-88827353D01*
X167274274Y-88824500D01*
X167274266Y-88824500D01*
X167232321Y-88824500D01*
X167174130Y-88805593D01*
X167138166Y-88756093D01*
X167138166Y-88694907D01*
X167157570Y-88663242D01*
X167156551Y-88662460D01*
X167160496Y-88657317D01*
X167160500Y-88657314D01*
X167168023Y-88644284D01*
X167226390Y-88543190D01*
X167226390Y-88543188D01*
X167226392Y-88543186D01*
X167260500Y-88415892D01*
X167260500Y-88284108D01*
X167226392Y-88156814D01*
X167226390Y-88156811D01*
X167226390Y-88156809D01*
X167160503Y-88042690D01*
X167160501Y-88042688D01*
X167160500Y-88042686D01*
X167067314Y-87949500D01*
X167067311Y-87949498D01*
X167067309Y-87949496D01*
X166953189Y-87883609D01*
X166953191Y-87883609D01*
X166900534Y-87869500D01*
X166825892Y-87849500D01*
X166694108Y-87849500D01*
X166619466Y-87869500D01*
X166566809Y-87883609D01*
X166452690Y-87949496D01*
X166452689Y-87949497D01*
X166452686Y-87949499D01*
X166452686Y-87949500D01*
X166381680Y-88020505D01*
X166327166Y-88048281D01*
X166311679Y-88049500D01*
X165303439Y-88049500D01*
X165245248Y-88030593D01*
X165233435Y-88020504D01*
X165193018Y-87980087D01*
X165165924Y-87929395D01*
X165159839Y-87898803D01*
X165159839Y-87898802D01*
X165140259Y-87869500D01*
X165114318Y-87830676D01*
X165114313Y-87830671D01*
X165114310Y-87830667D01*
X164085993Y-86802353D01*
X164017869Y-86756833D01*
X164017870Y-86756833D01*
X163910374Y-86735451D01*
X163802879Y-86756833D01*
X163802877Y-86756834D01*
X163734755Y-86802351D01*
X163734749Y-86802356D01*
X163590315Y-86946792D01*
X163544792Y-87014920D01*
X163544792Y-87014921D01*
X163541858Y-87029671D01*
X163511960Y-87083055D01*
X163464078Y-87107452D01*
X163449327Y-87110386D01*
X163449324Y-87110387D01*
X163381201Y-87155905D01*
X163381195Y-87155910D01*
X163236761Y-87300346D01*
X163191239Y-87368473D01*
X163191238Y-87368475D01*
X163188304Y-87383226D01*
X163158405Y-87436609D01*
X163110526Y-87461005D01*
X163100609Y-87462977D01*
X163095773Y-87463940D01*
X163095772Y-87463940D01*
X163095770Y-87463941D01*
X163027648Y-87509458D01*
X163027645Y-87509461D01*
X162986611Y-87550496D01*
X162884362Y-87652745D01*
X162829845Y-87680522D01*
X162769413Y-87670951D01*
X162744354Y-87652745D01*
X162488078Y-87396469D01*
X162460301Y-87341952D01*
X162469872Y-87281520D01*
X162488075Y-87256464D01*
X162523863Y-87220677D01*
X162523866Y-87220672D01*
X162589753Y-87106553D01*
X162589753Y-87106551D01*
X162589755Y-87106549D01*
X162623863Y-86979255D01*
X162623863Y-86847471D01*
X162589755Y-86720177D01*
X162589753Y-86720174D01*
X162589753Y-86720172D01*
X162523866Y-86606053D01*
X162523864Y-86606051D01*
X162523863Y-86606049D01*
X162430677Y-86512863D01*
X162430674Y-86512861D01*
X162430672Y-86512859D01*
X162316552Y-86446972D01*
X162316554Y-86446972D01*
X162267162Y-86433738D01*
X162189255Y-86412863D01*
X162057471Y-86412863D01*
X161979563Y-86433738D01*
X161930172Y-86446972D01*
X161816053Y-86512859D01*
X161722859Y-86606053D01*
X161656972Y-86720172D01*
X161647149Y-86756832D01*
X161622863Y-86847471D01*
X161622863Y-86979255D01*
X161649202Y-87077554D01*
X161656972Y-87106553D01*
X161722859Y-87220672D01*
X161722861Y-87220674D01*
X161722863Y-87220677D01*
X161793868Y-87291682D01*
X161821644Y-87346197D01*
X161822755Y-87357063D01*
X161822863Y-87359374D01*
X161822863Y-87496287D01*
X161830611Y-87525202D01*
X161831110Y-87535879D01*
X161825711Y-87555578D01*
X161824643Y-87575976D01*
X161817809Y-87584415D01*
X161814939Y-87594889D01*
X161798992Y-87607653D01*
X161786139Y-87623527D01*
X161775062Y-87626808D01*
X161767172Y-87633124D01*
X161751226Y-87633869D01*
X161732218Y-87639500D01*
X161418321Y-87639500D01*
X161360130Y-87620593D01*
X161348323Y-87610509D01*
X161277314Y-87539500D01*
X161277311Y-87539498D01*
X161277309Y-87539496D01*
X161163189Y-87473609D01*
X161163191Y-87473609D01*
X161113799Y-87460375D01*
X161035892Y-87439500D01*
X160904108Y-87439500D01*
X160826200Y-87460375D01*
X160776809Y-87473609D01*
X160662690Y-87539496D01*
X160569496Y-87632690D01*
X160503609Y-87746809D01*
X160503608Y-87746814D01*
X160469500Y-87874108D01*
X160469500Y-88005892D01*
X160488173Y-88075581D01*
X160503609Y-88133190D01*
X160569496Y-88247309D01*
X160569498Y-88247311D01*
X160569500Y-88247314D01*
X160662686Y-88340500D01*
X160662688Y-88340501D01*
X160662690Y-88340503D01*
X160776810Y-88406390D01*
X160776808Y-88406390D01*
X160776812Y-88406391D01*
X160776814Y-88406392D01*
X160904108Y-88440500D01*
X160904110Y-88440500D01*
X161035890Y-88440500D01*
X161035892Y-88440500D01*
X161163186Y-88406392D01*
X161163188Y-88406390D01*
X161163190Y-88406390D01*
X161277309Y-88340503D01*
X161277309Y-88340502D01*
X161277314Y-88340500D01*
X161348319Y-88269494D01*
X161402834Y-88241719D01*
X161418321Y-88240500D01*
X161734053Y-88240500D01*
X161792244Y-88259407D01*
X161804057Y-88269496D01*
X161965830Y-88431269D01*
X161993607Y-88485786D01*
X161984036Y-88546218D01*
X161965830Y-88571276D01*
X161822548Y-88714559D01*
X161777025Y-88782687D01*
X161777025Y-88782688D01*
X161774091Y-88797438D01*
X161744193Y-88850822D01*
X161696311Y-88875219D01*
X161681560Y-88878153D01*
X161681557Y-88878154D01*
X161613434Y-88923672D01*
X161613428Y-88923677D01*
X161468994Y-89068113D01*
X161423472Y-89136240D01*
X161423471Y-89136242D01*
X161420537Y-89150993D01*
X161390638Y-89204376D01*
X161342759Y-89228772D01*
X161332842Y-89230744D01*
X161328006Y-89231707D01*
X161328005Y-89231707D01*
X161328003Y-89231708D01*
X161259881Y-89277225D01*
X161259875Y-89277230D01*
X161115441Y-89421666D01*
X161069919Y-89489793D01*
X161069918Y-89489795D01*
X161066984Y-89504546D01*
X161037085Y-89557929D01*
X160989206Y-89582325D01*
X160979289Y-89584297D01*
X160974453Y-89585260D01*
X160974452Y-89585260D01*
X160974450Y-89585261D01*
X160906328Y-89630778D01*
X160906322Y-89630783D01*
X160761888Y-89775219D01*
X160716365Y-89843347D01*
X160716365Y-89843348D01*
X160713431Y-89858098D01*
X160683533Y-89911482D01*
X160635651Y-89935879D01*
X160620900Y-89938813D01*
X160620897Y-89938814D01*
X160552774Y-89984332D01*
X160552768Y-89984337D01*
X160408334Y-90128773D01*
X160362812Y-90196900D01*
X160362811Y-90196902D01*
X160359877Y-90211653D01*
X160329978Y-90265036D01*
X160282099Y-90289432D01*
X160272182Y-90291404D01*
X160267346Y-90292367D01*
X160267345Y-90292367D01*
X160267343Y-90292368D01*
X160199221Y-90337885D01*
X160199215Y-90337890D01*
X160054781Y-90482326D01*
X160009258Y-90550454D01*
X160009258Y-90550455D01*
X160006324Y-90565205D01*
X159976426Y-90618589D01*
X159928544Y-90642986D01*
X159913793Y-90645920D01*
X159913790Y-90645921D01*
X159845667Y-90691439D01*
X159845661Y-90691444D01*
X159701227Y-90835880D01*
X159655705Y-90904007D01*
X159655704Y-90904009D01*
X159652770Y-90918760D01*
X159622871Y-90972143D01*
X159574992Y-90996539D01*
X159565075Y-90998511D01*
X159560239Y-90999474D01*
X159560238Y-90999474D01*
X159560236Y-90999475D01*
X159492114Y-91044992D01*
X159492108Y-91044997D01*
X159347674Y-91189433D01*
X159302152Y-91257560D01*
X159302151Y-91257562D01*
X159299217Y-91272313D01*
X159269318Y-91325696D01*
X159221439Y-91350092D01*
X159211522Y-91352064D01*
X159206686Y-91353027D01*
X159206685Y-91353027D01*
X159206683Y-91353028D01*
X159138561Y-91398545D01*
X159138555Y-91398550D01*
X158994121Y-91542986D01*
X158948599Y-91611112D01*
X158927217Y-91718608D01*
X158948598Y-91826103D01*
X158966500Y-91852894D01*
X158994120Y-91894230D01*
X158994123Y-91894233D01*
X158994127Y-91894238D01*
X160022444Y-92922552D01*
X160062774Y-92949500D01*
X160090569Y-92968073D01*
X160090570Y-92968073D01*
X160090572Y-92968074D01*
X160121161Y-92974158D01*
X160171853Y-93001252D01*
X160304977Y-93134376D01*
X160332754Y-93188893D01*
X160330601Y-93229998D01*
X160329500Y-93234108D01*
X160329500Y-93365892D01*
X160350219Y-93443217D01*
X160363609Y-93493190D01*
X160429496Y-93607309D01*
X160429498Y-93607311D01*
X160429500Y-93607314D01*
X160522686Y-93700500D01*
X160522688Y-93700501D01*
X160522690Y-93700503D01*
X160636810Y-93766390D01*
X160636808Y-93766390D01*
X160636812Y-93766391D01*
X160636814Y-93766392D01*
X160764108Y-93800500D01*
X160764110Y-93800500D01*
X160895890Y-93800500D01*
X160895892Y-93800500D01*
X161023186Y-93766392D01*
X161023188Y-93766390D01*
X161023190Y-93766390D01*
X161137309Y-93700503D01*
X161137309Y-93700502D01*
X161137314Y-93700500D01*
X161230500Y-93607314D01*
X161247821Y-93577314D01*
X161296390Y-93493190D01*
X161296390Y-93493188D01*
X161296392Y-93493186D01*
X161330500Y-93365892D01*
X161330500Y-93234108D01*
X161296392Y-93106814D01*
X161296390Y-93106811D01*
X161296390Y-93106809D01*
X161230503Y-92992690D01*
X161230501Y-92992688D01*
X161230500Y-92992686D01*
X161137314Y-92899500D01*
X161137311Y-92899498D01*
X161137309Y-92899496D01*
X161023189Y-92833609D01*
X161023191Y-92833609D01*
X160973799Y-92820375D01*
X160895892Y-92799500D01*
X160895890Y-92799500D01*
X160861051Y-92799500D01*
X160802860Y-92780593D01*
X160791047Y-92770504D01*
X160728393Y-92707850D01*
X160700616Y-92653333D01*
X160710187Y-92592901D01*
X160728385Y-92567852D01*
X160871675Y-92424561D01*
X160917198Y-92356433D01*
X160920131Y-92341688D01*
X160950025Y-92288303D01*
X160997918Y-92263900D01*
X160998700Y-92263744D01*
X161012664Y-92260967D01*
X161080792Y-92215446D01*
X161224074Y-92072161D01*
X161278590Y-92044384D01*
X161339022Y-92053955D01*
X161364082Y-92072161D01*
X165060504Y-95768583D01*
X165088281Y-95823100D01*
X165089500Y-95838587D01*
X165089500Y-98609564D01*
X165109977Y-98685985D01*
X165109979Y-98685990D01*
X165132215Y-98724504D01*
X165149538Y-98754508D01*
X165149540Y-98754511D01*
X166205489Y-99810460D01*
X166205491Y-99810461D01*
X166205493Y-99810463D01*
X166274008Y-99850020D01*
X166274006Y-99850020D01*
X166274010Y-99850021D01*
X166274012Y-99850022D01*
X166350438Y-99870500D01*
X167121679Y-99870500D01*
X167179870Y-99889407D01*
X167191676Y-99899490D01*
X167262686Y-99970500D01*
X167262688Y-99970501D01*
X167262690Y-99970503D01*
X167376810Y-100036390D01*
X167376808Y-100036390D01*
X167376812Y-100036391D01*
X167376814Y-100036392D01*
X167504108Y-100070500D01*
X167504110Y-100070500D01*
X167635890Y-100070500D01*
X167635892Y-100070500D01*
X167763186Y-100036392D01*
X167763188Y-100036390D01*
X167763190Y-100036390D01*
X167877309Y-99970503D01*
X167877309Y-99970502D01*
X167877314Y-99970500D01*
X167970500Y-99877314D01*
X167994755Y-99835304D01*
X168036390Y-99763190D01*
X168036390Y-99763188D01*
X168036392Y-99763186D01*
X168070500Y-99635892D01*
X168070500Y-99504108D01*
X168036392Y-99376814D01*
X168036390Y-99376811D01*
X168036390Y-99376809D01*
X167970503Y-99262690D01*
X167970501Y-99262688D01*
X167970500Y-99262686D01*
X167877314Y-99169500D01*
X167877311Y-99169498D01*
X167877309Y-99169496D01*
X167763189Y-99103609D01*
X167763191Y-99103609D01*
X167710175Y-99089404D01*
X167635892Y-99069500D01*
X167504108Y-99069500D01*
X167429825Y-99089404D01*
X167376809Y-99103609D01*
X167262690Y-99169496D01*
X167262689Y-99169497D01*
X167262686Y-99169499D01*
X167262686Y-99169500D01*
X167191680Y-99240505D01*
X167137166Y-99268281D01*
X167121679Y-99269500D01*
X166555479Y-99269500D01*
X166497288Y-99250593D01*
X166485475Y-99240504D01*
X165719496Y-98474525D01*
X165691719Y-98420008D01*
X165690500Y-98404521D01*
X165690500Y-96454479D01*
X165709407Y-96396288D01*
X165758907Y-96360324D01*
X165820093Y-96360324D01*
X165859504Y-96384475D01*
X166289540Y-96814511D01*
X166289539Y-96814511D01*
X166349694Y-96874665D01*
X166377472Y-96929181D01*
X166367901Y-96989613D01*
X166349695Y-97014672D01*
X166254022Y-97110345D01*
X166139058Y-97282402D01*
X166059869Y-97473581D01*
X166019500Y-97676532D01*
X166019500Y-97883467D01*
X166059869Y-98086418D01*
X166139058Y-98277597D01*
X166246578Y-98438513D01*
X166254023Y-98449655D01*
X166400345Y-98595977D01*
X166572402Y-98710941D01*
X166763580Y-98790130D01*
X166966535Y-98830500D01*
X166966536Y-98830500D01*
X167173464Y-98830500D01*
X167173465Y-98830500D01*
X167376420Y-98790130D01*
X167567598Y-98710941D01*
X167739655Y-98595977D01*
X167885977Y-98449655D01*
X168000941Y-98277598D01*
X168080130Y-98086420D01*
X168120500Y-97883465D01*
X168120500Y-97676535D01*
X168080130Y-97473580D01*
X168000941Y-97282402D01*
X167885977Y-97110345D01*
X167875133Y-97099501D01*
X167847358Y-97044987D01*
X167856929Y-96984555D01*
X167900194Y-96941290D01*
X167945139Y-96930500D01*
X168460500Y-96930500D01*
X168518691Y-96949407D01*
X168554655Y-96998907D01*
X168559500Y-97029500D01*
X168559500Y-98649746D01*
X168559501Y-98649758D01*
X168571132Y-98708227D01*
X168571134Y-98708233D01*
X168614799Y-98773581D01*
X168615448Y-98774552D01*
X168681769Y-98818867D01*
X168726231Y-98827711D01*
X168740241Y-98830498D01*
X168740246Y-98830498D01*
X168740252Y-98830500D01*
X169220500Y-98830500D01*
X169278691Y-98849407D01*
X169314655Y-98898907D01*
X169319500Y-98929500D01*
X169319500Y-99995142D01*
X169300593Y-100053333D01*
X169253198Y-100088586D01*
X169157117Y-100122207D01*
X169157116Y-100122207D01*
X169047855Y-100202845D01*
X169047845Y-100202855D01*
X168967207Y-100312116D01*
X168922355Y-100440296D01*
X168922353Y-100440305D01*
X168919500Y-100470725D01*
X168919500Y-100676972D01*
X168900593Y-100735163D01*
X168879540Y-100754158D01*
X168880638Y-100755589D01*
X168875492Y-100759537D01*
X164739504Y-104895525D01*
X164684987Y-104923302D01*
X164624555Y-104913731D01*
X164581290Y-104870466D01*
X164570500Y-104825521D01*
X164570500Y-102559500D01*
X164589407Y-102501309D01*
X164638907Y-102465345D01*
X164669500Y-102460500D01*
X164682719Y-102460500D01*
X164682720Y-102460500D01*
X164795236Y-102445687D01*
X164935233Y-102387698D01*
X165055451Y-102295451D01*
X165147698Y-102175233D01*
X165205687Y-102035236D01*
X165220500Y-101922720D01*
X165220500Y-100597280D01*
X165205687Y-100484764D01*
X165147698Y-100344767D01*
X165055451Y-100224549D01*
X164935233Y-100132302D01*
X164930880Y-100130499D01*
X164865234Y-100103307D01*
X164795236Y-100074313D01*
X164795234Y-100074312D01*
X164795232Y-100074312D01*
X164682720Y-100059500D01*
X163857280Y-100059500D01*
X163857279Y-100059500D01*
X163744767Y-100074312D01*
X163744761Y-100074314D01*
X163604768Y-100132301D01*
X163484551Y-100224547D01*
X163484547Y-100224551D01*
X163392301Y-100344768D01*
X163334314Y-100484761D01*
X163334312Y-100484767D01*
X163319500Y-100597279D01*
X163319500Y-101922720D01*
X163334312Y-102035232D01*
X163334314Y-102035238D01*
X163386075Y-102160201D01*
X163392302Y-102175233D01*
X163484549Y-102295451D01*
X163604767Y-102387698D01*
X163744764Y-102445687D01*
X163857280Y-102460500D01*
X163870500Y-102460500D01*
X163928691Y-102479407D01*
X163964655Y-102528907D01*
X163969500Y-102559500D01*
X163969500Y-106260500D01*
X163950593Y-106318691D01*
X163901093Y-106354655D01*
X163870500Y-106359500D01*
X162813379Y-106359500D01*
X162742805Y-106365913D01*
X162580394Y-106416521D01*
X162580392Y-106416522D01*
X162434816Y-106504527D01*
X162314527Y-106624816D01*
X162226522Y-106770392D01*
X162226521Y-106770394D01*
X162175913Y-106932805D01*
X162169500Y-107003379D01*
X162169500Y-108116620D01*
X162175913Y-108187194D01*
X162226521Y-108349605D01*
X162226524Y-108349611D01*
X162262598Y-108409284D01*
X162276522Y-108468864D01*
X162252766Y-108525249D01*
X162200405Y-108556903D01*
X162177876Y-108559500D01*
X142229978Y-108559500D01*
X142222915Y-108559248D01*
X142073109Y-108548533D01*
X142059127Y-108546522D01*
X141863386Y-108503940D01*
X141849835Y-108499961D01*
X141662125Y-108429950D01*
X141649275Y-108424082D01*
X141633241Y-108415327D01*
X141605359Y-108400102D01*
X141473452Y-108328075D01*
X141461570Y-108320439D01*
X141382384Y-108261161D01*
X141301200Y-108200387D01*
X141290526Y-108191139D01*
X141148858Y-108049471D01*
X141139608Y-108038795D01*
X141019558Y-107878427D01*
X141011922Y-107866545D01*
X140915912Y-107690715D01*
X140910048Y-107677873D01*
X140840037Y-107490163D01*
X140836058Y-107476611D01*
X140793476Y-107280869D01*
X140791465Y-107266887D01*
X140780752Y-107117084D01*
X140780500Y-107110022D01*
X140780500Y-105946055D01*
X149230000Y-105946055D01*
X149230000Y-106314999D01*
X149230001Y-106315000D01*
X149630000Y-106315000D01*
X149630000Y-106515000D01*
X149230001Y-106515000D01*
X149230000Y-106515001D01*
X149230000Y-106883944D01*
X149256901Y-107019183D01*
X149309666Y-107146571D01*
X149386271Y-107261220D01*
X149483779Y-107358728D01*
X149598428Y-107435333D01*
X149725817Y-107488098D01*
X149830000Y-107508822D01*
X149830000Y-107098788D01*
X149890504Y-107115000D01*
X149969496Y-107115000D01*
X150030000Y-107098788D01*
X150030000Y-107508821D01*
X150134181Y-107488098D01*
X150134183Y-107488098D01*
X150261571Y-107435333D01*
X150376220Y-107358728D01*
X150473728Y-107261220D01*
X150550333Y-107146571D01*
X150603098Y-107019183D01*
X150629999Y-106883944D01*
X150630000Y-106883942D01*
X150630000Y-106515001D01*
X150629999Y-106515000D01*
X150230000Y-106515000D01*
X150230000Y-106315000D01*
X150629999Y-106315000D01*
X150630000Y-106314999D01*
X150630000Y-105946057D01*
X150629999Y-105946055D01*
X157870000Y-105946055D01*
X157870000Y-106314999D01*
X157870001Y-106315000D01*
X158270000Y-106315000D01*
X158270000Y-106515000D01*
X157870001Y-106515000D01*
X157870000Y-106515001D01*
X157870000Y-106883944D01*
X157896901Y-107019183D01*
X157949666Y-107146571D01*
X158026271Y-107261220D01*
X158123779Y-107358728D01*
X158238428Y-107435333D01*
X158365817Y-107488098D01*
X158470000Y-107508822D01*
X158470000Y-107098788D01*
X158530504Y-107115000D01*
X158609496Y-107115000D01*
X158670000Y-107098788D01*
X158670000Y-107508821D01*
X158774181Y-107488098D01*
X158774183Y-107488098D01*
X158901571Y-107435333D01*
X159016220Y-107358728D01*
X159113728Y-107261220D01*
X159190333Y-107146571D01*
X159243098Y-107019183D01*
X159269999Y-106883944D01*
X159270000Y-106883942D01*
X159270000Y-106515001D01*
X159269999Y-106515000D01*
X158870000Y-106515000D01*
X158870000Y-106315000D01*
X159269999Y-106315000D01*
X159270000Y-106314999D01*
X159270000Y-105946057D01*
X159269999Y-105946055D01*
X159243098Y-105810816D01*
X159190333Y-105683428D01*
X159113728Y-105568779D01*
X159016220Y-105471271D01*
X158901571Y-105394666D01*
X158774182Y-105341901D01*
X158670000Y-105321177D01*
X158670000Y-105731211D01*
X158609496Y-105715000D01*
X158530504Y-105715000D01*
X158470000Y-105731211D01*
X158470000Y-105321177D01*
X158365817Y-105341901D01*
X158238428Y-105394666D01*
X158123779Y-105471271D01*
X158026271Y-105568779D01*
X157949666Y-105683428D01*
X157896901Y-105810816D01*
X157870000Y-105946055D01*
X150629999Y-105946055D01*
X150603098Y-105810816D01*
X150550333Y-105683428D01*
X150473728Y-105568779D01*
X150376220Y-105471271D01*
X150261571Y-105394666D01*
X150134182Y-105341901D01*
X150030000Y-105321177D01*
X150030000Y-105731211D01*
X149969496Y-105715000D01*
X149890504Y-105715000D01*
X149830000Y-105731211D01*
X149830000Y-105321177D01*
X149725817Y-105341901D01*
X149598428Y-105394666D01*
X149483779Y-105471271D01*
X149386271Y-105568779D01*
X149309666Y-105683428D01*
X149256901Y-105810816D01*
X149230000Y-105946055D01*
X140780500Y-105946055D01*
X140780500Y-75350253D01*
X141039500Y-75350253D01*
X141039500Y-77089746D01*
X141039501Y-77089758D01*
X141051132Y-77148227D01*
X141051134Y-77148233D01*
X141095445Y-77214548D01*
X141095448Y-77214552D01*
X141161769Y-77258867D01*
X141206231Y-77267711D01*
X141220241Y-77270498D01*
X141220246Y-77270498D01*
X141220252Y-77270500D01*
X141934521Y-77270500D01*
X141992712Y-77289407D01*
X142004525Y-77299496D01*
X142245525Y-77540496D01*
X142273302Y-77595013D01*
X142263731Y-77655445D01*
X142220466Y-77698710D01*
X142175521Y-77709500D01*
X141986532Y-77709500D01*
X141783581Y-77749869D01*
X141592402Y-77829058D01*
X141420348Y-77944020D01*
X141274020Y-78090348D01*
X141159058Y-78262402D01*
X141079869Y-78453581D01*
X141039500Y-78656532D01*
X141039500Y-78863467D01*
X141079869Y-79066418D01*
X141159058Y-79257597D01*
X141269201Y-79422439D01*
X141274023Y-79429655D01*
X141420345Y-79575977D01*
X141592402Y-79690941D01*
X141783580Y-79770130D01*
X141986535Y-79810500D01*
X141986536Y-79810500D01*
X142154521Y-79810500D01*
X142212712Y-79829407D01*
X142224525Y-79839496D01*
X142519881Y-80134852D01*
X142547658Y-80189369D01*
X142538087Y-80249801D01*
X142494822Y-80293066D01*
X142434390Y-80302637D01*
X142411992Y-80296320D01*
X142396420Y-80289870D01*
X142193467Y-80249500D01*
X142193465Y-80249500D01*
X141986535Y-80249500D01*
X141986532Y-80249500D01*
X141783581Y-80289869D01*
X141592402Y-80369058D01*
X141420348Y-80484020D01*
X141274020Y-80630348D01*
X141159058Y-80802402D01*
X141079869Y-80993581D01*
X141039500Y-81196532D01*
X141039500Y-81403467D01*
X141079869Y-81606418D01*
X141159058Y-81797597D01*
X141274020Y-81969651D01*
X141274023Y-81969655D01*
X141420345Y-82115977D01*
X141592402Y-82230941D01*
X141783580Y-82310130D01*
X141986535Y-82350500D01*
X141986536Y-82350500D01*
X142193464Y-82350500D01*
X142193465Y-82350500D01*
X142396420Y-82310130D01*
X142532405Y-82253802D01*
X142593399Y-82249002D01*
X142640292Y-82275263D01*
X148315525Y-87950496D01*
X148343302Y-88005013D01*
X148333731Y-88065445D01*
X148290466Y-88108710D01*
X148245521Y-88119500D01*
X146835479Y-88119500D01*
X146777288Y-88100593D01*
X146765475Y-88090504D01*
X143065263Y-84390292D01*
X143037486Y-84335775D01*
X143043802Y-84282405D01*
X143100130Y-84146420D01*
X143140500Y-83943465D01*
X143140500Y-83736535D01*
X143100130Y-83533580D01*
X143020941Y-83342402D01*
X142905977Y-83170345D01*
X142759655Y-83024023D01*
X142759651Y-83024020D01*
X142587597Y-82909058D01*
X142396418Y-82829869D01*
X142193467Y-82789500D01*
X142193465Y-82789500D01*
X141986535Y-82789500D01*
X141986532Y-82789500D01*
X141783581Y-82829869D01*
X141592402Y-82909058D01*
X141420348Y-83024020D01*
X141274020Y-83170348D01*
X141159058Y-83342402D01*
X141079869Y-83533581D01*
X141039500Y-83736532D01*
X141039500Y-83943467D01*
X141079869Y-84146418D01*
X141159058Y-84337597D01*
X141263991Y-84494641D01*
X141274023Y-84509655D01*
X141420345Y-84655977D01*
X141592402Y-84770941D01*
X141783580Y-84850130D01*
X141986535Y-84890500D01*
X141986536Y-84890500D01*
X142193464Y-84890500D01*
X142193465Y-84890500D01*
X142396420Y-84850130D01*
X142532405Y-84793802D01*
X142593399Y-84789002D01*
X142640292Y-84815263D01*
X146175525Y-88350496D01*
X146203302Y-88405013D01*
X146193731Y-88465445D01*
X146150466Y-88508710D01*
X146105521Y-88519500D01*
X144695479Y-88519500D01*
X144637288Y-88500593D01*
X144625475Y-88490504D01*
X143065263Y-86930292D01*
X143037486Y-86875775D01*
X143043802Y-86822405D01*
X143100130Y-86686420D01*
X143140500Y-86483465D01*
X143140500Y-86276535D01*
X143100130Y-86073580D01*
X143020941Y-85882402D01*
X142905977Y-85710345D01*
X142759655Y-85564023D01*
X142759651Y-85564020D01*
X142587597Y-85449058D01*
X142396418Y-85369869D01*
X142193467Y-85329500D01*
X142193465Y-85329500D01*
X141986535Y-85329500D01*
X141986532Y-85329500D01*
X141783581Y-85369869D01*
X141592402Y-85449058D01*
X141420348Y-85564020D01*
X141274020Y-85710348D01*
X141159058Y-85882402D01*
X141079869Y-86073581D01*
X141039500Y-86276532D01*
X141039500Y-86483467D01*
X141079869Y-86686418D01*
X141159058Y-86877597D01*
X141260669Y-87029669D01*
X141274023Y-87049655D01*
X141420345Y-87195977D01*
X141592402Y-87310941D01*
X141783580Y-87390130D01*
X141986535Y-87430500D01*
X141986536Y-87430500D01*
X142193464Y-87430500D01*
X142193465Y-87430500D01*
X142396420Y-87390130D01*
X142532405Y-87333802D01*
X142593399Y-87329002D01*
X142640292Y-87355263D01*
X144035525Y-88750496D01*
X144063302Y-88805013D01*
X144053731Y-88865445D01*
X144010466Y-88908710D01*
X143965521Y-88919500D01*
X143239500Y-88919500D01*
X143181309Y-88900593D01*
X143145345Y-88851093D01*
X143140500Y-88820500D01*
X143140500Y-88816536D01*
X143140499Y-88816532D01*
X143140471Y-88816392D01*
X143100130Y-88613580D01*
X143020941Y-88422402D01*
X142905977Y-88250345D01*
X142759655Y-88104023D01*
X142759651Y-88104020D01*
X142587597Y-87989058D01*
X142396418Y-87909869D01*
X142193467Y-87869500D01*
X142193465Y-87869500D01*
X141986535Y-87869500D01*
X141986532Y-87869500D01*
X141783581Y-87909869D01*
X141592402Y-87989058D01*
X141420348Y-88104020D01*
X141274020Y-88250348D01*
X141159058Y-88422402D01*
X141079869Y-88613581D01*
X141039500Y-88816532D01*
X141039500Y-89023467D01*
X141079869Y-89226418D01*
X141159058Y-89417597D01*
X141271086Y-89585260D01*
X141274023Y-89589655D01*
X141420345Y-89735977D01*
X141592402Y-89850941D01*
X141783580Y-89930130D01*
X141986535Y-89970500D01*
X141986536Y-89970500D01*
X142193464Y-89970500D01*
X142193465Y-89970500D01*
X142396420Y-89930130D01*
X142587598Y-89850941D01*
X142759655Y-89735977D01*
X142905977Y-89589655D01*
X142922786Y-89564497D01*
X142970836Y-89526619D01*
X143005101Y-89520500D01*
X151938765Y-89520500D01*
X151996956Y-89539407D01*
X152032920Y-89588907D01*
X152032920Y-89650093D01*
X152008769Y-89689504D01*
X150567769Y-91130504D01*
X150513252Y-91158281D01*
X150497765Y-91159500D01*
X143168732Y-91159500D01*
X143110541Y-91140593D01*
X143077268Y-91098386D01*
X143020941Y-90962402D01*
X142905979Y-90790348D01*
X142905977Y-90790345D01*
X142759655Y-90644023D01*
X142758103Y-90642986D01*
X142587597Y-90529058D01*
X142396418Y-90449869D01*
X142193467Y-90409500D01*
X142193465Y-90409500D01*
X141986535Y-90409500D01*
X141986532Y-90409500D01*
X141783581Y-90449869D01*
X141592402Y-90529058D01*
X141420348Y-90644020D01*
X141274020Y-90790348D01*
X141159058Y-90962402D01*
X141079869Y-91153581D01*
X141039500Y-91356532D01*
X141039500Y-91563467D01*
X141079869Y-91766418D01*
X141159058Y-91957597D01*
X141274020Y-92129651D01*
X141274023Y-92129655D01*
X141420345Y-92275977D01*
X141592402Y-92390941D01*
X141783580Y-92470130D01*
X141986535Y-92510500D01*
X141986536Y-92510500D01*
X142193464Y-92510500D01*
X142193465Y-92510500D01*
X142396420Y-92470130D01*
X142587598Y-92390941D01*
X142759655Y-92275977D01*
X142905977Y-92129655D01*
X143020941Y-91957598D01*
X143075408Y-91826104D01*
X143077268Y-91821614D01*
X143117005Y-91775088D01*
X143168732Y-91760500D01*
X150405871Y-91760500D01*
X150464062Y-91779407D01*
X150500026Y-91828907D01*
X150500026Y-91890093D01*
X150475875Y-91929504D01*
X148734875Y-93670504D01*
X148680358Y-93698281D01*
X148664871Y-93699500D01*
X143168732Y-93699500D01*
X143110541Y-93680593D01*
X143077268Y-93638386D01*
X143020941Y-93502402D01*
X142905979Y-93330348D01*
X142905977Y-93330345D01*
X142759655Y-93184023D01*
X142759651Y-93184020D01*
X142587597Y-93069058D01*
X142396418Y-92989869D01*
X142193467Y-92949500D01*
X142193465Y-92949500D01*
X141986535Y-92949500D01*
X141986532Y-92949500D01*
X141783581Y-92989869D01*
X141592402Y-93069058D01*
X141420348Y-93184020D01*
X141274020Y-93330348D01*
X141159058Y-93502402D01*
X141079869Y-93693581D01*
X141039500Y-93896532D01*
X141039500Y-94103467D01*
X141079869Y-94306418D01*
X141159058Y-94497597D01*
X141216590Y-94583700D01*
X141274023Y-94669655D01*
X141420345Y-94815977D01*
X141592402Y-94930941D01*
X141783580Y-95010130D01*
X141986535Y-95050500D01*
X141986536Y-95050500D01*
X142193464Y-95050500D01*
X142193465Y-95050500D01*
X142396420Y-95010130D01*
X142587598Y-94930941D01*
X142759655Y-94815977D01*
X142905977Y-94669655D01*
X143020941Y-94497598D01*
X143077268Y-94361614D01*
X143117005Y-94315088D01*
X143168732Y-94300500D01*
X148572977Y-94300500D01*
X148631168Y-94319407D01*
X148667132Y-94368907D01*
X148667132Y-94430093D01*
X148642981Y-94469504D01*
X146901981Y-96210504D01*
X146847464Y-96238281D01*
X146831977Y-96239500D01*
X143168732Y-96239500D01*
X143110541Y-96220593D01*
X143077268Y-96178386D01*
X143020941Y-96042402D01*
X142905979Y-95870348D01*
X142905977Y-95870345D01*
X142759655Y-95724023D01*
X142759651Y-95724020D01*
X142587597Y-95609058D01*
X142396418Y-95529869D01*
X142193467Y-95489500D01*
X142193465Y-95489500D01*
X141986535Y-95489500D01*
X141986532Y-95489500D01*
X141783581Y-95529869D01*
X141592402Y-95609058D01*
X141420348Y-95724020D01*
X141274020Y-95870348D01*
X141159058Y-96042402D01*
X141079869Y-96233581D01*
X141039500Y-96436532D01*
X141039500Y-96643467D01*
X141079869Y-96846418D01*
X141159058Y-97037597D01*
X141274020Y-97209651D01*
X141274023Y-97209655D01*
X141420345Y-97355977D01*
X141592402Y-97470941D01*
X141783580Y-97550130D01*
X141986535Y-97590500D01*
X141986536Y-97590500D01*
X142193464Y-97590500D01*
X142193465Y-97590500D01*
X142396420Y-97550130D01*
X142587598Y-97470941D01*
X142759655Y-97355977D01*
X142905977Y-97209655D01*
X143020941Y-97037598D01*
X143068466Y-96922864D01*
X143077268Y-96901614D01*
X143117005Y-96855088D01*
X143168732Y-96840500D01*
X146740085Y-96840500D01*
X146798276Y-96859407D01*
X146834240Y-96908907D01*
X146834240Y-96970093D01*
X146810089Y-97009504D01*
X145069089Y-98750504D01*
X145014572Y-98778281D01*
X144999085Y-98779500D01*
X143168732Y-98779500D01*
X143110541Y-98760593D01*
X143077268Y-98718386D01*
X143020941Y-98582402D01*
X142905979Y-98410348D01*
X142905977Y-98410345D01*
X142759655Y-98264023D01*
X142759651Y-98264020D01*
X142587597Y-98149058D01*
X142396418Y-98069869D01*
X142193467Y-98029500D01*
X142193465Y-98029500D01*
X141986535Y-98029500D01*
X141986532Y-98029500D01*
X141783581Y-98069869D01*
X141592402Y-98149058D01*
X141420348Y-98264020D01*
X141274020Y-98410348D01*
X141159058Y-98582402D01*
X141079869Y-98773581D01*
X141039500Y-98976532D01*
X141039500Y-99183467D01*
X141079869Y-99386418D01*
X141159058Y-99577597D01*
X141268587Y-99741520D01*
X141274023Y-99749655D01*
X141420345Y-99895977D01*
X141592402Y-100010941D01*
X141783580Y-100090130D01*
X141986535Y-100130500D01*
X141986536Y-100130500D01*
X142193464Y-100130500D01*
X142193465Y-100130500D01*
X142396420Y-100090130D01*
X142587598Y-100010941D01*
X142759655Y-99895977D01*
X142905977Y-99749655D01*
X143020941Y-99577598D01*
X143075926Y-99444853D01*
X143077268Y-99441614D01*
X143117005Y-99395088D01*
X143168732Y-99380500D01*
X144907191Y-99380500D01*
X144965382Y-99399407D01*
X145001346Y-99448907D01*
X145001346Y-99510093D01*
X144977195Y-99549504D01*
X143237991Y-101288707D01*
X143183474Y-101316484D01*
X143123042Y-101306913D01*
X143079777Y-101263648D01*
X143076523Y-101256589D01*
X143020941Y-101122402D01*
X142905979Y-100950348D01*
X142905977Y-100950345D01*
X142759655Y-100804023D01*
X142759651Y-100804020D01*
X142587597Y-100689058D01*
X142396418Y-100609869D01*
X142193467Y-100569500D01*
X142193465Y-100569500D01*
X141986535Y-100569500D01*
X141986532Y-100569500D01*
X141783581Y-100609869D01*
X141592402Y-100689058D01*
X141420348Y-100804020D01*
X141274020Y-100950348D01*
X141159058Y-101122402D01*
X141079869Y-101313581D01*
X141039500Y-101516532D01*
X141039500Y-101723467D01*
X141079869Y-101926418D01*
X141159058Y-102117597D01*
X141274020Y-102289651D01*
X141274023Y-102289655D01*
X141420345Y-102435977D01*
X141592402Y-102550941D01*
X141783580Y-102630130D01*
X141986535Y-102670500D01*
X141986536Y-102670500D01*
X142193464Y-102670500D01*
X142193465Y-102670500D01*
X142335049Y-102642337D01*
X142395808Y-102649529D01*
X142440738Y-102691061D01*
X142452675Y-102751071D01*
X142427059Y-102806636D01*
X142424365Y-102809438D01*
X142153301Y-103080503D01*
X142098784Y-103108281D01*
X142083297Y-103109500D01*
X141986532Y-103109500D01*
X141783581Y-103149869D01*
X141592402Y-103229058D01*
X141420348Y-103344020D01*
X141274020Y-103490348D01*
X141159058Y-103662402D01*
X141079869Y-103853581D01*
X141039500Y-104056532D01*
X141039500Y-104263467D01*
X141079869Y-104466418D01*
X141159058Y-104657597D01*
X141274020Y-104829651D01*
X141274023Y-104829655D01*
X141420345Y-104975977D01*
X141592402Y-105090941D01*
X141783580Y-105170130D01*
X141986535Y-105210500D01*
X141986536Y-105210500D01*
X142193464Y-105210500D01*
X142193465Y-105210500D01*
X142396420Y-105170130D01*
X142587598Y-105090941D01*
X142759655Y-104975977D01*
X142905977Y-104829655D01*
X143020941Y-104657598D01*
X143100130Y-104466420D01*
X143140500Y-104263465D01*
X143140500Y-104056535D01*
X143100130Y-103853580D01*
X143020941Y-103662402D01*
X142905977Y-103490345D01*
X142819690Y-103404058D01*
X142791915Y-103349544D01*
X142801486Y-103289112D01*
X142819689Y-103264056D01*
X153055498Y-93028248D01*
X153110013Y-93000473D01*
X153170445Y-93010044D01*
X153213710Y-93053309D01*
X153224500Y-93098254D01*
X153224500Y-99730521D01*
X153205593Y-99788712D01*
X153156093Y-99824676D01*
X153094907Y-99824676D01*
X153055496Y-99800525D01*
X153044495Y-99789524D01*
X153016718Y-99735007D01*
X153015499Y-99719532D01*
X153015499Y-99278482D01*
X153000646Y-99184696D01*
X152943050Y-99071658D01*
X152853342Y-98981950D01*
X152740304Y-98924354D01*
X152740305Y-98924354D01*
X152646522Y-98909500D01*
X152033479Y-98909500D01*
X152033476Y-98909501D01*
X151939700Y-98924352D01*
X151939695Y-98924354D01*
X151826659Y-98981949D01*
X151736949Y-99071659D01*
X151679354Y-99184695D01*
X151664500Y-99278477D01*
X151664500Y-99741520D01*
X151664501Y-99741523D01*
X151679352Y-99835299D01*
X151679354Y-99835304D01*
X151736950Y-99948342D01*
X151826658Y-100038050D01*
X151939696Y-100095646D01*
X152033481Y-100110500D01*
X152474520Y-100110499D01*
X152532711Y-100129406D01*
X152544524Y-100139495D01*
X152670504Y-100265475D01*
X152698281Y-100319992D01*
X152699500Y-100335479D01*
X152699500Y-100785500D01*
X152680593Y-100843691D01*
X152631093Y-100879655D01*
X152600500Y-100884500D01*
X152397870Y-100884500D01*
X152397862Y-100884501D01*
X152317505Y-100900484D01*
X152317504Y-100900485D01*
X152278766Y-100926369D01*
X152219878Y-100942977D01*
X152191488Y-100937643D01*
X152185734Y-100935658D01*
X152101393Y-100894427D01*
X152040421Y-100885543D01*
X152031620Y-100882508D01*
X152014261Y-100869414D01*
X151994766Y-100859783D01*
X151993893Y-100858922D01*
X151359518Y-100224547D01*
X150724511Y-99589540D01*
X150703827Y-99577598D01*
X150655992Y-99549980D01*
X150655988Y-99549978D01*
X150579564Y-99529500D01*
X150579562Y-99529500D01*
X150416640Y-99529500D01*
X150358449Y-99510593D01*
X150346642Y-99500509D01*
X150335422Y-99489289D01*
X150234786Y-99444854D01*
X150234785Y-99444853D01*
X150234783Y-99444853D01*
X150210188Y-99442000D01*
X149909819Y-99442000D01*
X149909816Y-99442001D01*
X149885214Y-99444854D01*
X149784578Y-99489289D01*
X149784577Y-99489289D01*
X149776186Y-99492995D01*
X149774733Y-99489705D01*
X149732220Y-99502211D01*
X149695074Y-99490141D01*
X149693814Y-99492995D01*
X149685423Y-99489290D01*
X149685422Y-99489289D01*
X149584786Y-99444854D01*
X149584785Y-99444853D01*
X149584783Y-99444853D01*
X149560188Y-99442000D01*
X149259819Y-99442000D01*
X149259816Y-99442001D01*
X149235214Y-99444854D01*
X149134578Y-99489289D01*
X149134577Y-99489289D01*
X149126186Y-99492995D01*
X149124733Y-99489705D01*
X149082220Y-99502211D01*
X149045074Y-99490141D01*
X149043814Y-99492995D01*
X149035423Y-99489290D01*
X149035422Y-99489289D01*
X148934786Y-99444854D01*
X148934785Y-99444853D01*
X148934783Y-99444853D01*
X148910188Y-99442000D01*
X148609819Y-99442000D01*
X148609816Y-99442001D01*
X148585214Y-99444854D01*
X148484578Y-99489289D01*
X148406789Y-99567078D01*
X148362353Y-99667716D01*
X148359500Y-99692308D01*
X148359500Y-99967680D01*
X148359500Y-99967682D01*
X148359501Y-99967684D01*
X148362354Y-99992286D01*
X148406789Y-100092922D01*
X148484578Y-100170711D01*
X148585214Y-100215146D01*
X148609815Y-100218000D01*
X148910184Y-100217999D01*
X148934786Y-100215146D01*
X149035422Y-100170711D01*
X149035423Y-100170709D01*
X149043814Y-100167005D01*
X149045268Y-100170299D01*
X149087724Y-100157786D01*
X149124920Y-100169871D01*
X149126186Y-100167005D01*
X149134576Y-100170709D01*
X149134578Y-100170711D01*
X149235214Y-100215146D01*
X149259815Y-100218000D01*
X149560184Y-100217999D01*
X149584786Y-100215146D01*
X149685422Y-100170711D01*
X149685423Y-100170709D01*
X149693814Y-100167005D01*
X149695268Y-100170299D01*
X149737724Y-100157786D01*
X149774920Y-100169871D01*
X149776186Y-100167005D01*
X149784576Y-100170709D01*
X149784578Y-100170711D01*
X149885214Y-100215146D01*
X149909815Y-100218000D01*
X150210184Y-100217999D01*
X150234786Y-100215146D01*
X150335422Y-100170711D01*
X150335426Y-100170706D01*
X150338998Y-100168260D01*
X150397689Y-100150969D01*
X150455335Y-100171478D01*
X150464956Y-100179927D01*
X151331833Y-101046804D01*
X151359610Y-101101321D01*
X151359795Y-101131081D01*
X151349500Y-101201742D01*
X151349500Y-102066046D01*
X151330593Y-102124237D01*
X151281093Y-102160201D01*
X151276123Y-102161673D01*
X151137860Y-102198720D01*
X151006639Y-102274481D01*
X150899481Y-102381639D01*
X150823720Y-102512861D01*
X150821237Y-102518857D01*
X150819108Y-102517975D01*
X150791302Y-102560793D01*
X150734180Y-102582719D01*
X150675080Y-102566883D01*
X150636575Y-102519332D01*
X150630000Y-102483855D01*
X150630000Y-102335001D01*
X150629999Y-102335000D01*
X150230000Y-102335000D01*
X150230000Y-102135000D01*
X150629999Y-102135000D01*
X150630000Y-102134999D01*
X150630000Y-101616057D01*
X150629999Y-101616055D01*
X150603098Y-101480816D01*
X150550333Y-101353428D01*
X150473728Y-101238779D01*
X150376220Y-101141271D01*
X150261571Y-101064666D01*
X150134182Y-101011901D01*
X150030000Y-100991177D01*
X150030000Y-101401211D01*
X149969496Y-101385000D01*
X149890504Y-101385000D01*
X149830000Y-101401211D01*
X149830000Y-100991177D01*
X149725817Y-101011901D01*
X149598428Y-101064666D01*
X149483779Y-101141271D01*
X149386271Y-101238779D01*
X149309666Y-101353428D01*
X149256901Y-101480816D01*
X149230000Y-101616055D01*
X149230000Y-102134999D01*
X149230001Y-102135000D01*
X149630000Y-102135000D01*
X149630000Y-102335000D01*
X149230001Y-102335000D01*
X149230000Y-102335001D01*
X149230000Y-102853944D01*
X149256901Y-102989183D01*
X149309666Y-103116571D01*
X149386271Y-103231220D01*
X149483779Y-103328728D01*
X149598428Y-103405333D01*
X149725817Y-103458098D01*
X149830000Y-103478822D01*
X149830000Y-103068788D01*
X149890504Y-103085000D01*
X149969496Y-103085000D01*
X150030000Y-103068788D01*
X150030000Y-103478821D01*
X150134181Y-103458098D01*
X150134183Y-103458098D01*
X150261571Y-103405333D01*
X150376220Y-103328728D01*
X150473728Y-103231220D01*
X150550333Y-103116571D01*
X150603098Y-102989183D01*
X150603098Y-102989181D01*
X150617922Y-102914659D01*
X150647818Y-102861275D01*
X150703383Y-102835659D01*
X150763393Y-102847596D01*
X150804926Y-102892525D01*
X150810646Y-102908349D01*
X150823718Y-102957134D01*
X150823720Y-102957138D01*
X150899481Y-103088360D01*
X150899483Y-103088362D01*
X150899485Y-103088365D01*
X151006635Y-103195515D01*
X151006637Y-103195516D01*
X151006639Y-103195518D01*
X151137861Y-103271279D01*
X151137859Y-103271279D01*
X151137863Y-103271280D01*
X151137865Y-103271281D01*
X151284234Y-103310500D01*
X151284236Y-103310500D01*
X151435764Y-103310500D01*
X151435766Y-103310500D01*
X151582135Y-103271281D01*
X151582137Y-103271279D01*
X151582139Y-103271279D01*
X151713360Y-103195518D01*
X151713360Y-103195517D01*
X151713365Y-103195515D01*
X151820515Y-103088365D01*
X151896281Y-102957135D01*
X151904918Y-102924898D01*
X151938239Y-102873586D01*
X151995360Y-102851658D01*
X152054461Y-102867492D01*
X152070548Y-102880518D01*
X152309541Y-103119511D01*
X152309540Y-103119511D01*
X152365490Y-103175460D01*
X152434008Y-103215019D01*
X152434012Y-103215021D01*
X152510436Y-103235499D01*
X152510438Y-103235500D01*
X152510439Y-103235500D01*
X155989562Y-103235500D01*
X155989562Y-103235499D01*
X156065988Y-103215021D01*
X156134510Y-103175460D01*
X156162484Y-103147485D01*
X156190460Y-103119511D01*
X156429451Y-102880519D01*
X156483968Y-102852741D01*
X156544400Y-102862312D01*
X156587665Y-102905577D01*
X156595080Y-102924894D01*
X156602653Y-102953160D01*
X156603720Y-102957139D01*
X156679481Y-103088360D01*
X156679483Y-103088362D01*
X156679485Y-103088365D01*
X156786635Y-103195515D01*
X156786637Y-103195516D01*
X156786639Y-103195518D01*
X156917861Y-103271279D01*
X156917859Y-103271279D01*
X156917863Y-103271280D01*
X156917865Y-103271281D01*
X157064234Y-103310500D01*
X157064236Y-103310500D01*
X157215764Y-103310500D01*
X157215766Y-103310500D01*
X157362135Y-103271281D01*
X157362137Y-103271279D01*
X157362139Y-103271279D01*
X157493360Y-103195518D01*
X157493360Y-103195517D01*
X157493365Y-103195515D01*
X157600515Y-103088365D01*
X157676281Y-102957135D01*
X157689352Y-102908349D01*
X157722676Y-102857036D01*
X157779797Y-102835109D01*
X157838898Y-102850944D01*
X157877403Y-102898494D01*
X157882077Y-102914658D01*
X157896901Y-102989183D01*
X157949666Y-103116571D01*
X158026271Y-103231220D01*
X158123779Y-103328728D01*
X158238428Y-103405333D01*
X158365817Y-103458098D01*
X158470000Y-103478822D01*
X158470000Y-103068788D01*
X158530504Y-103085000D01*
X158609496Y-103085000D01*
X158670000Y-103068788D01*
X158670000Y-103478821D01*
X158774181Y-103458098D01*
X158774183Y-103458098D01*
X158901571Y-103405333D01*
X159016220Y-103328728D01*
X159113728Y-103231220D01*
X159190333Y-103116571D01*
X159243098Y-102989183D01*
X159269999Y-102853944D01*
X159270000Y-102853942D01*
X159270000Y-102335001D01*
X159269999Y-102335000D01*
X158870000Y-102335000D01*
X158870000Y-102135000D01*
X159269999Y-102135000D01*
X159270000Y-102134999D01*
X159270000Y-101616057D01*
X159269999Y-101616055D01*
X159243098Y-101480816D01*
X159190333Y-101353428D01*
X159113728Y-101238779D01*
X159016220Y-101141271D01*
X158901571Y-101064666D01*
X158774182Y-101011901D01*
X158670000Y-100991177D01*
X158670000Y-101401211D01*
X158609496Y-101385000D01*
X158530504Y-101385000D01*
X158470000Y-101401211D01*
X158470000Y-100991177D01*
X158365817Y-101011901D01*
X158238428Y-101064666D01*
X158123779Y-101141271D01*
X158026271Y-101238779D01*
X157949666Y-101353428D01*
X157896901Y-101480816D01*
X157870000Y-101616055D01*
X157870000Y-102134999D01*
X157870001Y-102135000D01*
X158270000Y-102135000D01*
X158270000Y-102335000D01*
X157870001Y-102335000D01*
X157870000Y-102335001D01*
X157870000Y-102483855D01*
X157851093Y-102542046D01*
X157801593Y-102578010D01*
X157740407Y-102578010D01*
X157690907Y-102542046D01*
X157679668Y-102518482D01*
X157678763Y-102518857D01*
X157676279Y-102512861D01*
X157600518Y-102381639D01*
X157600516Y-102381637D01*
X157600515Y-102381635D01*
X157493365Y-102274485D01*
X157493362Y-102274483D01*
X157493360Y-102274481D01*
X157362138Y-102198720D01*
X157362139Y-102198720D01*
X157223877Y-102161673D01*
X157172562Y-102128349D01*
X157150636Y-102071227D01*
X157150500Y-102066046D01*
X157150500Y-101201743D01*
X157147708Y-101182579D01*
X157140573Y-101133607D01*
X157139338Y-101131081D01*
X157089198Y-101028518D01*
X157089198Y-101028517D01*
X157006483Y-100945802D01*
X157006017Y-100945574D01*
X157005603Y-100945173D01*
X156999808Y-100941036D01*
X157000428Y-100940167D01*
X156962045Y-100903031D01*
X156950500Y-100856635D01*
X156950500Y-100805479D01*
X156969407Y-100747288D01*
X156979496Y-100735475D01*
X158445475Y-99269496D01*
X158499992Y-99241719D01*
X158515479Y-99240500D01*
X161170500Y-99240500D01*
X161228691Y-99259407D01*
X161264655Y-99308907D01*
X161269500Y-99339500D01*
X161269500Y-99469274D01*
X161272353Y-99499694D01*
X161272355Y-99499703D01*
X161317207Y-99627883D01*
X161397845Y-99737144D01*
X161397847Y-99737146D01*
X161397850Y-99737150D01*
X161397853Y-99737152D01*
X161397855Y-99737154D01*
X161507116Y-99817792D01*
X161507117Y-99817792D01*
X161507118Y-99817793D01*
X161526789Y-99824676D01*
X161603198Y-99851413D01*
X161651878Y-99888478D01*
X161669500Y-99944857D01*
X161669500Y-99960500D01*
X161650593Y-100018691D01*
X161601093Y-100054655D01*
X161570500Y-100059500D01*
X161557279Y-100059500D01*
X161444767Y-100074312D01*
X161444761Y-100074314D01*
X161304768Y-100132301D01*
X161184551Y-100224547D01*
X161184547Y-100224551D01*
X161092301Y-100344768D01*
X161034314Y-100484761D01*
X161034312Y-100484767D01*
X161019500Y-100597279D01*
X161019500Y-101922720D01*
X161034312Y-102035232D01*
X161034314Y-102035238D01*
X161086075Y-102160201D01*
X161092302Y-102175233D01*
X161184549Y-102295451D01*
X161304767Y-102387698D01*
X161444764Y-102445687D01*
X161557280Y-102460500D01*
X161557281Y-102460500D01*
X162382719Y-102460500D01*
X162382720Y-102460500D01*
X162495236Y-102445687D01*
X162635233Y-102387698D01*
X162755451Y-102295451D01*
X162847698Y-102175233D01*
X162905687Y-102035236D01*
X162920500Y-101922720D01*
X162920500Y-100597280D01*
X162905687Y-100484764D01*
X162847698Y-100344767D01*
X162755451Y-100224549D01*
X162635233Y-100132302D01*
X162630880Y-100130499D01*
X162565234Y-100103307D01*
X162495236Y-100074313D01*
X162495234Y-100074312D01*
X162495232Y-100074312D01*
X162382720Y-100059500D01*
X162369500Y-100059500D01*
X162311309Y-100040593D01*
X162275345Y-99991093D01*
X162270500Y-99960500D01*
X162270500Y-99944857D01*
X162289407Y-99886666D01*
X162336802Y-99851413D01*
X162382838Y-99835304D01*
X162432882Y-99817793D01*
X162542150Y-99737150D01*
X162622793Y-99627882D01*
X162667646Y-99499699D01*
X162670499Y-99469273D01*
X162670500Y-99469273D01*
X162670500Y-98410727D01*
X162670499Y-98410725D01*
X162670464Y-98410348D01*
X162667646Y-98380301D01*
X162622793Y-98252118D01*
X162571591Y-98182742D01*
X162542154Y-98142855D01*
X162542152Y-98142853D01*
X162542150Y-98142850D01*
X162542146Y-98142847D01*
X162542144Y-98142845D01*
X162432883Y-98062207D01*
X162304703Y-98017355D01*
X162304694Y-98017353D01*
X162274274Y-98014500D01*
X162274266Y-98014500D01*
X161665734Y-98014500D01*
X161665725Y-98014500D01*
X161635305Y-98017353D01*
X161635296Y-98017355D01*
X161507116Y-98062207D01*
X161397855Y-98142845D01*
X161397845Y-98142855D01*
X161317207Y-98252116D01*
X161272355Y-98380296D01*
X161272353Y-98380305D01*
X161269500Y-98410725D01*
X161269500Y-98540500D01*
X161250593Y-98598691D01*
X161201093Y-98634655D01*
X161170500Y-98639500D01*
X158310435Y-98639500D01*
X158234012Y-98659978D01*
X158188963Y-98685986D01*
X158188962Y-98685988D01*
X158188959Y-98685990D01*
X158165489Y-98699540D01*
X156469504Y-100395525D01*
X156414987Y-100423302D01*
X156354555Y-100413731D01*
X156311290Y-100370466D01*
X156300500Y-100325521D01*
X156300500Y-99970437D01*
X156300499Y-99970435D01*
X156280021Y-99894011D01*
X156280019Y-99894007D01*
X156240460Y-99825489D01*
X156184511Y-99769539D01*
X156184511Y-99769540D01*
X156174495Y-99759524D01*
X156146718Y-99705007D01*
X156145499Y-99689532D01*
X156145499Y-99248482D01*
X156135397Y-99184695D01*
X156130647Y-99154700D01*
X156130646Y-99154698D01*
X156130646Y-99154696D01*
X156073050Y-99041658D01*
X155983342Y-98951950D01*
X155870304Y-98894354D01*
X155870305Y-98894354D01*
X155776522Y-98879500D01*
X155163479Y-98879500D01*
X155163476Y-98879501D01*
X155069700Y-98894352D01*
X155069695Y-98894354D01*
X154956659Y-98951949D01*
X154866949Y-99041659D01*
X154809354Y-99154695D01*
X154794500Y-99248477D01*
X154794500Y-99711520D01*
X154794501Y-99711523D01*
X154809352Y-99805299D01*
X154809354Y-99805304D01*
X154866950Y-99918342D01*
X154956658Y-100008050D01*
X155069696Y-100065646D01*
X155163481Y-100080500D01*
X155600500Y-100080499D01*
X155658691Y-100099406D01*
X155694655Y-100148906D01*
X155699500Y-100179499D01*
X155699500Y-100785500D01*
X155680593Y-100843691D01*
X155631093Y-100879655D01*
X155600500Y-100884500D01*
X155397870Y-100884500D01*
X155397858Y-100884502D01*
X155332168Y-100897567D01*
X155271407Y-100890374D01*
X155242853Y-100870472D01*
X155184512Y-100812130D01*
X154916920Y-100544539D01*
X154848402Y-100504980D01*
X154848398Y-100504978D01*
X154771974Y-100484500D01*
X154771972Y-100484500D01*
X154374500Y-100484500D01*
X154316309Y-100465593D01*
X154280345Y-100416093D01*
X154275500Y-100385500D01*
X154275500Y-93702321D01*
X154294407Y-93644130D01*
X154343907Y-93608166D01*
X154405093Y-93608166D01*
X154444501Y-93632315D01*
X154482686Y-93670500D01*
X154482688Y-93670501D01*
X154482690Y-93670503D01*
X154596810Y-93736390D01*
X154596808Y-93736390D01*
X154596812Y-93736391D01*
X154596814Y-93736392D01*
X154724108Y-93770500D01*
X154724110Y-93770500D01*
X154855890Y-93770500D01*
X154855892Y-93770500D01*
X154983186Y-93736392D01*
X154983188Y-93736390D01*
X154983190Y-93736390D01*
X155097309Y-93670503D01*
X155097309Y-93670502D01*
X155097314Y-93670500D01*
X155190500Y-93577314D01*
X155199007Y-93562579D01*
X155256390Y-93463190D01*
X155256390Y-93463188D01*
X155256392Y-93463186D01*
X155290500Y-93335892D01*
X155290500Y-93204108D01*
X155271744Y-93134108D01*
X155499500Y-93134108D01*
X155499500Y-93265892D01*
X155516770Y-93330345D01*
X155533609Y-93393190D01*
X155599496Y-93507309D01*
X155599498Y-93507311D01*
X155599500Y-93507314D01*
X155692686Y-93600500D01*
X155692688Y-93600501D01*
X155692690Y-93600503D01*
X155806810Y-93666390D01*
X155806808Y-93666390D01*
X155806812Y-93666391D01*
X155806814Y-93666392D01*
X155934108Y-93700500D01*
X155934110Y-93700500D01*
X156065890Y-93700500D01*
X156065892Y-93700500D01*
X156193186Y-93666392D01*
X156193188Y-93666390D01*
X156193190Y-93666390D01*
X156307309Y-93600503D01*
X156307309Y-93600502D01*
X156307314Y-93600500D01*
X156400500Y-93507314D01*
X156425975Y-93463190D01*
X156466390Y-93393190D01*
X156466390Y-93393188D01*
X156466392Y-93393186D01*
X156500500Y-93265892D01*
X156500500Y-93159788D01*
X156519407Y-93101597D01*
X156529496Y-93089785D01*
X156618027Y-93001253D01*
X156668718Y-92974158D01*
X156699313Y-92968073D01*
X156767440Y-92922552D01*
X157795760Y-91894230D01*
X157841283Y-91826103D01*
X157862665Y-91718608D01*
X157841283Y-91611114D01*
X157795762Y-91542986D01*
X157651324Y-91398550D01*
X157651323Y-91398549D01*
X157651324Y-91398549D01*
X157583196Y-91353027D01*
X157583197Y-91353027D01*
X157503568Y-91337188D01*
X157475702Y-91331645D01*
X157475701Y-91331645D01*
X157368206Y-91353026D01*
X157300080Y-91398548D01*
X157300071Y-91398555D01*
X156271759Y-92426870D01*
X156226237Y-92494996D01*
X156226236Y-92494998D01*
X156220150Y-92525593D01*
X156193057Y-92576279D01*
X156098834Y-92670503D01*
X156044318Y-92698281D01*
X156028830Y-92699500D01*
X155934108Y-92699500D01*
X155866449Y-92717629D01*
X155806809Y-92733609D01*
X155692690Y-92799496D01*
X155599496Y-92892690D01*
X155533609Y-93006809D01*
X155527864Y-93028250D01*
X155499500Y-93134108D01*
X155271744Y-93134108D01*
X155256392Y-93076814D01*
X155247473Y-93061366D01*
X155234751Y-93001521D01*
X155259635Y-92945625D01*
X155263186Y-92941881D01*
X155910923Y-92294144D01*
X155961612Y-92267052D01*
X155992207Y-92260967D01*
X156060334Y-92215446D01*
X157088654Y-91187124D01*
X157134177Y-91118997D01*
X157155559Y-91011502D01*
X157134177Y-90904008D01*
X157088656Y-90835880D01*
X156944218Y-90691444D01*
X156944217Y-90691443D01*
X156944218Y-90691443D01*
X156876090Y-90645921D01*
X156876087Y-90645920D01*
X156861338Y-90642986D01*
X156807954Y-90613088D01*
X156783557Y-90565205D01*
X156780623Y-90550454D01*
X156735102Y-90482326D01*
X156590664Y-90337890D01*
X156590663Y-90337889D01*
X156590664Y-90337889D01*
X156522536Y-90292367D01*
X156522534Y-90292366D01*
X156507784Y-90289432D01*
X156454401Y-90259534D01*
X156430003Y-90211647D01*
X156427070Y-90196902D01*
X156427069Y-90196899D01*
X156381554Y-90128780D01*
X156381552Y-90128777D01*
X156381549Y-90128773D01*
X156237111Y-89984337D01*
X156237110Y-89984336D01*
X156237111Y-89984336D01*
X156168983Y-89938814D01*
X156168980Y-89938813D01*
X156154231Y-89935879D01*
X156100847Y-89905981D01*
X156076450Y-89858098D01*
X156073516Y-89843347D01*
X156027995Y-89775219D01*
X155883557Y-89630783D01*
X155883556Y-89630782D01*
X155883557Y-89630782D01*
X155815429Y-89585260D01*
X155815427Y-89585259D01*
X155800677Y-89582325D01*
X155747294Y-89552427D01*
X155722896Y-89504540D01*
X155719963Y-89489795D01*
X155719962Y-89489792D01*
X155674447Y-89421673D01*
X155674445Y-89421670D01*
X155674442Y-89421666D01*
X155530004Y-89277230D01*
X155530003Y-89277229D01*
X155530004Y-89277229D01*
X155461876Y-89231707D01*
X155461874Y-89231706D01*
X155447124Y-89228772D01*
X155393741Y-89198874D01*
X155369343Y-89150987D01*
X155366429Y-89136337D01*
X155366410Y-89136241D01*
X155359617Y-89126075D01*
X155320894Y-89068120D01*
X155320892Y-89068117D01*
X155320889Y-89068113D01*
X155176451Y-88923677D01*
X155176450Y-88923676D01*
X155176451Y-88923676D01*
X155108323Y-88878154D01*
X155108320Y-88878153D01*
X155093571Y-88875219D01*
X155040187Y-88845321D01*
X155015790Y-88797438D01*
X155012856Y-88782687D01*
X154967335Y-88714559D01*
X154822897Y-88570123D01*
X154822896Y-88570122D01*
X154822897Y-88570122D01*
X154754769Y-88524600D01*
X154754767Y-88524599D01*
X154740017Y-88521665D01*
X154686634Y-88491767D01*
X154662236Y-88443880D01*
X154660010Y-88432690D01*
X154659303Y-88429134D01*
X154644106Y-88406390D01*
X154613787Y-88361013D01*
X154613785Y-88361010D01*
X154613782Y-88361006D01*
X154469344Y-88216570D01*
X154469343Y-88216569D01*
X154469344Y-88216569D01*
X154401216Y-88171047D01*
X154401214Y-88171046D01*
X154386464Y-88168112D01*
X154333081Y-88138214D01*
X154308683Y-88090327D01*
X154305750Y-88075582D01*
X154305749Y-88075579D01*
X154260234Y-88007460D01*
X154260232Y-88007457D01*
X154260229Y-88007453D01*
X154115791Y-87863017D01*
X154115790Y-87863016D01*
X154115791Y-87863016D01*
X154047663Y-87817494D01*
X154047660Y-87817493D01*
X154032911Y-87814559D01*
X153979527Y-87784661D01*
X153955130Y-87736778D01*
X153952196Y-87722027D01*
X153906675Y-87653899D01*
X153762237Y-87509463D01*
X153762236Y-87509462D01*
X153762237Y-87509462D01*
X153694109Y-87463940D01*
X153694107Y-87463939D01*
X153679357Y-87461005D01*
X153625974Y-87431107D01*
X153601576Y-87383220D01*
X153598643Y-87368475D01*
X153598642Y-87368472D01*
X153553127Y-87300353D01*
X153553125Y-87300350D01*
X153553122Y-87300346D01*
X153408684Y-87155910D01*
X153408683Y-87155909D01*
X153408684Y-87155909D01*
X153340556Y-87110387D01*
X153340553Y-87110386D01*
X153325804Y-87107452D01*
X153272420Y-87077554D01*
X153248023Y-87029671D01*
X153245089Y-87014920D01*
X153199568Y-86946792D01*
X153055130Y-86802356D01*
X153055129Y-86802355D01*
X153055130Y-86802355D01*
X152987002Y-86756833D01*
X152987000Y-86756832D01*
X152972250Y-86753898D01*
X152918867Y-86724000D01*
X152894469Y-86676113D01*
X152891536Y-86661368D01*
X152891535Y-86661365D01*
X152846020Y-86593246D01*
X152846018Y-86593243D01*
X152846015Y-86593239D01*
X152701577Y-86448803D01*
X152701576Y-86448802D01*
X152701577Y-86448802D01*
X152633449Y-86403280D01*
X152633447Y-86403279D01*
X152618697Y-86400345D01*
X152565314Y-86370447D01*
X152540916Y-86322560D01*
X152537983Y-86307815D01*
X152537982Y-86307812D01*
X152492467Y-86239693D01*
X152492465Y-86239690D01*
X152492462Y-86239686D01*
X152348024Y-86095250D01*
X152348023Y-86095249D01*
X152348024Y-86095249D01*
X152279896Y-86049727D01*
X152279897Y-86049727D01*
X152226149Y-86039036D01*
X152172402Y-86028345D01*
X152172401Y-86028345D01*
X152064906Y-86049726D01*
X151996780Y-86095248D01*
X151996771Y-86095255D01*
X150968459Y-87123570D01*
X150922937Y-87191696D01*
X150922936Y-87191699D01*
X150916850Y-87222294D01*
X150889759Y-87272978D01*
X150872235Y-87290503D01*
X150817722Y-87318281D01*
X150802232Y-87319500D01*
X150595479Y-87319500D01*
X150537288Y-87300593D01*
X150525475Y-87290504D01*
X142855304Y-79620333D01*
X142827527Y-79565816D01*
X142837098Y-79505384D01*
X142855301Y-79480329D01*
X142905977Y-79429655D01*
X143020941Y-79257598D01*
X143100130Y-79066420D01*
X143140500Y-78863465D01*
X143140500Y-78674479D01*
X143159407Y-78616288D01*
X143208907Y-78580324D01*
X143270093Y-78580324D01*
X143309504Y-78604475D01*
X149948905Y-85243876D01*
X149948904Y-85243876D01*
X150004854Y-85299825D01*
X150073372Y-85339384D01*
X150073376Y-85339386D01*
X150149800Y-85359864D01*
X150149802Y-85359865D01*
X150149803Y-85359865D01*
X152530198Y-85359865D01*
X152530198Y-85359864D01*
X152606624Y-85339386D01*
X152675146Y-85299825D01*
X152731095Y-85243876D01*
X153602503Y-84372468D01*
X153604073Y-84369748D01*
X153642064Y-84303946D01*
X153662543Y-84227519D01*
X153662543Y-83605589D01*
X153642064Y-83529162D01*
X153620555Y-83491907D01*
X153609194Y-83461720D01*
X153598643Y-83408674D01*
X153573981Y-83371766D01*
X153553122Y-83340548D01*
X153553117Y-83340543D01*
X153553114Y-83340539D01*
X152524797Y-82312225D01*
X152456673Y-82266705D01*
X152456674Y-82266705D01*
X152349178Y-82245323D01*
X152241684Y-82266705D01*
X152241682Y-82266706D01*
X152232121Y-82268608D01*
X152231508Y-82265527D01*
X152186568Y-82269051D01*
X152134408Y-82237066D01*
X152111010Y-82180532D01*
X152114079Y-82147174D01*
X152130500Y-82085892D01*
X152130500Y-81954108D01*
X152096392Y-81826814D01*
X152096390Y-81826811D01*
X152096390Y-81826809D01*
X152030503Y-81712690D01*
X152030501Y-81712688D01*
X152030500Y-81712686D01*
X151937314Y-81619500D01*
X151937311Y-81619498D01*
X151937309Y-81619496D01*
X151823189Y-81553609D01*
X151823191Y-81553609D01*
X151773799Y-81540375D01*
X151695892Y-81519500D01*
X151564108Y-81519500D01*
X151486200Y-81540375D01*
X151436809Y-81553609D01*
X151322690Y-81619496D01*
X151229496Y-81712690D01*
X151163609Y-81826809D01*
X151155815Y-81855897D01*
X151129500Y-81954108D01*
X151129500Y-82085892D01*
X151156294Y-82185890D01*
X151163609Y-82213190D01*
X151229496Y-82327309D01*
X151229498Y-82327311D01*
X151229500Y-82327314D01*
X151300505Y-82398319D01*
X151328281Y-82452834D01*
X151329500Y-82468321D01*
X151329500Y-82659780D01*
X151349978Y-82736204D01*
X151349979Y-82736205D01*
X151380748Y-82789498D01*
X151380749Y-82789502D01*
X151380750Y-82789502D01*
X151389538Y-82804724D01*
X151389539Y-82804726D01*
X151596863Y-83012051D01*
X151623956Y-83062738D01*
X151630042Y-83093333D01*
X151630043Y-83093336D01*
X151648185Y-83120486D01*
X151675564Y-83161462D01*
X151675567Y-83161465D01*
X151675571Y-83161470D01*
X152559446Y-84045342D01*
X152703886Y-84189782D01*
X152728384Y-84206152D01*
X152742274Y-84215433D01*
X152780152Y-84263484D01*
X152782554Y-84324622D01*
X152757275Y-84367752D01*
X152670430Y-84454597D01*
X152615913Y-84482374D01*
X152555481Y-84472803D01*
X152518111Y-84439595D01*
X152510864Y-84428749D01*
X152492462Y-84401208D01*
X152492457Y-84401203D01*
X152492454Y-84401199D01*
X151464139Y-83372887D01*
X151396013Y-83327365D01*
X151396010Y-83327364D01*
X151365416Y-83321278D01*
X151314728Y-83294185D01*
X150659554Y-82639011D01*
X150631777Y-82584494D01*
X150641348Y-82524062D01*
X150670770Y-82489352D01*
X150715056Y-82456667D01*
X150782150Y-82407150D01*
X150862793Y-82297882D01*
X150907646Y-82169699D01*
X150910499Y-82139273D01*
X150910500Y-82139273D01*
X150910500Y-81080727D01*
X150910499Y-81080725D01*
X150909415Y-81069163D01*
X150907646Y-81050301D01*
X150862793Y-80922118D01*
X150859025Y-80917013D01*
X150782154Y-80812855D01*
X150782152Y-80812853D01*
X150782150Y-80812850D01*
X150782146Y-80812847D01*
X150782144Y-80812845D01*
X150672883Y-80732207D01*
X150544703Y-80687355D01*
X150544699Y-80687354D01*
X150544697Y-80687353D01*
X150539506Y-80686220D01*
X150486690Y-80655331D01*
X150462117Y-80599297D01*
X150475173Y-80539521D01*
X150520871Y-80498835D01*
X150560631Y-80490500D01*
X150689273Y-80490500D01*
X150689273Y-80490499D01*
X150719699Y-80487646D01*
X150847882Y-80442793D01*
X150957150Y-80362150D01*
X151037793Y-80252882D01*
X151082646Y-80124699D01*
X151085499Y-80094273D01*
X151085500Y-80094273D01*
X151085500Y-79485727D01*
X151085499Y-79485725D01*
X151085319Y-79483801D01*
X151082646Y-79455301D01*
X151060944Y-79393283D01*
X151059571Y-79332117D01*
X151084383Y-79290586D01*
X151399852Y-78975117D01*
X151454367Y-78947342D01*
X151514799Y-78956913D01*
X151528641Y-78965467D01*
X151552117Y-78982792D01*
X151552118Y-78982793D01*
X151680301Y-79027646D01*
X151710725Y-79030499D01*
X151710727Y-79030500D01*
X151710734Y-79030500D01*
X152769273Y-79030500D01*
X152769273Y-79030499D01*
X152799699Y-79027646D01*
X152927882Y-78982793D01*
X153037150Y-78902150D01*
X153117793Y-78792882D01*
X153162646Y-78664699D01*
X153165499Y-78634273D01*
X153165500Y-78634273D01*
X153165500Y-78025727D01*
X153165499Y-78025725D01*
X153162646Y-77995301D01*
X153140944Y-77933283D01*
X153139571Y-77872116D01*
X153164384Y-77830585D01*
X153215476Y-77779495D01*
X153269993Y-77751719D01*
X153285478Y-77750500D01*
X153755143Y-77750500D01*
X153813334Y-77769407D01*
X153848587Y-77816802D01*
X153882207Y-77912883D01*
X153962845Y-78022144D01*
X153962847Y-78022146D01*
X153962850Y-78022150D01*
X153962853Y-78022152D01*
X153962855Y-78022154D01*
X154072116Y-78102792D01*
X154072117Y-78102792D01*
X154072118Y-78102793D01*
X154200301Y-78147646D01*
X154230725Y-78150499D01*
X154230727Y-78150500D01*
X154230734Y-78150500D01*
X154472481Y-78150500D01*
X154530672Y-78169407D01*
X154542485Y-78179496D01*
X155354382Y-78991393D01*
X155382159Y-79045910D01*
X155372588Y-79106342D01*
X155354382Y-79131400D01*
X155211099Y-79274684D01*
X155165577Y-79342811D01*
X155165576Y-79342813D01*
X155162642Y-79357564D01*
X155132743Y-79410947D01*
X155084864Y-79435343D01*
X155074947Y-79437315D01*
X155070111Y-79438278D01*
X155070110Y-79438278D01*
X155070108Y-79438279D01*
X155001986Y-79483796D01*
X155001980Y-79483801D01*
X154857546Y-79628237D01*
X154812023Y-79696365D01*
X154812023Y-79696366D01*
X154809089Y-79711116D01*
X154779191Y-79764500D01*
X154731309Y-79788897D01*
X154716558Y-79791831D01*
X154716555Y-79791832D01*
X154648432Y-79837350D01*
X154648426Y-79837355D01*
X154503992Y-79981791D01*
X154458470Y-80049918D01*
X154458469Y-80049920D01*
X154455535Y-80064671D01*
X154425636Y-80118054D01*
X154377757Y-80142450D01*
X154367840Y-80144422D01*
X154363004Y-80145385D01*
X154363003Y-80145385D01*
X154363001Y-80145386D01*
X154294879Y-80190903D01*
X154294873Y-80190908D01*
X154150439Y-80335344D01*
X154104917Y-80403471D01*
X154104916Y-80403473D01*
X154101982Y-80418224D01*
X154072083Y-80471607D01*
X154024204Y-80496003D01*
X154014287Y-80497975D01*
X154009451Y-80498938D01*
X154009450Y-80498938D01*
X154009448Y-80498939D01*
X153941326Y-80544456D01*
X153941320Y-80544461D01*
X153796886Y-80688897D01*
X153751363Y-80757025D01*
X153751363Y-80757026D01*
X153748429Y-80771776D01*
X153718531Y-80825160D01*
X153670649Y-80849557D01*
X153655898Y-80852491D01*
X153655895Y-80852492D01*
X153587772Y-80898010D01*
X153587766Y-80898015D01*
X153443332Y-81042451D01*
X153397810Y-81110578D01*
X153397809Y-81110580D01*
X153394875Y-81125331D01*
X153364976Y-81178714D01*
X153317097Y-81203110D01*
X153307180Y-81205082D01*
X153302344Y-81206045D01*
X153302343Y-81206045D01*
X153302341Y-81206046D01*
X153234219Y-81251563D01*
X153234213Y-81251568D01*
X153089779Y-81396004D01*
X153044257Y-81464131D01*
X153044256Y-81464133D01*
X153041322Y-81478884D01*
X153011423Y-81532267D01*
X152963544Y-81556663D01*
X152953627Y-81558635D01*
X152948791Y-81559598D01*
X152948790Y-81559598D01*
X152948788Y-81559599D01*
X152880666Y-81605116D01*
X152880660Y-81605121D01*
X152736226Y-81749557D01*
X152690704Y-81817683D01*
X152669322Y-81925179D01*
X152690703Y-82032674D01*
X152705026Y-82054109D01*
X152736225Y-82100801D01*
X152736228Y-82100804D01*
X152736232Y-82100809D01*
X153764549Y-83129123D01*
X153809965Y-83159469D01*
X153832671Y-83174642D01*
X153832673Y-83174643D01*
X153832672Y-83174643D01*
X153832674Y-83174644D01*
X153940169Y-83196026D01*
X154047663Y-83174644D01*
X154115791Y-83129123D01*
X154260227Y-82984685D01*
X154305750Y-82916557D01*
X154306175Y-82914419D01*
X154308683Y-82901812D01*
X154338577Y-82848427D01*
X154386470Y-82824024D01*
X154387252Y-82823868D01*
X154401216Y-82821091D01*
X154469344Y-82775570D01*
X154613780Y-82631132D01*
X154659303Y-82563004D01*
X154662236Y-82548259D01*
X154692130Y-82494874D01*
X154740023Y-82470471D01*
X154740805Y-82470315D01*
X154754769Y-82467538D01*
X154822897Y-82422017D01*
X154967333Y-82277579D01*
X155012856Y-82209451D01*
X155015789Y-82194701D01*
X155045685Y-82141318D01*
X155093574Y-82116918D01*
X155101644Y-82115312D01*
X155108323Y-82113984D01*
X155176451Y-82068463D01*
X155320887Y-81924025D01*
X155366410Y-81855897D01*
X155369343Y-81841152D01*
X155399237Y-81787767D01*
X155447130Y-81763364D01*
X155450664Y-81762661D01*
X155461876Y-81760431D01*
X155530004Y-81714910D01*
X155674440Y-81570472D01*
X155719963Y-81502344D01*
X155722896Y-81487599D01*
X155752790Y-81434214D01*
X155800683Y-81409811D01*
X155801465Y-81409655D01*
X155815429Y-81406878D01*
X155883557Y-81361357D01*
X156027993Y-81216919D01*
X156073516Y-81148791D01*
X156076449Y-81134041D01*
X156106345Y-81080658D01*
X156154234Y-81056258D01*
X156162304Y-81054652D01*
X156168983Y-81053324D01*
X156237111Y-81007803D01*
X156381547Y-80863365D01*
X156427070Y-80795237D01*
X156430003Y-80780492D01*
X156459897Y-80727107D01*
X156507790Y-80702704D01*
X156508572Y-80702548D01*
X156522536Y-80699771D01*
X156590664Y-80654250D01*
X156735100Y-80509812D01*
X156780623Y-80441684D01*
X156783556Y-80426934D01*
X156813452Y-80373551D01*
X156861341Y-80349151D01*
X156869411Y-80347545D01*
X156876090Y-80346217D01*
X156944218Y-80300696D01*
X157088654Y-80156258D01*
X157134177Y-80088130D01*
X157155559Y-79980636D01*
X157136996Y-79887314D01*
X157134177Y-79873140D01*
X157110269Y-79837360D01*
X157088656Y-79805014D01*
X157088651Y-79805009D01*
X157088648Y-79805005D01*
X156060333Y-78776693D01*
X155992207Y-78731171D01*
X155992204Y-78731170D01*
X155961610Y-78725084D01*
X155910922Y-78697991D01*
X155602577Y-78389646D01*
X156204855Y-78389646D01*
X156226236Y-78497141D01*
X156253524Y-78537979D01*
X156271758Y-78565268D01*
X156271761Y-78565271D01*
X156271765Y-78565276D01*
X157300082Y-79593590D01*
X157340105Y-79620333D01*
X157368204Y-79639109D01*
X157368206Y-79639110D01*
X157368205Y-79639110D01*
X157368207Y-79639111D01*
X157475702Y-79660493D01*
X157583196Y-79639111D01*
X157651324Y-79593590D01*
X157795760Y-79449152D01*
X157841283Y-79381024D01*
X157862665Y-79273530D01*
X157843920Y-79179290D01*
X157841283Y-79166034D01*
X157822021Y-79137207D01*
X157795762Y-79097908D01*
X157795757Y-79097903D01*
X157795754Y-79097899D01*
X156767437Y-78069585D01*
X156699313Y-78024065D01*
X156699314Y-78024065D01*
X156591818Y-78002683D01*
X156484323Y-78024065D01*
X156484321Y-78024066D01*
X156416199Y-78069583D01*
X156416193Y-78069588D01*
X156271759Y-78214024D01*
X156226237Y-78282150D01*
X156204855Y-78389646D01*
X155602577Y-78389646D01*
X155453188Y-78240257D01*
X155425411Y-78185740D01*
X155434982Y-78125308D01*
X155464401Y-78090601D01*
X155557150Y-78022150D01*
X155637793Y-77912882D01*
X155682646Y-77784699D01*
X155685499Y-77754273D01*
X155685500Y-77754273D01*
X155685500Y-77145727D01*
X155685499Y-77145725D01*
X155682646Y-77115301D01*
X155660944Y-77053283D01*
X155659571Y-76992116D01*
X155684384Y-76950586D01*
X155785475Y-76849496D01*
X155839992Y-76821719D01*
X155855478Y-76820500D01*
X156455143Y-76820500D01*
X156513334Y-76839407D01*
X156548587Y-76886802D01*
X156582207Y-76982883D01*
X156662845Y-77092144D01*
X156662847Y-77092146D01*
X156662850Y-77092150D01*
X156662853Y-77092152D01*
X156662855Y-77092154D01*
X156772116Y-77172792D01*
X156772117Y-77172792D01*
X156772118Y-77172793D01*
X156900301Y-77217646D01*
X156930725Y-77220499D01*
X156930727Y-77220500D01*
X156930734Y-77220500D01*
X157989273Y-77220500D01*
X157989273Y-77220499D01*
X158019699Y-77217646D01*
X158147882Y-77172793D01*
X158257150Y-77092150D01*
X158337793Y-76982882D01*
X158382646Y-76854699D01*
X158385499Y-76824273D01*
X158385500Y-76824273D01*
X158385500Y-76629500D01*
X158404407Y-76571309D01*
X158453907Y-76535345D01*
X158484500Y-76530500D01*
X158745143Y-76530500D01*
X158803334Y-76549407D01*
X158838587Y-76596802D01*
X158872207Y-76692883D01*
X158952845Y-76802144D01*
X158952847Y-76802146D01*
X158952850Y-76802150D01*
X158952853Y-76802152D01*
X158952855Y-76802154D01*
X159062116Y-76882792D01*
X159062117Y-76882792D01*
X159062118Y-76882793D01*
X159190301Y-76927646D01*
X159220725Y-76930499D01*
X159220727Y-76930500D01*
X159220734Y-76930500D01*
X160279273Y-76930500D01*
X160279273Y-76930499D01*
X160309699Y-76927646D01*
X160437882Y-76882793D01*
X160547150Y-76802150D01*
X160627793Y-76692882D01*
X160632056Y-76680698D01*
X160669121Y-76632019D01*
X160727721Y-76614422D01*
X160785473Y-76634630D01*
X160820317Y-76684924D01*
X160824500Y-76713397D01*
X160824500Y-76824274D01*
X160827353Y-76854694D01*
X160827355Y-76854703D01*
X160872207Y-76982883D01*
X160893471Y-77011695D01*
X160912813Y-77069743D01*
X160894341Y-77128073D01*
X160845112Y-77164406D01*
X160839439Y-77166110D01*
X160736809Y-77193609D01*
X160622690Y-77259496D01*
X160529496Y-77352690D01*
X160463609Y-77466809D01*
X160429500Y-77594109D01*
X160429500Y-77692230D01*
X160410593Y-77750421D01*
X160400503Y-77762234D01*
X160171851Y-77990885D01*
X160121165Y-78017978D01*
X160090570Y-78024064D01*
X160090567Y-78024065D01*
X160022442Y-78069586D01*
X160022433Y-78069593D01*
X158994119Y-79097910D01*
X158948599Y-79166033D01*
X158945962Y-79179290D01*
X158927217Y-79273530D01*
X158944517Y-79360500D01*
X158948599Y-79381024D01*
X158948600Y-79381026D01*
X158992276Y-79446392D01*
X158994119Y-79449151D01*
X158994122Y-79449154D01*
X159138558Y-79593588D01*
X159138557Y-79593588D01*
X159184080Y-79624005D01*
X159206686Y-79639111D01*
X159206687Y-79639111D01*
X159206689Y-79639112D01*
X159221431Y-79642044D01*
X159274816Y-79671939D01*
X159299218Y-79719828D01*
X159302151Y-79734576D01*
X159347670Y-79802701D01*
X159347675Y-79802707D01*
X159492111Y-79947141D01*
X159492110Y-79947141D01*
X159537633Y-79977558D01*
X159560239Y-79992664D01*
X159560240Y-79992664D01*
X159560242Y-79992665D01*
X159574984Y-79995597D01*
X159628369Y-80025492D01*
X159652771Y-80073381D01*
X159655704Y-80088129D01*
X159701223Y-80156254D01*
X159701225Y-80156257D01*
X159701228Y-80156260D01*
X159845664Y-80300694D01*
X159845663Y-80300694D01*
X159891186Y-80331111D01*
X159913792Y-80346217D01*
X159928541Y-80349150D01*
X159981925Y-80379046D01*
X160006324Y-80426932D01*
X160009258Y-80441682D01*
X160009259Y-80441685D01*
X160047514Y-80498938D01*
X160054779Y-80509811D01*
X160054782Y-80509814D01*
X160199218Y-80654248D01*
X160199217Y-80654248D01*
X160238998Y-80680829D01*
X160251072Y-80688897D01*
X160267345Y-80699770D01*
X160267344Y-80699770D01*
X160267346Y-80699771D01*
X160374840Y-80721153D01*
X160482335Y-80699771D01*
X160550462Y-80654250D01*
X161578782Y-79625928D01*
X161624305Y-79557801D01*
X161630390Y-79527208D01*
X161657482Y-79476517D01*
X162200460Y-78933541D01*
X162207625Y-78921130D01*
X162240021Y-78865019D01*
X162260500Y-78788592D01*
X162260500Y-77305105D01*
X162279407Y-77246914D01*
X162326800Y-77211662D01*
X162437882Y-77172793D01*
X162455894Y-77159500D01*
X162515781Y-77115301D01*
X162547150Y-77092150D01*
X162627793Y-76982882D01*
X162661413Y-76886802D01*
X162698478Y-76838122D01*
X162754857Y-76820500D01*
X162845500Y-76820500D01*
X162903691Y-76839407D01*
X162939655Y-76888907D01*
X162944500Y-76919500D01*
X162944500Y-77354274D01*
X162947353Y-77384694D01*
X162947355Y-77384703D01*
X162992207Y-77512883D01*
X163072845Y-77622144D01*
X163072847Y-77622146D01*
X163072850Y-77622150D01*
X163072853Y-77622152D01*
X163072855Y-77622154D01*
X163182116Y-77702792D01*
X163182117Y-77702792D01*
X163182118Y-77702793D01*
X163310301Y-77747646D01*
X163340725Y-77750499D01*
X163340727Y-77750500D01*
X163340734Y-77750500D01*
X164399273Y-77750500D01*
X164399273Y-77750499D01*
X164429699Y-77747646D01*
X164557882Y-77702793D01*
X164667150Y-77622150D01*
X164747793Y-77512882D01*
X164792646Y-77384699D01*
X164795499Y-77354273D01*
X164795500Y-77354273D01*
X164795500Y-76745727D01*
X164795499Y-76745725D01*
X164792646Y-76715305D01*
X164792646Y-76715301D01*
X164747793Y-76587118D01*
X164736125Y-76571309D01*
X164667154Y-76477855D01*
X164667152Y-76477853D01*
X164667150Y-76477850D01*
X164667146Y-76477847D01*
X164667144Y-76477845D01*
X164557883Y-76397207D01*
X164429703Y-76352355D01*
X164429694Y-76352353D01*
X164399274Y-76349500D01*
X164399266Y-76349500D01*
X163635479Y-76349500D01*
X163577288Y-76330593D01*
X163565476Y-76320504D01*
X163524511Y-76279540D01*
X163515066Y-76274087D01*
X163455987Y-76239978D01*
X163379564Y-76219500D01*
X163379562Y-76219500D01*
X162754857Y-76219500D01*
X162696666Y-76200593D01*
X162661413Y-76153198D01*
X162627792Y-76057116D01*
X162547154Y-75947855D01*
X162547152Y-75947853D01*
X162547150Y-75947850D01*
X162547146Y-75947847D01*
X162547144Y-75947845D01*
X162437883Y-75867207D01*
X162309703Y-75822355D01*
X162309694Y-75822353D01*
X162279274Y-75819500D01*
X162279266Y-75819500D01*
X161220734Y-75819500D01*
X161220725Y-75819500D01*
X161190305Y-75822353D01*
X161190296Y-75822355D01*
X161062116Y-75867207D01*
X161003925Y-75910155D01*
X160945878Y-75929497D01*
X160945137Y-75929500D01*
X160754857Y-75929500D01*
X160696666Y-75910593D01*
X160661413Y-75863198D01*
X160627792Y-75767116D01*
X160547154Y-75657855D01*
X160547152Y-75657853D01*
X160547150Y-75657850D01*
X160547146Y-75657847D01*
X160547144Y-75657845D01*
X160437883Y-75577207D01*
X160309703Y-75532355D01*
X160309694Y-75532353D01*
X160279274Y-75529500D01*
X160279266Y-75529500D01*
X159220734Y-75529500D01*
X159220725Y-75529500D01*
X159190305Y-75532353D01*
X159190296Y-75532355D01*
X159062116Y-75577207D01*
X158952855Y-75657845D01*
X158952845Y-75657855D01*
X158872207Y-75767116D01*
X158838587Y-75863198D01*
X158801522Y-75911878D01*
X158745143Y-75929500D01*
X158264863Y-75929500D01*
X158206672Y-75910593D01*
X158206075Y-75910155D01*
X158147883Y-75867207D01*
X158019703Y-75822355D01*
X158019694Y-75822353D01*
X157989274Y-75819500D01*
X157989266Y-75819500D01*
X156930734Y-75819500D01*
X156930725Y-75819500D01*
X156900305Y-75822353D01*
X156900296Y-75822355D01*
X156772116Y-75867207D01*
X156662855Y-75947845D01*
X156662845Y-75947855D01*
X156582207Y-76057116D01*
X156548587Y-76153198D01*
X156511522Y-76201878D01*
X156455143Y-76219500D01*
X155729562Y-76219500D01*
X155650438Y-76219500D01*
X155603661Y-76232033D01*
X155574007Y-76239979D01*
X155505493Y-76279536D01*
X155505488Y-76279540D01*
X155064524Y-76720504D01*
X155010008Y-76748281D01*
X154994521Y-76749500D01*
X154230725Y-76749500D01*
X154200305Y-76752353D01*
X154200296Y-76752355D01*
X154072116Y-76797207D01*
X153962855Y-76877845D01*
X153962845Y-76877855D01*
X153882207Y-76987116D01*
X153848587Y-77083198D01*
X153811522Y-77131878D01*
X153755143Y-77149500D01*
X153080435Y-77149500D01*
X153004014Y-77169977D01*
X153004009Y-77169979D01*
X152951216Y-77200458D01*
X152951217Y-77200459D01*
X152935490Y-77209538D01*
X152544524Y-77600504D01*
X152490008Y-77628281D01*
X152474521Y-77629500D01*
X151710725Y-77629500D01*
X151680305Y-77632353D01*
X151680296Y-77632355D01*
X151552116Y-77677207D01*
X151442855Y-77757845D01*
X151442845Y-77757855D01*
X151362207Y-77867116D01*
X151317355Y-77995296D01*
X151317353Y-77995305D01*
X151314500Y-78025725D01*
X151314500Y-78169521D01*
X151295593Y-78227712D01*
X151285504Y-78239525D01*
X150464525Y-79060504D01*
X150410008Y-79088281D01*
X150394521Y-79089500D01*
X149630725Y-79089500D01*
X149600305Y-79092353D01*
X149600296Y-79092355D01*
X149472116Y-79137207D01*
X149362855Y-79217845D01*
X149362845Y-79217855D01*
X149282207Y-79327116D01*
X149237355Y-79455296D01*
X149237353Y-79455305D01*
X149234500Y-79485725D01*
X149234500Y-80094274D01*
X149237353Y-80124694D01*
X149237355Y-80124703D01*
X149282207Y-80252883D01*
X149362845Y-80362144D01*
X149362847Y-80362146D01*
X149362850Y-80362150D01*
X149362853Y-80362152D01*
X149362855Y-80362154D01*
X149472116Y-80442792D01*
X149472117Y-80442792D01*
X149472118Y-80442793D01*
X149600301Y-80487646D01*
X149630725Y-80490499D01*
X149630727Y-80490500D01*
X149630734Y-80490500D01*
X149760500Y-80490500D01*
X149818691Y-80509407D01*
X149854655Y-80558907D01*
X149859500Y-80589500D01*
X149859500Y-80622638D01*
X149840593Y-80680829D01*
X149793198Y-80716082D01*
X149747120Y-80732205D01*
X149747114Y-80732208D01*
X149637855Y-80812845D01*
X149637845Y-80812855D01*
X149557207Y-80922116D01*
X149512355Y-81050296D01*
X149512353Y-81050305D01*
X149509500Y-81080725D01*
X149509500Y-82139274D01*
X149512353Y-82169694D01*
X149512355Y-82169703D01*
X149557207Y-82297883D01*
X149637845Y-82407144D01*
X149637847Y-82407146D01*
X149637850Y-82407150D01*
X149637853Y-82407152D01*
X149637855Y-82407154D01*
X149747114Y-82487791D01*
X149747116Y-82487791D01*
X149747118Y-82487793D01*
X149793198Y-82503917D01*
X149841878Y-82540982D01*
X149859500Y-82597361D01*
X149859500Y-82603992D01*
X149879977Y-82680413D01*
X149879979Y-82680417D01*
X149893214Y-82703342D01*
X149912188Y-82736205D01*
X149919540Y-82748939D01*
X150405513Y-83234912D01*
X150889757Y-83719156D01*
X150916850Y-83769844D01*
X150922936Y-83800439D01*
X150922937Y-83800442D01*
X150940906Y-83827334D01*
X150968458Y-83868568D01*
X150968461Y-83868571D01*
X150968465Y-83868576D01*
X151689752Y-84589861D01*
X151717530Y-84644378D01*
X151707959Y-84704810D01*
X151664694Y-84748075D01*
X151619749Y-84758865D01*
X150354844Y-84758865D01*
X150296653Y-84739958D01*
X150284840Y-84729869D01*
X142978470Y-77423499D01*
X142950693Y-77368982D01*
X142960264Y-77308550D01*
X143003529Y-77265285D01*
X143010595Y-77262028D01*
X143018220Y-77258869D01*
X143018231Y-77258867D01*
X143084552Y-77214552D01*
X143128867Y-77148231D01*
X143140500Y-77089748D01*
X143140500Y-75350252D01*
X143128867Y-75291769D01*
X143084552Y-75225448D01*
X143084548Y-75225445D01*
X143018233Y-75181134D01*
X143018231Y-75181133D01*
X143018228Y-75181132D01*
X143018227Y-75181132D01*
X142959758Y-75169501D01*
X142959748Y-75169500D01*
X141220252Y-75169500D01*
X141220251Y-75169500D01*
X141220241Y-75169501D01*
X141161772Y-75181132D01*
X141161766Y-75181134D01*
X141095451Y-75225445D01*
X141095445Y-75225451D01*
X141051134Y-75291766D01*
X141051132Y-75291772D01*
X141039501Y-75350241D01*
X141039500Y-75350253D01*
X140780500Y-75350253D01*
X140780500Y-72929976D01*
X140780752Y-72922914D01*
X140791465Y-72773111D01*
X140793476Y-72759129D01*
X140793477Y-72759127D01*
X140836058Y-72563384D01*
X140840037Y-72549835D01*
X140853136Y-72514712D01*
X140910051Y-72362117D01*
X140915909Y-72349288D01*
X141011928Y-72173443D01*
X141019551Y-72161580D01*
X141139615Y-72001194D01*
X141148851Y-71990534D01*
X141290533Y-71848852D01*
X141301191Y-71839618D01*
X141461577Y-71719554D01*
X141473447Y-71711926D01*
X141649288Y-71615909D01*
X141662117Y-71610051D01*
X141849835Y-71540037D01*
X141863384Y-71536058D01*
X142059132Y-71493475D01*
X142073107Y-71491465D01*
X142222914Y-71480751D01*
X142229976Y-71480500D01*
X167310892Y-71480500D01*
X167369083Y-71499407D01*
G37*
%TD.AperFunction*%
%TA.AperFunction,Conductor*%
G36*
X174557085Y-71480751D02*
G01*
X174706889Y-71491465D01*
X174720869Y-71493476D01*
X174916611Y-71536058D01*
X174930163Y-71540037D01*
X175051514Y-71585298D01*
X175117876Y-71610049D01*
X175130715Y-71615912D01*
X175306548Y-71711924D01*
X175318424Y-71719556D01*
X175376258Y-71762850D01*
X175478795Y-71839608D01*
X175489471Y-71848858D01*
X175631139Y-71990526D01*
X175640387Y-72001200D01*
X175662491Y-72030727D01*
X175760439Y-72161570D01*
X175768075Y-72173452D01*
X175864082Y-72349275D01*
X175869950Y-72362125D01*
X175939961Y-72549835D01*
X175943940Y-72563386D01*
X175986522Y-72759127D01*
X175988533Y-72773109D01*
X175999248Y-72922914D01*
X175999500Y-72929977D01*
X175999500Y-107110021D01*
X175999248Y-107117084D01*
X175988533Y-107266889D01*
X175986522Y-107280871D01*
X175943940Y-107476612D01*
X175939961Y-107490163D01*
X175869950Y-107677873D01*
X175864082Y-107690723D01*
X175768075Y-107866546D01*
X175760439Y-107878428D01*
X175640389Y-108038796D01*
X175631139Y-108049472D01*
X175489471Y-108191140D01*
X175478795Y-108200390D01*
X175318427Y-108320440D01*
X175306545Y-108328076D01*
X175130723Y-108424082D01*
X175117873Y-108429950D01*
X174930163Y-108499961D01*
X174916612Y-108503940D01*
X174720871Y-108546522D01*
X174706889Y-108548533D01*
X174557085Y-108559248D01*
X174550022Y-108559500D01*
X166362124Y-108559500D01*
X166303933Y-108540593D01*
X166267969Y-108491093D01*
X166267969Y-108429907D01*
X166277402Y-108409284D01*
X166313475Y-108349611D01*
X166313475Y-108349610D01*
X166313478Y-108349606D01*
X166364086Y-108187196D01*
X166370500Y-108116616D01*
X166370500Y-107003384D01*
X166364086Y-106932804D01*
X166313478Y-106770394D01*
X166225472Y-106624815D01*
X166105185Y-106504528D01*
X166067777Y-106481914D01*
X165959607Y-106416522D01*
X165959605Y-106416521D01*
X165797194Y-106365913D01*
X165726620Y-106359500D01*
X165726616Y-106359500D01*
X164669500Y-106359500D01*
X164611309Y-106340593D01*
X164575345Y-106291093D01*
X164570500Y-106260500D01*
X164570500Y-105955478D01*
X164589407Y-105897287D01*
X164599490Y-105885480D01*
X166315566Y-104169404D01*
X173634265Y-104169404D01*
X173634265Y-104376339D01*
X173674634Y-104579290D01*
X173753823Y-104770469D01*
X173837382Y-104895525D01*
X173868788Y-104942527D01*
X174015110Y-105088849D01*
X174187167Y-105203813D01*
X174378345Y-105283002D01*
X174581300Y-105323372D01*
X174581301Y-105323372D01*
X174788229Y-105323372D01*
X174788230Y-105323372D01*
X174991185Y-105283002D01*
X175182363Y-105203813D01*
X175354420Y-105088849D01*
X175500742Y-104942527D01*
X175615706Y-104770470D01*
X175694895Y-104579292D01*
X175735265Y-104376337D01*
X175735265Y-104169407D01*
X175694895Y-103966452D01*
X175615706Y-103775274D01*
X175500742Y-103603217D01*
X175354420Y-103456895D01*
X175354416Y-103456892D01*
X175182362Y-103341930D01*
X174991183Y-103262741D01*
X174788232Y-103222372D01*
X174788230Y-103222372D01*
X174581300Y-103222372D01*
X174581297Y-103222372D01*
X174378346Y-103262741D01*
X174187167Y-103341930D01*
X174015113Y-103456892D01*
X173868785Y-103603220D01*
X173753823Y-103775274D01*
X173674634Y-103966453D01*
X173634265Y-104169404D01*
X166315566Y-104169404D01*
X168813624Y-101671345D01*
X168868139Y-101643570D01*
X168928571Y-101653141D01*
X168963281Y-101682563D01*
X169047846Y-101797145D01*
X169047850Y-101797150D01*
X169047853Y-101797152D01*
X169047855Y-101797154D01*
X169157116Y-101877792D01*
X169157117Y-101877792D01*
X169157118Y-101877793D01*
X169285301Y-101922646D01*
X169315725Y-101925499D01*
X169315727Y-101925500D01*
X169315734Y-101925500D01*
X169924273Y-101925500D01*
X169924273Y-101925499D01*
X169954699Y-101922646D01*
X170082882Y-101877793D01*
X170192150Y-101797150D01*
X170272793Y-101687882D01*
X170317646Y-101559699D01*
X170320499Y-101529273D01*
X170320500Y-101529273D01*
X170320500Y-100470727D01*
X170320499Y-100470725D01*
X170317646Y-100440305D01*
X170317646Y-100440301D01*
X170272793Y-100312118D01*
X170222056Y-100243372D01*
X170192154Y-100202855D01*
X170192152Y-100202853D01*
X170192150Y-100202850D01*
X170192146Y-100202847D01*
X170192144Y-100202845D01*
X170082883Y-100122207D01*
X169986802Y-100088586D01*
X169938121Y-100051520D01*
X169920500Y-99995142D01*
X169920500Y-98929500D01*
X169939407Y-98871309D01*
X169988907Y-98835345D01*
X170019500Y-98830500D01*
X170479747Y-98830500D01*
X170479748Y-98830500D01*
X170538231Y-98818867D01*
X170604552Y-98774552D01*
X170648867Y-98708231D01*
X170660500Y-98649748D01*
X170660500Y-97224479D01*
X170679407Y-97166288D01*
X170728907Y-97130324D01*
X170790093Y-97130324D01*
X170829504Y-97154475D01*
X170920504Y-97245475D01*
X170948281Y-97299992D01*
X170949500Y-97315479D01*
X170949500Y-98337671D01*
X170969076Y-98410727D01*
X170969979Y-98414096D01*
X171002956Y-98471214D01*
X171009540Y-98482618D01*
X172362221Y-99835299D01*
X173709501Y-101182579D01*
X173737278Y-101237096D01*
X173730961Y-101290468D01*
X173674635Y-101426450D01*
X173674635Y-101426452D01*
X173634265Y-101629404D01*
X173634265Y-101836339D01*
X173674634Y-102039290D01*
X173753823Y-102230469D01*
X173867634Y-102400800D01*
X173868788Y-102402527D01*
X174015110Y-102548849D01*
X174187167Y-102663813D01*
X174378345Y-102743002D01*
X174581300Y-102783372D01*
X174581301Y-102783372D01*
X174788229Y-102783372D01*
X174788230Y-102783372D01*
X174991185Y-102743002D01*
X175182363Y-102663813D01*
X175354420Y-102548849D01*
X175500742Y-102402527D01*
X175615706Y-102230470D01*
X175694895Y-102039292D01*
X175735265Y-101836337D01*
X175735265Y-101629407D01*
X175694895Y-101426452D01*
X175615706Y-101235274D01*
X175500742Y-101063217D01*
X175354420Y-100916895D01*
X175354416Y-100916892D01*
X175182362Y-100801930D01*
X174991183Y-100722741D01*
X174788232Y-100682372D01*
X174788230Y-100682372D01*
X174581300Y-100682372D01*
X174581297Y-100682372D01*
X174378345Y-100722742D01*
X174378343Y-100722742D01*
X174242361Y-100779068D01*
X174181365Y-100783869D01*
X174134472Y-100757608D01*
X171579496Y-98202632D01*
X171551719Y-98148115D01*
X171550500Y-98132628D01*
X171550500Y-97264478D01*
X171569407Y-97206287D01*
X171618907Y-97170323D01*
X171680093Y-97170323D01*
X171719501Y-97194472D01*
X173605270Y-99080241D01*
X173633046Y-99134756D01*
X173634265Y-99150243D01*
X173634265Y-99296339D01*
X173674634Y-99499290D01*
X173753823Y-99690469D01*
X173830553Y-99805304D01*
X173868788Y-99862527D01*
X174015110Y-100008849D01*
X174187167Y-100123813D01*
X174378345Y-100203002D01*
X174581300Y-100243372D01*
X174581301Y-100243372D01*
X174788229Y-100243372D01*
X174788230Y-100243372D01*
X174991185Y-100203002D01*
X175182363Y-100123813D01*
X175354420Y-100008849D01*
X175500742Y-99862527D01*
X175615706Y-99690470D01*
X175694895Y-99499292D01*
X175735265Y-99296337D01*
X175735265Y-99089407D01*
X175694895Y-98886452D01*
X175615706Y-98695274D01*
X175500742Y-98523217D01*
X175354420Y-98376895D01*
X175295714Y-98337669D01*
X175182362Y-98261930D01*
X174991183Y-98182741D01*
X174788232Y-98142372D01*
X174788230Y-98142372D01*
X174581300Y-98142372D01*
X174581297Y-98142372D01*
X174378346Y-98182741D01*
X174187167Y-98261930D01*
X174015110Y-98376894D01*
X173953491Y-98438513D01*
X173898974Y-98466290D01*
X173838542Y-98456718D01*
X173813484Y-98438513D01*
X171829496Y-96454525D01*
X171801719Y-96400008D01*
X171800500Y-96384521D01*
X171800500Y-94700437D01*
X171800499Y-94700435D01*
X171792251Y-94669655D01*
X171780021Y-94624011D01*
X171764994Y-94597984D01*
X171740460Y-94555489D01*
X171684511Y-94499539D01*
X171684511Y-94499540D01*
X170924511Y-93739540D01*
X170919970Y-93736918D01*
X170890630Y-93719978D01*
X170890630Y-93719979D01*
X170855989Y-93699979D01*
X170855988Y-93699978D01*
X170855987Y-93699978D01*
X170779564Y-93679500D01*
X170779562Y-93679500D01*
X170354430Y-93679500D01*
X170296239Y-93660593D01*
X170260275Y-93611093D01*
X170260275Y-93549907D01*
X170281751Y-93514853D01*
X170281751Y-93513173D01*
X169886366Y-93117789D01*
X169917007Y-93100099D01*
X170010099Y-93007007D01*
X170027789Y-92976366D01*
X170423173Y-93371750D01*
X170425591Y-93369333D01*
X170540495Y-93197366D01*
X170540498Y-93197360D01*
X170619650Y-93006272D01*
X170659999Y-92803418D01*
X170660000Y-92803413D01*
X170660000Y-92787633D01*
X170678907Y-92729442D01*
X170728407Y-92693478D01*
X170789593Y-92693478D01*
X170829004Y-92717629D01*
X173911686Y-95800311D01*
X173939463Y-95854828D01*
X173929892Y-95915260D01*
X173911686Y-95940318D01*
X173868787Y-95983217D01*
X173753823Y-96155274D01*
X173674634Y-96346453D01*
X173634265Y-96549404D01*
X173634265Y-96756339D01*
X173674634Y-96959290D01*
X173753823Y-97150469D01*
X173868785Y-97322523D01*
X173868788Y-97322527D01*
X174015110Y-97468849D01*
X174187167Y-97583813D01*
X174378345Y-97663002D01*
X174581300Y-97703372D01*
X174581301Y-97703372D01*
X174788229Y-97703372D01*
X174788230Y-97703372D01*
X174991185Y-97663002D01*
X175182363Y-97583813D01*
X175354420Y-97468849D01*
X175500742Y-97322527D01*
X175615706Y-97150470D01*
X175694895Y-96959292D01*
X175735265Y-96756337D01*
X175735265Y-96549407D01*
X175694895Y-96346452D01*
X175615706Y-96155274D01*
X175500742Y-95983217D01*
X175354420Y-95836895D01*
X175354416Y-95836892D01*
X175182362Y-95721930D01*
X174991183Y-95642741D01*
X174788232Y-95602372D01*
X174788230Y-95602372D01*
X174604697Y-95602372D01*
X174546506Y-95583465D01*
X174534693Y-95573376D01*
X174228343Y-95267026D01*
X174200566Y-95212509D01*
X174210137Y-95152077D01*
X174253402Y-95108812D01*
X174313834Y-95099241D01*
X174336228Y-95105556D01*
X174378345Y-95123002D01*
X174581300Y-95163372D01*
X174581301Y-95163372D01*
X174788229Y-95163372D01*
X174788230Y-95163372D01*
X174991185Y-95123002D01*
X175182363Y-95043813D01*
X175354420Y-94928849D01*
X175500742Y-94782527D01*
X175615706Y-94610470D01*
X175694895Y-94419292D01*
X175735265Y-94216337D01*
X175735265Y-94009407D01*
X175694895Y-93806452D01*
X175615706Y-93615274D01*
X175500742Y-93443217D01*
X175354420Y-93296895D01*
X175354416Y-93296892D01*
X175182362Y-93181930D01*
X174991183Y-93102741D01*
X174788232Y-93062372D01*
X174788230Y-93062372D01*
X174581300Y-93062372D01*
X174581297Y-93062372D01*
X174378345Y-93102742D01*
X174378343Y-93102742D01*
X174242361Y-93159068D01*
X174181365Y-93163869D01*
X174134472Y-93137608D01*
X172999744Y-92002880D01*
X171826404Y-90829540D01*
X171826401Y-90829538D01*
X171757885Y-90789980D01*
X171757881Y-90789978D01*
X171681457Y-90769500D01*
X171681455Y-90769500D01*
X169441734Y-90769500D01*
X169383543Y-90750593D01*
X169347579Y-90701093D01*
X169347579Y-90639907D01*
X169382946Y-90590845D01*
X169421025Y-90562741D01*
X169442150Y-90547150D01*
X169522793Y-90437882D01*
X169567646Y-90309699D01*
X169570499Y-90279273D01*
X169570500Y-90279273D01*
X169570500Y-89515478D01*
X169589407Y-89457287D01*
X169599490Y-89445480D01*
X170060460Y-88984511D01*
X170072295Y-88964012D01*
X170100021Y-88915989D01*
X170120500Y-88839562D01*
X170120500Y-88749500D01*
X170139407Y-88691309D01*
X170163082Y-88674108D01*
X171109500Y-88674108D01*
X171109500Y-88805892D01*
X171131183Y-88886814D01*
X171143609Y-88933190D01*
X171209496Y-89047309D01*
X171209498Y-89047311D01*
X171209500Y-89047314D01*
X171302686Y-89140500D01*
X171302688Y-89140501D01*
X171302690Y-89140503D01*
X171416810Y-89206390D01*
X171416808Y-89206390D01*
X171416812Y-89206391D01*
X171416814Y-89206392D01*
X171544108Y-89240500D01*
X171544110Y-89240500D01*
X171644522Y-89240500D01*
X171702713Y-89259407D01*
X171712086Y-89267139D01*
X171713322Y-89268293D01*
X171718361Y-89273332D01*
X171719298Y-89273873D01*
X171723867Y-89278139D01*
X171736475Y-89300919D01*
X171751227Y-89322384D01*
X171751097Y-89327337D01*
X171753496Y-89331672D01*
X171750306Y-89357514D01*
X171749624Y-89383548D01*
X171746607Y-89387478D01*
X171746001Y-89392396D01*
X171728227Y-89411431D01*
X171712376Y-89432089D01*
X171707536Y-89433591D01*
X171704244Y-89437118D01*
X171682805Y-89441270D01*
X171656303Y-89449500D01*
X171574108Y-89449500D01*
X171496200Y-89470375D01*
X171446809Y-89483609D01*
X171332690Y-89549496D01*
X171239496Y-89642690D01*
X171173609Y-89756809D01*
X171165763Y-89786093D01*
X171139500Y-89884108D01*
X171139500Y-90015892D01*
X171143286Y-90030021D01*
X171173609Y-90143190D01*
X171239496Y-90257309D01*
X171239498Y-90257311D01*
X171239500Y-90257314D01*
X171332686Y-90350500D01*
X171332688Y-90350501D01*
X171332690Y-90350503D01*
X171446810Y-90416390D01*
X171446808Y-90416390D01*
X171446812Y-90416391D01*
X171446814Y-90416392D01*
X171574108Y-90450500D01*
X171574110Y-90450500D01*
X171694521Y-90450500D01*
X171752712Y-90469407D01*
X171764525Y-90479496D01*
X173098361Y-91813332D01*
X173098363Y-91813333D01*
X173098364Y-91813334D01*
X173098365Y-91813335D01*
X173166880Y-91852892D01*
X173166878Y-91852892D01*
X173166882Y-91852893D01*
X173166884Y-91852894D01*
X173243310Y-91873372D01*
X173606033Y-91873372D01*
X173664224Y-91892279D01*
X173697497Y-91934486D01*
X173753823Y-92070469D01*
X173868785Y-92242523D01*
X173868788Y-92242527D01*
X174015110Y-92388849D01*
X174187167Y-92503813D01*
X174378345Y-92583002D01*
X174581300Y-92623372D01*
X174581301Y-92623372D01*
X174788229Y-92623372D01*
X174788230Y-92623372D01*
X174991185Y-92583002D01*
X175182363Y-92503813D01*
X175354420Y-92388849D01*
X175500742Y-92242527D01*
X175615706Y-92070470D01*
X175694895Y-91879292D01*
X175735265Y-91676337D01*
X175735265Y-91469407D01*
X175694895Y-91266452D01*
X175615706Y-91075274D01*
X175500742Y-90903217D01*
X175354420Y-90756895D01*
X175354416Y-90756892D01*
X175182362Y-90641930D01*
X174991183Y-90562741D01*
X174788232Y-90522372D01*
X174788230Y-90522372D01*
X174581300Y-90522372D01*
X174581297Y-90522372D01*
X174378346Y-90562741D01*
X174187167Y-90641930D01*
X174015113Y-90756892D01*
X173868785Y-90903220D01*
X173753823Y-91075274D01*
X173697497Y-91211258D01*
X173657760Y-91257784D01*
X173606033Y-91272372D01*
X173448351Y-91272372D01*
X173390160Y-91253465D01*
X173378347Y-91243376D01*
X172169496Y-90034525D01*
X172141719Y-89980008D01*
X172140500Y-89964521D01*
X172140500Y-89884109D01*
X172140500Y-89884108D01*
X172106392Y-89756814D01*
X172106390Y-89756811D01*
X172106390Y-89756809D01*
X172040503Y-89642690D01*
X172040501Y-89642688D01*
X172040500Y-89642686D01*
X171947314Y-89549500D01*
X171947311Y-89549498D01*
X171947309Y-89549496D01*
X171892943Y-89518108D01*
X171852002Y-89472639D01*
X171845606Y-89411789D01*
X171876199Y-89358801D01*
X171932095Y-89333914D01*
X171942443Y-89333372D01*
X173606033Y-89333372D01*
X173664224Y-89352279D01*
X173697497Y-89394486D01*
X173753823Y-89530469D01*
X173828806Y-89642690D01*
X173868788Y-89702527D01*
X174015110Y-89848849D01*
X174187167Y-89963813D01*
X174378345Y-90043002D01*
X174581300Y-90083372D01*
X174581301Y-90083372D01*
X174788229Y-90083372D01*
X174788230Y-90083372D01*
X174991185Y-90043002D01*
X175182363Y-89963813D01*
X175354420Y-89848849D01*
X175500742Y-89702527D01*
X175615706Y-89530470D01*
X175694895Y-89339292D01*
X175735265Y-89136337D01*
X175735265Y-88929407D01*
X175694895Y-88726452D01*
X175615706Y-88535274D01*
X175500742Y-88363217D01*
X175354420Y-88216895D01*
X175353934Y-88216570D01*
X175182362Y-88101930D01*
X174991183Y-88022741D01*
X174788232Y-87982372D01*
X174788230Y-87982372D01*
X174581300Y-87982372D01*
X174581297Y-87982372D01*
X174378346Y-88022741D01*
X174187167Y-88101930D01*
X174015113Y-88216892D01*
X173868785Y-88363220D01*
X173753823Y-88535274D01*
X173697497Y-88671258D01*
X173657760Y-88717784D01*
X173606033Y-88732372D01*
X172202077Y-88732372D01*
X172143886Y-88713465D01*
X172107922Y-88663965D01*
X172106455Y-88659013D01*
X172076392Y-88546814D01*
X172076390Y-88546811D01*
X172076390Y-88546809D01*
X172010503Y-88432690D01*
X172010501Y-88432688D01*
X172010500Y-88432686D01*
X171917314Y-88339500D01*
X171917311Y-88339498D01*
X171917309Y-88339496D01*
X171803189Y-88273609D01*
X171803191Y-88273609D01*
X171750187Y-88259407D01*
X171675892Y-88239500D01*
X171544108Y-88239500D01*
X171469813Y-88259407D01*
X171416809Y-88273609D01*
X171302690Y-88339496D01*
X171209496Y-88432690D01*
X171143609Y-88546809D01*
X171125718Y-88613580D01*
X171109500Y-88674108D01*
X170163082Y-88674108D01*
X170188907Y-88655345D01*
X170219500Y-88650500D01*
X170339747Y-88650500D01*
X170339748Y-88650500D01*
X170398231Y-88638867D01*
X170464552Y-88594552D01*
X170508867Y-88528231D01*
X170520500Y-88469748D01*
X170520500Y-87530252D01*
X170508867Y-87471769D01*
X170464552Y-87405448D01*
X170464548Y-87405445D01*
X170398233Y-87361134D01*
X170398231Y-87361133D01*
X170398228Y-87361132D01*
X170398227Y-87361132D01*
X170339758Y-87349501D01*
X170339748Y-87349500D01*
X170339747Y-87349500D01*
X170219500Y-87349500D01*
X170161309Y-87330593D01*
X170125345Y-87281093D01*
X170120500Y-87250500D01*
X170120500Y-86214108D01*
X171199500Y-86214108D01*
X171199500Y-86345892D01*
X171214877Y-86403279D01*
X171233609Y-86473190D01*
X171299496Y-86587309D01*
X171299498Y-86587311D01*
X171299500Y-86587314D01*
X171392686Y-86680500D01*
X171392688Y-86680501D01*
X171392690Y-86680503D01*
X171506810Y-86746390D01*
X171506808Y-86746390D01*
X171506812Y-86746391D01*
X171506814Y-86746392D01*
X171634108Y-86780500D01*
X171634110Y-86780500D01*
X171765892Y-86780500D01*
X171769948Y-86779412D01*
X171821204Y-86779410D01*
X171873310Y-86793372D01*
X173606033Y-86793372D01*
X173664224Y-86812279D01*
X173697497Y-86854486D01*
X173753823Y-86990469D01*
X173868785Y-87162523D01*
X173868788Y-87162527D01*
X174015110Y-87308849D01*
X174187167Y-87423813D01*
X174378345Y-87503002D01*
X174581300Y-87543372D01*
X174581301Y-87543372D01*
X174788229Y-87543372D01*
X174788230Y-87543372D01*
X174991185Y-87503002D01*
X175182363Y-87423813D01*
X175354420Y-87308849D01*
X175500742Y-87162527D01*
X175615706Y-86990470D01*
X175694895Y-86799292D01*
X175735265Y-86596337D01*
X175735265Y-86389407D01*
X175694895Y-86186452D01*
X175615706Y-85995274D01*
X175500742Y-85823217D01*
X175354420Y-85676895D01*
X175354416Y-85676892D01*
X175182362Y-85561930D01*
X174991183Y-85482741D01*
X174788232Y-85442372D01*
X174788230Y-85442372D01*
X174581300Y-85442372D01*
X174581297Y-85442372D01*
X174378346Y-85482741D01*
X174187167Y-85561930D01*
X174015113Y-85676892D01*
X173868785Y-85823220D01*
X173753823Y-85995274D01*
X173697497Y-86131258D01*
X173657760Y-86177784D01*
X173606033Y-86192372D01*
X172270641Y-86192372D01*
X172212450Y-86173465D01*
X172176486Y-86123965D01*
X172175019Y-86119013D01*
X172166392Y-86086814D01*
X172158752Y-86073581D01*
X172100503Y-85972690D01*
X172100501Y-85972688D01*
X172100500Y-85972686D01*
X172007314Y-85879500D01*
X172007311Y-85879498D01*
X172007309Y-85879496D01*
X171893189Y-85813609D01*
X171893191Y-85813609D01*
X171843799Y-85800375D01*
X171765892Y-85779500D01*
X171634108Y-85779500D01*
X171556200Y-85800375D01*
X171506809Y-85813609D01*
X171392690Y-85879496D01*
X171299496Y-85972690D01*
X171233609Y-86086809D01*
X171221699Y-86131258D01*
X171199500Y-86214108D01*
X170120500Y-86214108D01*
X170120500Y-84649500D01*
X170139407Y-84591309D01*
X170188907Y-84555345D01*
X170219500Y-84550500D01*
X170339747Y-84550500D01*
X170339748Y-84550500D01*
X170398231Y-84538867D01*
X170464552Y-84494552D01*
X170508867Y-84428231D01*
X170520500Y-84369748D01*
X170520500Y-83430252D01*
X170508867Y-83371769D01*
X170464552Y-83305448D01*
X170464548Y-83305445D01*
X170398233Y-83261134D01*
X170398231Y-83261133D01*
X170398228Y-83261132D01*
X170398227Y-83261132D01*
X170339758Y-83249501D01*
X170339748Y-83249500D01*
X169300252Y-83249500D01*
X169300251Y-83249500D01*
X169300241Y-83249501D01*
X169241772Y-83261132D01*
X169241766Y-83261134D01*
X169175451Y-83305445D01*
X169175445Y-83305451D01*
X169131134Y-83371766D01*
X169131132Y-83371772D01*
X169119501Y-83430241D01*
X169119500Y-83430253D01*
X169119500Y-84369746D01*
X169119501Y-84369758D01*
X169131132Y-84428227D01*
X169131134Y-84428233D01*
X169175445Y-84494548D01*
X169175448Y-84494552D01*
X169241769Y-84538867D01*
X169286231Y-84547711D01*
X169300241Y-84550498D01*
X169300246Y-84550498D01*
X169300252Y-84550500D01*
X169420500Y-84550500D01*
X169478691Y-84569407D01*
X169514655Y-84618907D01*
X169519500Y-84649500D01*
X169519500Y-87250500D01*
X169500593Y-87308691D01*
X169451093Y-87344655D01*
X169420500Y-87349500D01*
X169300252Y-87349500D01*
X169300251Y-87349500D01*
X169300241Y-87349501D01*
X169241772Y-87361132D01*
X169241766Y-87361134D01*
X169175451Y-87405445D01*
X169175445Y-87405451D01*
X169131134Y-87471766D01*
X169131132Y-87471772D01*
X169119501Y-87530241D01*
X169119500Y-87530253D01*
X169119500Y-88469746D01*
X169119501Y-88469758D01*
X169131132Y-88528227D01*
X169131134Y-88528233D01*
X169159895Y-88571276D01*
X169175448Y-88594552D01*
X169175451Y-88594554D01*
X169249876Y-88644284D01*
X169247779Y-88647422D01*
X169280506Y-88675346D01*
X169294818Y-88734834D01*
X169271430Y-88791373D01*
X169219276Y-88823368D01*
X169186879Y-88825682D01*
X169174269Y-88824500D01*
X169174266Y-88824500D01*
X168846771Y-88824500D01*
X168788580Y-88805593D01*
X168752616Y-88756093D01*
X168752616Y-88694907D01*
X168788580Y-88645407D01*
X168791769Y-88643185D01*
X168805684Y-88633886D01*
X168864552Y-88594552D01*
X168908867Y-88528231D01*
X168920500Y-88469748D01*
X168920500Y-87530252D01*
X168908867Y-87471769D01*
X168864552Y-87405448D01*
X168864548Y-87405445D01*
X168798233Y-87361134D01*
X168798231Y-87361133D01*
X168798228Y-87361132D01*
X168798227Y-87361132D01*
X168739758Y-87349501D01*
X168739748Y-87349500D01*
X168739747Y-87349500D01*
X168619500Y-87349500D01*
X168561309Y-87330593D01*
X168525345Y-87281093D01*
X168520500Y-87250500D01*
X168520500Y-84649500D01*
X168539407Y-84591309D01*
X168588907Y-84555345D01*
X168619500Y-84550500D01*
X168739747Y-84550500D01*
X168739748Y-84550500D01*
X168798231Y-84538867D01*
X168864552Y-84494552D01*
X168908867Y-84428231D01*
X168920500Y-84369748D01*
X168920500Y-83430252D01*
X168908867Y-83371769D01*
X168864552Y-83305448D01*
X168848215Y-83294532D01*
X168832955Y-83284335D01*
X168795076Y-83236285D01*
X168792674Y-83175146D01*
X168817952Y-83132018D01*
X169055475Y-82894494D01*
X169109990Y-82866718D01*
X169125464Y-82865499D01*
X169566518Y-82865499D01*
X169566521Y-82865499D01*
X169566522Y-82865498D01*
X169613411Y-82858072D01*
X169660299Y-82850647D01*
X169660299Y-82850646D01*
X169660304Y-82850646D01*
X169773342Y-82793050D01*
X169863050Y-82703342D01*
X169920646Y-82590304D01*
X169935500Y-82496519D01*
X169935499Y-81883482D01*
X169930243Y-81850292D01*
X169920647Y-81789700D01*
X169920646Y-81789698D01*
X169920646Y-81789696D01*
X169863050Y-81676658D01*
X169773342Y-81586950D01*
X169660304Y-81529354D01*
X169660305Y-81529354D01*
X169566522Y-81514500D01*
X169103479Y-81514500D01*
X169103475Y-81514501D01*
X169068148Y-81520096D01*
X169007716Y-81510524D01*
X168964453Y-81467258D01*
X168954882Y-81406826D01*
X168982659Y-81352312D01*
X169406174Y-80928796D01*
X169450552Y-80903173D01*
X169513186Y-80886392D01*
X169627314Y-80820500D01*
X169720500Y-80727314D01*
X169739474Y-80694450D01*
X169786390Y-80613190D01*
X169786390Y-80613188D01*
X169786392Y-80613186D01*
X169820500Y-80485892D01*
X169820500Y-80354108D01*
X169786392Y-80226814D01*
X169786390Y-80226811D01*
X169786390Y-80226809D01*
X169720503Y-80112690D01*
X169720501Y-80112688D01*
X169720500Y-80112686D01*
X169627314Y-80019500D01*
X169627311Y-80019498D01*
X169627309Y-80019496D01*
X169513189Y-79953609D01*
X169513191Y-79953609D01*
X169463799Y-79940375D01*
X169385892Y-79919500D01*
X169254108Y-79919500D01*
X169176200Y-79940375D01*
X169126809Y-79953609D01*
X169012690Y-80019496D01*
X168919496Y-80112690D01*
X168853609Y-80226809D01*
X168846623Y-80252882D01*
X168819500Y-80354108D01*
X168819500Y-80485892D01*
X168842667Y-80572356D01*
X168839465Y-80633457D01*
X168817045Y-80667982D01*
X168047820Y-81437207D01*
X167993303Y-81464984D01*
X167932871Y-81455413D01*
X167907812Y-81437207D01*
X167891555Y-81420950D01*
X167863778Y-81366433D01*
X167867405Y-81320353D01*
X167896464Y-81230920D01*
X167896464Y-81104054D01*
X167857260Y-80983398D01*
X167801448Y-80906578D01*
X167403320Y-80508452D01*
X167403318Y-80508450D01*
X167326502Y-80452639D01*
X167326500Y-80452638D01*
X167205844Y-80413434D01*
X167078978Y-80413434D01*
X166958321Y-80452638D01*
X166958320Y-80452639D01*
X166881502Y-80508449D01*
X166554086Y-80835867D01*
X166498272Y-80912686D01*
X166493038Y-80928796D01*
X166459068Y-81033344D01*
X166459068Y-81160210D01*
X166498272Y-81280866D01*
X166498273Y-81280868D01*
X166554080Y-81357681D01*
X166554085Y-81357687D01*
X166952213Y-81755813D01*
X166962606Y-81763364D01*
X167029032Y-81811626D01*
X167149688Y-81850830D01*
X167149690Y-81850830D01*
X167276553Y-81850830D01*
X167276554Y-81850830D01*
X167365988Y-81821770D01*
X167427172Y-81821770D01*
X167466584Y-81845921D01*
X167482842Y-81862179D01*
X167510619Y-81916696D01*
X167501048Y-81977128D01*
X167482842Y-82002187D01*
X166644525Y-82840504D01*
X166590008Y-82868281D01*
X166574521Y-82869500D01*
X166415479Y-82869500D01*
X166357288Y-82850593D01*
X166345475Y-82840504D01*
X165829491Y-82324520D01*
X165312670Y-81807699D01*
X165284895Y-81753185D01*
X165294466Y-81692753D01*
X165337731Y-81649488D01*
X165382676Y-81638698D01*
X165508786Y-81638698D01*
X165508788Y-81638698D01*
X165629445Y-81599494D01*
X165706264Y-81543682D01*
X166033680Y-81216264D01*
X166089494Y-81139445D01*
X166128698Y-81018788D01*
X166128698Y-80891922D01*
X166089494Y-80771266D01*
X166079147Y-80757025D01*
X166033685Y-80694450D01*
X166033680Y-80694444D01*
X165635552Y-80296318D01*
X165558736Y-80240507D01*
X165558734Y-80240506D01*
X165438078Y-80201302D01*
X165414347Y-80201302D01*
X165356156Y-80182395D01*
X165320192Y-80132895D01*
X165320192Y-80071709D01*
X165344343Y-80032298D01*
X166567145Y-78809496D01*
X166621662Y-78781719D01*
X166637149Y-78780500D01*
X167090500Y-78780500D01*
X167148691Y-78799407D01*
X167184655Y-78848907D01*
X167189500Y-78879500D01*
X167189500Y-78949746D01*
X167189501Y-78949758D01*
X167201132Y-79008227D01*
X167201134Y-79008233D01*
X167245445Y-79074548D01*
X167245448Y-79074552D01*
X167311769Y-79118867D01*
X167356231Y-79127711D01*
X167370241Y-79130498D01*
X167370246Y-79130498D01*
X167370252Y-79130500D01*
X167370253Y-79130500D01*
X168409747Y-79130500D01*
X168409748Y-79130500D01*
X168468231Y-79118867D01*
X168534552Y-79074552D01*
X168578867Y-79008231D01*
X168590500Y-78949748D01*
X168590500Y-78010252D01*
X168588994Y-78002683D01*
X168584577Y-77980475D01*
X168578867Y-77951769D01*
X168534552Y-77885448D01*
X168534548Y-77885445D01*
X168468233Y-77841134D01*
X168468231Y-77841133D01*
X168468228Y-77841132D01*
X168468227Y-77841132D01*
X168409758Y-77829501D01*
X168409748Y-77829500D01*
X168409747Y-77829500D01*
X168289500Y-77829500D01*
X168231309Y-77810593D01*
X168195345Y-77761093D01*
X168190500Y-77730500D01*
X168190500Y-75394479D01*
X168209407Y-75336288D01*
X168258907Y-75300324D01*
X168320093Y-75300324D01*
X168359504Y-75324475D01*
X171015504Y-77980475D01*
X171043281Y-78034992D01*
X171044500Y-78050479D01*
X171044500Y-78278338D01*
X171025593Y-78336529D01*
X170976093Y-78372493D01*
X170919878Y-78373965D01*
X170888656Y-78365599D01*
X170865892Y-78359500D01*
X170734108Y-78359500D01*
X170656200Y-78380375D01*
X170606809Y-78393609D01*
X170492690Y-78459496D01*
X170399496Y-78552690D01*
X170333609Y-78666809D01*
X170319564Y-78719226D01*
X170299500Y-78794108D01*
X170299500Y-78925892D01*
X170326764Y-79027644D01*
X170333609Y-79053190D01*
X170399496Y-79167309D01*
X170399498Y-79167311D01*
X170399500Y-79167314D01*
X170492686Y-79260500D01*
X170594250Y-79319138D01*
X170635190Y-79364607D01*
X170641586Y-79425457D01*
X170610993Y-79478445D01*
X170570372Y-79500501D01*
X170446809Y-79533609D01*
X170332690Y-79599496D01*
X170239496Y-79692690D01*
X170173609Y-79806809D01*
X170165423Y-79837360D01*
X170139500Y-79934108D01*
X170139500Y-80065892D01*
X170160800Y-80145385D01*
X170173609Y-80193190D01*
X170239496Y-80307309D01*
X170239498Y-80307311D01*
X170239500Y-80307314D01*
X170332686Y-80400500D01*
X170332688Y-80400501D01*
X170332690Y-80400503D01*
X170446810Y-80466390D01*
X170446808Y-80466390D01*
X170446812Y-80466391D01*
X170446814Y-80466392D01*
X170574108Y-80500500D01*
X170636873Y-80500500D01*
X170695064Y-80519407D01*
X170706877Y-80529496D01*
X171723589Y-81546208D01*
X171751366Y-81600725D01*
X171741795Y-81661157D01*
X171703086Y-81701948D01*
X171672688Y-81719498D01*
X171579496Y-81812690D01*
X171513609Y-81926809D01*
X171494539Y-81997978D01*
X171479500Y-82054108D01*
X171479500Y-82185892D01*
X171501782Y-82269051D01*
X171513609Y-82313190D01*
X171579496Y-82427309D01*
X171579498Y-82427311D01*
X171579500Y-82427314D01*
X171672686Y-82520500D01*
X171672688Y-82520501D01*
X171672690Y-82520503D01*
X171786810Y-82586390D01*
X171786808Y-82586390D01*
X171786812Y-82586391D01*
X171786814Y-82586392D01*
X171914108Y-82620500D01*
X171994521Y-82620500D01*
X172052712Y-82639407D01*
X172064525Y-82649496D01*
X173552412Y-84137383D01*
X173552411Y-84137383D01*
X173604811Y-84189782D01*
X173608361Y-84193332D01*
X173630567Y-84206152D01*
X173671509Y-84251621D01*
X173672703Y-84254827D01*
X173672774Y-84254798D01*
X173674634Y-84259289D01*
X173674635Y-84259292D01*
X173707070Y-84337597D01*
X173753823Y-84450469D01*
X173840066Y-84579541D01*
X173868788Y-84622527D01*
X174015110Y-84768849D01*
X174187167Y-84883813D01*
X174378345Y-84963002D01*
X174581300Y-85003372D01*
X174581301Y-85003372D01*
X174788229Y-85003372D01*
X174788230Y-85003372D01*
X174991185Y-84963002D01*
X175182363Y-84883813D01*
X175354420Y-84768849D01*
X175500742Y-84622527D01*
X175615706Y-84450470D01*
X175694895Y-84259292D01*
X175735265Y-84056337D01*
X175735265Y-83849407D01*
X175694895Y-83646452D01*
X175615706Y-83455274D01*
X175500742Y-83283217D01*
X175354420Y-83136895D01*
X175347120Y-83132017D01*
X175182362Y-83021930D01*
X174991183Y-82942741D01*
X174788232Y-82902372D01*
X174788230Y-82902372D01*
X174581300Y-82902372D01*
X174581297Y-82902372D01*
X174378346Y-82942741D01*
X174187167Y-83021930D01*
X174015113Y-83136892D01*
X173868785Y-83283220D01*
X173807394Y-83375100D01*
X173759344Y-83412980D01*
X173698206Y-83415382D01*
X173655074Y-83390103D01*
X172509496Y-82244525D01*
X172481719Y-82190008D01*
X172480500Y-82174521D01*
X172480500Y-82054109D01*
X172480500Y-82054108D01*
X172446392Y-81926814D01*
X172408897Y-81861872D01*
X172396176Y-81802024D01*
X172421062Y-81746129D01*
X172474050Y-81715536D01*
X172494634Y-81713372D01*
X173606033Y-81713372D01*
X173664224Y-81732279D01*
X173697497Y-81774486D01*
X173753823Y-81910469D01*
X173859392Y-82068465D01*
X173868788Y-82082527D01*
X174015110Y-82228849D01*
X174187167Y-82343813D01*
X174378345Y-82423002D01*
X174581300Y-82463372D01*
X174581301Y-82463372D01*
X174788229Y-82463372D01*
X174788230Y-82463372D01*
X174991185Y-82423002D01*
X175182363Y-82343813D01*
X175354420Y-82228849D01*
X175500742Y-82082527D01*
X175615706Y-81910470D01*
X175694895Y-81719292D01*
X175735265Y-81516337D01*
X175735265Y-81309407D01*
X175694895Y-81106452D01*
X175615706Y-80915274D01*
X175500742Y-80743217D01*
X175354420Y-80596895D01*
X175343353Y-80589500D01*
X175182362Y-80481930D01*
X174991183Y-80402741D01*
X174788232Y-80362372D01*
X174788230Y-80362372D01*
X174581300Y-80362372D01*
X174581297Y-80362372D01*
X174378346Y-80402741D01*
X174187167Y-80481930D01*
X174015113Y-80596892D01*
X173868785Y-80743220D01*
X173753823Y-80915274D01*
X173697497Y-81051258D01*
X173657760Y-81097784D01*
X173606033Y-81112372D01*
X172180703Y-81112372D01*
X172122512Y-81093465D01*
X172110699Y-81083376D01*
X171726826Y-80699503D01*
X171699049Y-80644986D01*
X171708620Y-80584554D01*
X171751885Y-80541289D01*
X171796830Y-80530499D01*
X172026521Y-80530499D01*
X172026522Y-80530498D01*
X172073411Y-80523072D01*
X172120299Y-80515647D01*
X172120299Y-80515646D01*
X172120304Y-80515646D01*
X172233342Y-80458050D01*
X172323050Y-80368342D01*
X172380646Y-80255304D01*
X172395500Y-80161519D01*
X172395499Y-79698482D01*
X172389483Y-79660493D01*
X172380647Y-79604700D01*
X172380646Y-79604698D01*
X172380646Y-79604696D01*
X172323050Y-79491658D01*
X172280893Y-79449501D01*
X172253118Y-79394987D01*
X172262689Y-79334555D01*
X172305954Y-79291290D01*
X172350899Y-79280500D01*
X173650407Y-79280500D01*
X173708598Y-79299407D01*
X173741871Y-79341613D01*
X173753824Y-79370470D01*
X173862828Y-79533608D01*
X173868788Y-79542527D01*
X174015110Y-79688849D01*
X174187167Y-79803813D01*
X174378345Y-79883002D01*
X174581300Y-79923372D01*
X174581301Y-79923372D01*
X174788229Y-79923372D01*
X174788230Y-79923372D01*
X174991185Y-79883002D01*
X175182363Y-79803813D01*
X175354420Y-79688849D01*
X175500742Y-79542527D01*
X175615706Y-79370470D01*
X175694895Y-79179292D01*
X175735265Y-78976337D01*
X175735265Y-78769407D01*
X175694895Y-78566452D01*
X175615706Y-78375274D01*
X175500742Y-78203217D01*
X175354420Y-78056895D01*
X175341829Y-78048482D01*
X175182362Y-77941930D01*
X174991183Y-77862741D01*
X174788232Y-77822372D01*
X174788230Y-77822372D01*
X174581300Y-77822372D01*
X174581297Y-77822372D01*
X174378346Y-77862741D01*
X174187167Y-77941930D01*
X174015113Y-78056892D01*
X173868785Y-78203220D01*
X173753823Y-78375274D01*
X173674636Y-78566448D01*
X173674634Y-78566454D01*
X173667999Y-78599814D01*
X173638102Y-78653198D01*
X173582537Y-78678814D01*
X173570901Y-78679500D01*
X172484809Y-78679500D01*
X172426618Y-78660593D01*
X172390654Y-78611093D01*
X172387028Y-78565013D01*
X172391434Y-78537189D01*
X172395500Y-78511519D01*
X172395499Y-78048482D01*
X172389445Y-78010253D01*
X172380647Y-77954700D01*
X172380646Y-77954698D01*
X172380646Y-77954696D01*
X172323050Y-77841658D01*
X172233342Y-77751950D01*
X172120304Y-77694354D01*
X172120305Y-77694354D01*
X172026522Y-77679500D01*
X172026519Y-77679500D01*
X171605479Y-77679500D01*
X171547288Y-77660593D01*
X171535475Y-77650504D01*
X169348096Y-75463125D01*
X173634265Y-75463125D01*
X173634265Y-77202618D01*
X173634266Y-77202630D01*
X173645897Y-77261099D01*
X173645899Y-77261105D01*
X173678004Y-77309152D01*
X173690213Y-77327424D01*
X173756534Y-77371739D01*
X173800996Y-77380583D01*
X173815006Y-77383370D01*
X173815011Y-77383370D01*
X173815017Y-77383372D01*
X173815018Y-77383372D01*
X175554512Y-77383372D01*
X175554513Y-77383372D01*
X175612996Y-77371739D01*
X175679317Y-77327424D01*
X175723632Y-77261103D01*
X175735265Y-77202620D01*
X175735265Y-75463124D01*
X175723632Y-75404641D01*
X175679317Y-75338320D01*
X175622453Y-75300324D01*
X175612998Y-75294006D01*
X175612996Y-75294005D01*
X175612993Y-75294004D01*
X175612992Y-75294004D01*
X175554523Y-75282373D01*
X175554513Y-75282372D01*
X173815017Y-75282372D01*
X173815016Y-75282372D01*
X173815006Y-75282373D01*
X173756537Y-75294004D01*
X173756531Y-75294006D01*
X173690216Y-75338317D01*
X173690210Y-75338323D01*
X173645899Y-75404638D01*
X173645897Y-75404644D01*
X173634266Y-75463113D01*
X173634265Y-75463125D01*
X169348096Y-75463125D01*
X168619496Y-74734525D01*
X168591719Y-74680008D01*
X168590500Y-74664521D01*
X168590500Y-73910253D01*
X168590498Y-73910241D01*
X168587711Y-73896231D01*
X168578867Y-73851769D01*
X168534552Y-73785448D01*
X168534548Y-73785445D01*
X168468233Y-73741134D01*
X168468231Y-73741133D01*
X168468228Y-73741132D01*
X168468227Y-73741132D01*
X168409758Y-73729501D01*
X168409748Y-73729500D01*
X168409747Y-73729500D01*
X168289500Y-73729500D01*
X168231309Y-73710593D01*
X168195345Y-73661093D01*
X168190500Y-73630500D01*
X168190500Y-73525131D01*
X168209407Y-73466940D01*
X168237314Y-73442743D01*
X168236913Y-73442199D01*
X168308500Y-73389364D01*
X168352150Y-73357150D01*
X168432793Y-73247882D01*
X168477646Y-73119699D01*
X168480499Y-73089273D01*
X168480500Y-73089273D01*
X168480500Y-72030727D01*
X168480499Y-72030725D01*
X168477646Y-72000301D01*
X168432793Y-71872118D01*
X168415627Y-71848859D01*
X168352154Y-71762855D01*
X168352152Y-71762853D01*
X168352150Y-71762850D01*
X168352146Y-71762847D01*
X168352144Y-71762845D01*
X168242885Y-71682208D01*
X168240753Y-71681462D01*
X168216409Y-71672943D01*
X168167730Y-71635879D01*
X168150133Y-71577279D01*
X168170341Y-71519527D01*
X168220636Y-71484683D01*
X168249108Y-71480500D01*
X174550024Y-71480500D01*
X174557085Y-71480751D01*
G37*
%TD.AperFunction*%
%TA.AperFunction,Conductor*%
G36*
X168897441Y-91789407D02*
G01*
X168933405Y-91838907D01*
X168938250Y-91869510D01*
X168938248Y-91886825D01*
X169333633Y-92282210D01*
X169302993Y-92299901D01*
X169209901Y-92392993D01*
X169192210Y-92423633D01*
X168796825Y-92028248D01*
X168794410Y-92030665D01*
X168679505Y-92202630D01*
X168679501Y-92202639D01*
X168600349Y-92393727D01*
X168560000Y-92596581D01*
X168560000Y-92803418D01*
X168600349Y-93006272D01*
X168679501Y-93197360D01*
X168679508Y-93197374D01*
X168794405Y-93369329D01*
X168796826Y-93371750D01*
X169192210Y-92976365D01*
X169209901Y-93007007D01*
X169302993Y-93100099D01*
X169333632Y-93117788D01*
X168938248Y-93513174D01*
X168938248Y-93515748D01*
X168963349Y-93565013D01*
X168953778Y-93625445D01*
X168910513Y-93668710D01*
X168865568Y-93679500D01*
X167815139Y-93679500D01*
X167756948Y-93660593D01*
X167720984Y-93611093D01*
X167720984Y-93549907D01*
X167745133Y-93510498D01*
X167885977Y-93369655D01*
X168000941Y-93197598D01*
X168080130Y-93006420D01*
X168120500Y-92803465D01*
X168120500Y-92596535D01*
X168080130Y-92393580D01*
X168000941Y-92202402D01*
X167885977Y-92030345D01*
X167795133Y-91939501D01*
X167767358Y-91884987D01*
X167776929Y-91824555D01*
X167820194Y-91781290D01*
X167865139Y-91770500D01*
X168839250Y-91770500D01*
X168897441Y-91789407D01*
G37*
%TD.AperFunction*%
%TD*%
M02*
