M48
; DRILL file KiCad 10.99.0-unknown-ab00e101b5~187~ubuntu24.04.1 date 2026-07-12T23:54:57
; FORMAT={-:-/ absolute / metric / decimal}
; #@! TF.CreationDate,2026-07-12T23:54:57-04:00
; #@! TF.GenerationSoftware,Kicad,Pcbnew,10.99.0-unknown-ab00e101b5~187~ubuntu24.04.1
; #@! TF.FileFunction,Plated,1,2,PTH
FMAT,2
METRIC
; #@! TA.AperFunction,Plated,PTH,ViaDrill
T1C0.300
; #@! TA.AperFunction,Plated,PTH,ComponentDrill
T2C0.600
; #@! TA.AperFunction,Plated,PTH,ComponentDrill
T3C1.000
%
G90
G05
T1
X151.63Y-82.02
X152.13Y-79.785
X154.79Y-93.27
X156.0Y-93.2
X160.83Y-93.3
X160.93Y-77.66
X160.97Y-87.94
X161.36Y-78.38
X161.75Y-76.52
X161.898Y-84.028
X162.123Y-86.913
X163.242Y-85.372
X163.51Y-79.58
X163.65Y-80.44
X164.21Y-86.02
X164.71Y-78.98
X165.42Y-92.7
X165.8Y-89.08
X166.76Y-88.35
X167.57Y-99.57
X168.87Y-89.75
X169.32Y-80.42
X170.64Y-80.0
X170.8Y-78.86
X170.985Y-82.19
X171.01Y-84.86
X171.61Y-88.74
X171.64Y-89.95
X171.7Y-86.28
X171.72Y-78.26
X171.72Y-79.93
X171.98Y-82.12
T3
X142.09Y-76.22
X142.09Y-78.76
X142.09Y-81.3
X142.09Y-83.84
X142.09Y-86.38
X142.09Y-88.92
X142.09Y-91.46
X142.09Y-94.0
X142.09Y-96.54
X142.09Y-99.08
X142.09Y-101.62
X142.09Y-104.16
X167.07Y-92.7
X167.07Y-95.24
X167.07Y-97.78
X169.61Y-92.7
X169.61Y-95.24
X169.61Y-97.78
X174.685Y-76.333
X174.685Y-78.873
X174.685Y-81.413
X174.685Y-83.953
X174.685Y-86.493
X174.685Y-89.033
X174.685Y-91.573
X174.685Y-94.113
X174.685Y-96.653
X174.685Y-99.193
X174.685Y-101.733
X174.685Y-104.273
T2
G00X149.93Y-101.685
M15
G01X149.93Y-102.785
M16
G05
G00X149.93Y-106.015
M15
G01X149.93Y-106.815
M16
G05
G00X158.57Y-101.685
M15
G01X158.57Y-102.785
M16
G05
G00X158.57Y-106.015
M15
G01X158.57Y-106.815
M16
G05
M30
