%TF.GenerationSoftware,KiCad,Pcbnew,10.99.0-unknown-ab00e101b5~187~ubuntu24.04.1*%
%TF.CreationDate,2026-07-12T23:55:04-04:00*%
%TF.ProjectId,STM32Dev,53544d33-3244-4657-962e-6b696361645f,rev?*%
%TF.SameCoordinates,Original*%
%TF.FileFunction,Legend,Top*%
%TF.FilePolarity,Positive*%
%FSLAX46Y46*%
G04 Gerber Fmt 4.6, Leading zero omitted, Abs format (unit mm)*
G04 Created by KiCad (PCBNEW 10.99.0-unknown-ab00e101b5~187~ubuntu24.04.1) date 2026-07-12 23:55:04*
%MOMM*%
%LPD*%
G01*
G04 APERTURE LIST*
%ADD10C,0.150000*%
%ADD11C,0.120000*%
G04 APERTURE END LIST*
D10*
X150934819Y-99704404D02*
X151744342Y-99704404D01*
X151744342Y-99704404D02*
X151839580Y-99656785D01*
X151839580Y-99656785D02*
X151887200Y-99609166D01*
X151887200Y-99609166D02*
X151934819Y-99513928D01*
X151934819Y-99513928D02*
X151934819Y-99323452D01*
X151934819Y-99323452D02*
X151887200Y-99228214D01*
X151887200Y-99228214D02*
X151839580Y-99180595D01*
X151839580Y-99180595D02*
X151744342Y-99132976D01*
X151744342Y-99132976D02*
X150934819Y-99132976D01*
X150934819Y-98752023D02*
X150934819Y-98132976D01*
X150934819Y-98132976D02*
X151315771Y-98466309D01*
X151315771Y-98466309D02*
X151315771Y-98323452D01*
X151315771Y-98323452D02*
X151363390Y-98228214D01*
X151363390Y-98228214D02*
X151411009Y-98180595D01*
X151411009Y-98180595D02*
X151506247Y-98132976D01*
X151506247Y-98132976D02*
X151744342Y-98132976D01*
X151744342Y-98132976D02*
X151839580Y-98180595D01*
X151839580Y-98180595D02*
X151887200Y-98228214D01*
X151887200Y-98228214D02*
X151934819Y-98323452D01*
X151934819Y-98323452D02*
X151934819Y-98609166D01*
X151934819Y-98609166D02*
X151887200Y-98704404D01*
X151887200Y-98704404D02*
X151839580Y-98752023D01*
X170463333Y-90119580D02*
X170415714Y-90167200D01*
X170415714Y-90167200D02*
X170272857Y-90214819D01*
X170272857Y-90214819D02*
X170177619Y-90214819D01*
X170177619Y-90214819D02*
X170034762Y-90167200D01*
X170034762Y-90167200D02*
X169939524Y-90071961D01*
X169939524Y-90071961D02*
X169891905Y-89976723D01*
X169891905Y-89976723D02*
X169844286Y-89786247D01*
X169844286Y-89786247D02*
X169844286Y-89643390D01*
X169844286Y-89643390D02*
X169891905Y-89452914D01*
X169891905Y-89452914D02*
X169939524Y-89357676D01*
X169939524Y-89357676D02*
X170034762Y-89262438D01*
X170034762Y-89262438D02*
X170177619Y-89214819D01*
X170177619Y-89214819D02*
X170272857Y-89214819D01*
X170272857Y-89214819D02*
X170415714Y-89262438D01*
X170415714Y-89262438D02*
X170463333Y-89310057D01*
X170844286Y-89310057D02*
X170891905Y-89262438D01*
X170891905Y-89262438D02*
X170987143Y-89214819D01*
X170987143Y-89214819D02*
X171225238Y-89214819D01*
X171225238Y-89214819D02*
X171320476Y-89262438D01*
X171320476Y-89262438D02*
X171368095Y-89310057D01*
X171368095Y-89310057D02*
X171415714Y-89405295D01*
X171415714Y-89405295D02*
X171415714Y-89500533D01*
X171415714Y-89500533D02*
X171368095Y-89643390D01*
X171368095Y-89643390D02*
X170796667Y-90214819D01*
X170796667Y-90214819D02*
X171415714Y-90214819D01*
X164309580Y-73642857D02*
X164357200Y-73690476D01*
X164357200Y-73690476D02*
X164404819Y-73833333D01*
X164404819Y-73833333D02*
X164404819Y-73928571D01*
X164404819Y-73928571D02*
X164357200Y-74071428D01*
X164357200Y-74071428D02*
X164261961Y-74166666D01*
X164261961Y-74166666D02*
X164166723Y-74214285D01*
X164166723Y-74214285D02*
X163976247Y-74261904D01*
X163976247Y-74261904D02*
X163833390Y-74261904D01*
X163833390Y-74261904D02*
X163642914Y-74214285D01*
X163642914Y-74214285D02*
X163547676Y-74166666D01*
X163547676Y-74166666D02*
X163452438Y-74071428D01*
X163452438Y-74071428D02*
X163404819Y-73928571D01*
X163404819Y-73928571D02*
X163404819Y-73833333D01*
X163404819Y-73833333D02*
X163452438Y-73690476D01*
X163452438Y-73690476D02*
X163500057Y-73642857D01*
X164404819Y-72690476D02*
X164404819Y-73261904D01*
X164404819Y-72976190D02*
X163404819Y-72976190D01*
X163404819Y-72976190D02*
X163547676Y-73071428D01*
X163547676Y-73071428D02*
X163642914Y-73166666D01*
X163642914Y-73166666D02*
X163690533Y-73261904D01*
X163500057Y-72309523D02*
X163452438Y-72261904D01*
X163452438Y-72261904D02*
X163404819Y-72166666D01*
X163404819Y-72166666D02*
X163404819Y-71928571D01*
X163404819Y-71928571D02*
X163452438Y-71833333D01*
X163452438Y-71833333D02*
X163500057Y-71785714D01*
X163500057Y-71785714D02*
X163595295Y-71738095D01*
X163595295Y-71738095D02*
X163690533Y-71738095D01*
X163690533Y-71738095D02*
X163833390Y-71785714D01*
X163833390Y-71785714D02*
X164404819Y-72357142D01*
X164404819Y-72357142D02*
X164404819Y-71738095D01*
X169137200Y-77803332D02*
X169184819Y-77660475D01*
X169184819Y-77660475D02*
X169184819Y-77422380D01*
X169184819Y-77422380D02*
X169137200Y-77327142D01*
X169137200Y-77327142D02*
X169089580Y-77279523D01*
X169089580Y-77279523D02*
X168994342Y-77231904D01*
X168994342Y-77231904D02*
X168899104Y-77231904D01*
X168899104Y-77231904D02*
X168803866Y-77279523D01*
X168803866Y-77279523D02*
X168756247Y-77327142D01*
X168756247Y-77327142D02*
X168708628Y-77422380D01*
X168708628Y-77422380D02*
X168661009Y-77612856D01*
X168661009Y-77612856D02*
X168613390Y-77708094D01*
X168613390Y-77708094D02*
X168565771Y-77755713D01*
X168565771Y-77755713D02*
X168470533Y-77803332D01*
X168470533Y-77803332D02*
X168375295Y-77803332D01*
X168375295Y-77803332D02*
X168280057Y-77755713D01*
X168280057Y-77755713D02*
X168232438Y-77708094D01*
X168232438Y-77708094D02*
X168184819Y-77612856D01*
X168184819Y-77612856D02*
X168184819Y-77374761D01*
X168184819Y-77374761D02*
X168232438Y-77231904D01*
X168184819Y-76898570D02*
X169184819Y-76660475D01*
X169184819Y-76660475D02*
X168470533Y-76469999D01*
X168470533Y-76469999D02*
X169184819Y-76279523D01*
X169184819Y-76279523D02*
X168184819Y-76041428D01*
X169184819Y-75136666D02*
X169184819Y-75708094D01*
X169184819Y-75422380D02*
X168184819Y-75422380D01*
X168184819Y-75422380D02*
X168327676Y-75517618D01*
X168327676Y-75517618D02*
X168422914Y-75612856D01*
X168422914Y-75612856D02*
X168470533Y-75708094D01*
X172274819Y-76866666D02*
X171798628Y-77199999D01*
X172274819Y-77438094D02*
X171274819Y-77438094D01*
X171274819Y-77438094D02*
X171274819Y-77057142D01*
X171274819Y-77057142D02*
X171322438Y-76961904D01*
X171322438Y-76961904D02*
X171370057Y-76914285D01*
X171370057Y-76914285D02*
X171465295Y-76866666D01*
X171465295Y-76866666D02*
X171608152Y-76866666D01*
X171608152Y-76866666D02*
X171703390Y-76914285D01*
X171703390Y-76914285D02*
X171751009Y-76961904D01*
X171751009Y-76961904D02*
X171798628Y-77057142D01*
X171798628Y-77057142D02*
X171798628Y-77438094D01*
X171274819Y-76009523D02*
X171274819Y-76199999D01*
X171274819Y-76199999D02*
X171322438Y-76295237D01*
X171322438Y-76295237D02*
X171370057Y-76342856D01*
X171370057Y-76342856D02*
X171512914Y-76438094D01*
X171512914Y-76438094D02*
X171703390Y-76485713D01*
X171703390Y-76485713D02*
X172084342Y-76485713D01*
X172084342Y-76485713D02*
X172179580Y-76438094D01*
X172179580Y-76438094D02*
X172227200Y-76390475D01*
X172227200Y-76390475D02*
X172274819Y-76295237D01*
X172274819Y-76295237D02*
X172274819Y-76104761D01*
X172274819Y-76104761D02*
X172227200Y-76009523D01*
X172227200Y-76009523D02*
X172179580Y-75961904D01*
X172179580Y-75961904D02*
X172084342Y-75914285D01*
X172084342Y-75914285D02*
X171846247Y-75914285D01*
X171846247Y-75914285D02*
X171751009Y-75961904D01*
X171751009Y-75961904D02*
X171703390Y-76009523D01*
X171703390Y-76009523D02*
X171655771Y-76104761D01*
X171655771Y-76104761D02*
X171655771Y-76295237D01*
X171655771Y-76295237D02*
X171703390Y-76390475D01*
X171703390Y-76390475D02*
X171751009Y-76438094D01*
X171751009Y-76438094D02*
X171846247Y-76485713D01*
X157470691Y-85649315D02*
X158043111Y-86221735D01*
X158043111Y-86221735D02*
X158144126Y-86255407D01*
X158144126Y-86255407D02*
X158211470Y-86255407D01*
X158211470Y-86255407D02*
X158312485Y-86221735D01*
X158312485Y-86221735D02*
X158447172Y-86087048D01*
X158447172Y-86087048D02*
X158480844Y-85986033D01*
X158480844Y-85986033D02*
X158480844Y-85918689D01*
X158480844Y-85918689D02*
X158447172Y-85817674D01*
X158447172Y-85817674D02*
X157874752Y-85245254D01*
X158750218Y-84841193D02*
X159221622Y-85312598D01*
X158312485Y-84740178D02*
X158649203Y-85413613D01*
X158649203Y-85413613D02*
X159086935Y-84975880D01*
X163508095Y-103864819D02*
X163508095Y-104674342D01*
X163508095Y-104674342D02*
X163555714Y-104769580D01*
X163555714Y-104769580D02*
X163603333Y-104817200D01*
X163603333Y-104817200D02*
X163698571Y-104864819D01*
X163698571Y-104864819D02*
X163889047Y-104864819D01*
X163889047Y-104864819D02*
X163984285Y-104817200D01*
X163984285Y-104817200D02*
X164031904Y-104769580D01*
X164031904Y-104769580D02*
X164079523Y-104674342D01*
X164079523Y-104674342D02*
X164079523Y-103864819D01*
X164508095Y-103960057D02*
X164555714Y-103912438D01*
X164555714Y-103912438D02*
X164650952Y-103864819D01*
X164650952Y-103864819D02*
X164889047Y-103864819D01*
X164889047Y-103864819D02*
X164984285Y-103912438D01*
X164984285Y-103912438D02*
X165031904Y-103960057D01*
X165031904Y-103960057D02*
X165079523Y-104055295D01*
X165079523Y-104055295D02*
X165079523Y-104150533D01*
X165079523Y-104150533D02*
X165031904Y-104293390D01*
X165031904Y-104293390D02*
X164460476Y-104864819D01*
X164460476Y-104864819D02*
X165079523Y-104864819D01*
X160139580Y-72726666D02*
X160187200Y-72774285D01*
X160187200Y-72774285D02*
X160234819Y-72917142D01*
X160234819Y-72917142D02*
X160234819Y-73012380D01*
X160234819Y-73012380D02*
X160187200Y-73155237D01*
X160187200Y-73155237D02*
X160091961Y-73250475D01*
X160091961Y-73250475D02*
X159996723Y-73298094D01*
X159996723Y-73298094D02*
X159806247Y-73345713D01*
X159806247Y-73345713D02*
X159663390Y-73345713D01*
X159663390Y-73345713D02*
X159472914Y-73298094D01*
X159472914Y-73298094D02*
X159377676Y-73250475D01*
X159377676Y-73250475D02*
X159282438Y-73155237D01*
X159282438Y-73155237D02*
X159234819Y-73012380D01*
X159234819Y-73012380D02*
X159234819Y-72917142D01*
X159234819Y-72917142D02*
X159282438Y-72774285D01*
X159282438Y-72774285D02*
X159330057Y-72726666D01*
X159663390Y-72155237D02*
X159615771Y-72250475D01*
X159615771Y-72250475D02*
X159568152Y-72298094D01*
X159568152Y-72298094D02*
X159472914Y-72345713D01*
X159472914Y-72345713D02*
X159425295Y-72345713D01*
X159425295Y-72345713D02*
X159330057Y-72298094D01*
X159330057Y-72298094D02*
X159282438Y-72250475D01*
X159282438Y-72250475D02*
X159234819Y-72155237D01*
X159234819Y-72155237D02*
X159234819Y-71964761D01*
X159234819Y-71964761D02*
X159282438Y-71869523D01*
X159282438Y-71869523D02*
X159330057Y-71821904D01*
X159330057Y-71821904D02*
X159425295Y-71774285D01*
X159425295Y-71774285D02*
X159472914Y-71774285D01*
X159472914Y-71774285D02*
X159568152Y-71821904D01*
X159568152Y-71821904D02*
X159615771Y-71869523D01*
X159615771Y-71869523D02*
X159663390Y-71964761D01*
X159663390Y-71964761D02*
X159663390Y-72155237D01*
X159663390Y-72155237D02*
X159711009Y-72250475D01*
X159711009Y-72250475D02*
X159758628Y-72298094D01*
X159758628Y-72298094D02*
X159853866Y-72345713D01*
X159853866Y-72345713D02*
X160044342Y-72345713D01*
X160044342Y-72345713D02*
X160139580Y-72298094D01*
X160139580Y-72298094D02*
X160187200Y-72250475D01*
X160187200Y-72250475D02*
X160234819Y-72155237D01*
X160234819Y-72155237D02*
X160234819Y-71964761D01*
X160234819Y-71964761D02*
X160187200Y-71869523D01*
X160187200Y-71869523D02*
X160139580Y-71821904D01*
X160139580Y-71821904D02*
X160044342Y-71774285D01*
X160044342Y-71774285D02*
X159853866Y-71774285D01*
X159853866Y-71774285D02*
X159758628Y-71821904D01*
X159758628Y-71821904D02*
X159711009Y-71869523D01*
X159711009Y-71869523D02*
X159663390Y-71964761D01*
X164234819Y-95453333D02*
X164949104Y-95453333D01*
X164949104Y-95453333D02*
X165091961Y-95500952D01*
X165091961Y-95500952D02*
X165187200Y-95596190D01*
X165187200Y-95596190D02*
X165234819Y-95739047D01*
X165234819Y-95739047D02*
X165234819Y-95834285D01*
X165234819Y-94453333D02*
X165234819Y-95024761D01*
X165234819Y-94739047D02*
X164234819Y-94739047D01*
X164234819Y-94739047D02*
X164377676Y-94834285D01*
X164377676Y-94834285D02*
X164472914Y-94929523D01*
X164472914Y-94929523D02*
X164520533Y-95024761D01*
X152774819Y-96346666D02*
X152298628Y-96679999D01*
X152774819Y-96918094D02*
X151774819Y-96918094D01*
X151774819Y-96918094D02*
X151774819Y-96537142D01*
X151774819Y-96537142D02*
X151822438Y-96441904D01*
X151822438Y-96441904D02*
X151870057Y-96394285D01*
X151870057Y-96394285D02*
X151965295Y-96346666D01*
X151965295Y-96346666D02*
X152108152Y-96346666D01*
X152108152Y-96346666D02*
X152203390Y-96394285D01*
X152203390Y-96394285D02*
X152251009Y-96441904D01*
X152251009Y-96441904D02*
X152298628Y-96537142D01*
X152298628Y-96537142D02*
X152298628Y-96918094D01*
X151870057Y-95965713D02*
X151822438Y-95918094D01*
X151822438Y-95918094D02*
X151774819Y-95822856D01*
X151774819Y-95822856D02*
X151774819Y-95584761D01*
X151774819Y-95584761D02*
X151822438Y-95489523D01*
X151822438Y-95489523D02*
X151870057Y-95441904D01*
X151870057Y-95441904D02*
X151965295Y-95394285D01*
X151965295Y-95394285D02*
X152060533Y-95394285D01*
X152060533Y-95394285D02*
X152203390Y-95441904D01*
X152203390Y-95441904D02*
X152774819Y-96013332D01*
X152774819Y-96013332D02*
X152774819Y-95394285D01*
X162277142Y-97619580D02*
X162229523Y-97667200D01*
X162229523Y-97667200D02*
X162086666Y-97714819D01*
X162086666Y-97714819D02*
X161991428Y-97714819D01*
X161991428Y-97714819D02*
X161848571Y-97667200D01*
X161848571Y-97667200D02*
X161753333Y-97571961D01*
X161753333Y-97571961D02*
X161705714Y-97476723D01*
X161705714Y-97476723D02*
X161658095Y-97286247D01*
X161658095Y-97286247D02*
X161658095Y-97143390D01*
X161658095Y-97143390D02*
X161705714Y-96952914D01*
X161705714Y-96952914D02*
X161753333Y-96857676D01*
X161753333Y-96857676D02*
X161848571Y-96762438D01*
X161848571Y-96762438D02*
X161991428Y-96714819D01*
X161991428Y-96714819D02*
X162086666Y-96714819D01*
X162086666Y-96714819D02*
X162229523Y-96762438D01*
X162229523Y-96762438D02*
X162277142Y-96810057D01*
X163229523Y-97714819D02*
X162658095Y-97714819D01*
X162943809Y-97714819D02*
X162943809Y-96714819D01*
X162943809Y-96714819D02*
X162848571Y-96857676D01*
X162848571Y-96857676D02*
X162753333Y-96952914D01*
X162753333Y-96952914D02*
X162658095Y-97000533D01*
X163800952Y-97143390D02*
X163705714Y-97095771D01*
X163705714Y-97095771D02*
X163658095Y-97048152D01*
X163658095Y-97048152D02*
X163610476Y-96952914D01*
X163610476Y-96952914D02*
X163610476Y-96905295D01*
X163610476Y-96905295D02*
X163658095Y-96810057D01*
X163658095Y-96810057D02*
X163705714Y-96762438D01*
X163705714Y-96762438D02*
X163800952Y-96714819D01*
X163800952Y-96714819D02*
X163991428Y-96714819D01*
X163991428Y-96714819D02*
X164086666Y-96762438D01*
X164086666Y-96762438D02*
X164134285Y-96810057D01*
X164134285Y-96810057D02*
X164181904Y-96905295D01*
X164181904Y-96905295D02*
X164181904Y-96952914D01*
X164181904Y-96952914D02*
X164134285Y-97048152D01*
X164134285Y-97048152D02*
X164086666Y-97095771D01*
X164086666Y-97095771D02*
X163991428Y-97143390D01*
X163991428Y-97143390D02*
X163800952Y-97143390D01*
X163800952Y-97143390D02*
X163705714Y-97191009D01*
X163705714Y-97191009D02*
X163658095Y-97238628D01*
X163658095Y-97238628D02*
X163610476Y-97333866D01*
X163610476Y-97333866D02*
X163610476Y-97524342D01*
X163610476Y-97524342D02*
X163658095Y-97619580D01*
X163658095Y-97619580D02*
X163705714Y-97667200D01*
X163705714Y-97667200D02*
X163800952Y-97714819D01*
X163800952Y-97714819D02*
X163991428Y-97714819D01*
X163991428Y-97714819D02*
X164086666Y-97667200D01*
X164086666Y-97667200D02*
X164134285Y-97619580D01*
X164134285Y-97619580D02*
X164181904Y-97524342D01*
X164181904Y-97524342D02*
X164181904Y-97333866D01*
X164181904Y-97333866D02*
X164134285Y-97238628D01*
X164134285Y-97238628D02*
X164086666Y-97191009D01*
X164086666Y-97191009D02*
X163991428Y-97143390D01*
X153916666Y-104794819D02*
X153916666Y-105509104D01*
X153916666Y-105509104D02*
X153869047Y-105651961D01*
X153869047Y-105651961D02*
X153773809Y-105747200D01*
X153773809Y-105747200D02*
X153630952Y-105794819D01*
X153630952Y-105794819D02*
X153535714Y-105794819D01*
X154297619Y-104794819D02*
X154916666Y-104794819D01*
X154916666Y-104794819D02*
X154583333Y-105175771D01*
X154583333Y-105175771D02*
X154726190Y-105175771D01*
X154726190Y-105175771D02*
X154821428Y-105223390D01*
X154821428Y-105223390D02*
X154869047Y-105271009D01*
X154869047Y-105271009D02*
X154916666Y-105366247D01*
X154916666Y-105366247D02*
X154916666Y-105604342D01*
X154916666Y-105604342D02*
X154869047Y-105699580D01*
X154869047Y-105699580D02*
X154821428Y-105747200D01*
X154821428Y-105747200D02*
X154726190Y-105794819D01*
X154726190Y-105794819D02*
X154440476Y-105794819D01*
X154440476Y-105794819D02*
X154345238Y-105747200D01*
X154345238Y-105747200D02*
X154297619Y-105699580D01*
X164408170Y-79891605D02*
X164744888Y-80228323D01*
X163802079Y-79756918D02*
X164408170Y-79891605D01*
X164408170Y-79891605D02*
X164273483Y-79285514D01*
X165586681Y-79386529D02*
X165182620Y-79790590D01*
X165384651Y-79588559D02*
X164677544Y-78881453D01*
X164677544Y-78881453D02*
X164711216Y-79049811D01*
X164711216Y-79049811D02*
X164711216Y-79184498D01*
X164711216Y-79184498D02*
X164677544Y-79285514D01*
X155924819Y-96456666D02*
X155448628Y-96789999D01*
X155924819Y-97028094D02*
X154924819Y-97028094D01*
X154924819Y-97028094D02*
X154924819Y-96647142D01*
X154924819Y-96647142D02*
X154972438Y-96551904D01*
X154972438Y-96551904D02*
X155020057Y-96504285D01*
X155020057Y-96504285D02*
X155115295Y-96456666D01*
X155115295Y-96456666D02*
X155258152Y-96456666D01*
X155258152Y-96456666D02*
X155353390Y-96504285D01*
X155353390Y-96504285D02*
X155401009Y-96551904D01*
X155401009Y-96551904D02*
X155448628Y-96647142D01*
X155448628Y-96647142D02*
X155448628Y-97028094D01*
X155924819Y-95504285D02*
X155924819Y-96075713D01*
X155924819Y-95789999D02*
X154924819Y-95789999D01*
X154924819Y-95789999D02*
X155067676Y-95885237D01*
X155067676Y-95885237D02*
X155162914Y-95980475D01*
X155162914Y-95980475D02*
X155210533Y-96075713D01*
X150619580Y-76332857D02*
X150667200Y-76380476D01*
X150667200Y-76380476D02*
X150714819Y-76523333D01*
X150714819Y-76523333D02*
X150714819Y-76618571D01*
X150714819Y-76618571D02*
X150667200Y-76761428D01*
X150667200Y-76761428D02*
X150571961Y-76856666D01*
X150571961Y-76856666D02*
X150476723Y-76904285D01*
X150476723Y-76904285D02*
X150286247Y-76951904D01*
X150286247Y-76951904D02*
X150143390Y-76951904D01*
X150143390Y-76951904D02*
X149952914Y-76904285D01*
X149952914Y-76904285D02*
X149857676Y-76856666D01*
X149857676Y-76856666D02*
X149762438Y-76761428D01*
X149762438Y-76761428D02*
X149714819Y-76618571D01*
X149714819Y-76618571D02*
X149714819Y-76523333D01*
X149714819Y-76523333D02*
X149762438Y-76380476D01*
X149762438Y-76380476D02*
X149810057Y-76332857D01*
X150714819Y-75380476D02*
X150714819Y-75951904D01*
X150714819Y-75666190D02*
X149714819Y-75666190D01*
X149714819Y-75666190D02*
X149857676Y-75761428D01*
X149857676Y-75761428D02*
X149952914Y-75856666D01*
X149952914Y-75856666D02*
X150000533Y-75951904D01*
X149714819Y-75047142D02*
X149714819Y-74428095D01*
X149714819Y-74428095D02*
X150095771Y-74761428D01*
X150095771Y-74761428D02*
X150095771Y-74618571D01*
X150095771Y-74618571D02*
X150143390Y-74523333D01*
X150143390Y-74523333D02*
X150191009Y-74475714D01*
X150191009Y-74475714D02*
X150286247Y-74428095D01*
X150286247Y-74428095D02*
X150524342Y-74428095D01*
X150524342Y-74428095D02*
X150619580Y-74475714D01*
X150619580Y-74475714D02*
X150667200Y-74523333D01*
X150667200Y-74523333D02*
X150714819Y-74618571D01*
X150714819Y-74618571D02*
X150714819Y-74904285D01*
X150714819Y-74904285D02*
X150667200Y-74999523D01*
X150667200Y-74999523D02*
X150619580Y-75047142D01*
X169427200Y-87283332D02*
X169474819Y-87140475D01*
X169474819Y-87140475D02*
X169474819Y-86902380D01*
X169474819Y-86902380D02*
X169427200Y-86807142D01*
X169427200Y-86807142D02*
X169379580Y-86759523D01*
X169379580Y-86759523D02*
X169284342Y-86711904D01*
X169284342Y-86711904D02*
X169189104Y-86711904D01*
X169189104Y-86711904D02*
X169093866Y-86759523D01*
X169093866Y-86759523D02*
X169046247Y-86807142D01*
X169046247Y-86807142D02*
X168998628Y-86902380D01*
X168998628Y-86902380D02*
X168951009Y-87092856D01*
X168951009Y-87092856D02*
X168903390Y-87188094D01*
X168903390Y-87188094D02*
X168855771Y-87235713D01*
X168855771Y-87235713D02*
X168760533Y-87283332D01*
X168760533Y-87283332D02*
X168665295Y-87283332D01*
X168665295Y-87283332D02*
X168570057Y-87235713D01*
X168570057Y-87235713D02*
X168522438Y-87188094D01*
X168522438Y-87188094D02*
X168474819Y-87092856D01*
X168474819Y-87092856D02*
X168474819Y-86854761D01*
X168474819Y-86854761D02*
X168522438Y-86711904D01*
X168474819Y-86378570D02*
X169474819Y-86140475D01*
X169474819Y-86140475D02*
X168760533Y-85949999D01*
X168760533Y-85949999D02*
X169474819Y-85759523D01*
X169474819Y-85759523D02*
X168474819Y-85521428D01*
X168570057Y-85188094D02*
X168522438Y-85140475D01*
X168522438Y-85140475D02*
X168474819Y-85045237D01*
X168474819Y-85045237D02*
X168474819Y-84807142D01*
X168474819Y-84807142D02*
X168522438Y-84711904D01*
X168522438Y-84711904D02*
X168570057Y-84664285D01*
X168570057Y-84664285D02*
X168665295Y-84616666D01*
X168665295Y-84616666D02*
X168760533Y-84616666D01*
X168760533Y-84616666D02*
X168903390Y-84664285D01*
X168903390Y-84664285D02*
X169474819Y-85235713D01*
X169474819Y-85235713D02*
X169474819Y-84616666D01*
X171519580Y-72806666D02*
X171567200Y-72854285D01*
X171567200Y-72854285D02*
X171614819Y-72997142D01*
X171614819Y-72997142D02*
X171614819Y-73092380D01*
X171614819Y-73092380D02*
X171567200Y-73235237D01*
X171567200Y-73235237D02*
X171471961Y-73330475D01*
X171471961Y-73330475D02*
X171376723Y-73378094D01*
X171376723Y-73378094D02*
X171186247Y-73425713D01*
X171186247Y-73425713D02*
X171043390Y-73425713D01*
X171043390Y-73425713D02*
X170852914Y-73378094D01*
X170852914Y-73378094D02*
X170757676Y-73330475D01*
X170757676Y-73330475D02*
X170662438Y-73235237D01*
X170662438Y-73235237D02*
X170614819Y-73092380D01*
X170614819Y-73092380D02*
X170614819Y-72997142D01*
X170614819Y-72997142D02*
X170662438Y-72854285D01*
X170662438Y-72854285D02*
X170710057Y-72806666D01*
X171614819Y-71854285D02*
X171614819Y-72425713D01*
X171614819Y-72139999D02*
X170614819Y-72139999D01*
X170614819Y-72139999D02*
X170757676Y-72235237D01*
X170757676Y-72235237D02*
X170852914Y-72330475D01*
X170852914Y-72330475D02*
X170900533Y-72425713D01*
X157899580Y-73076666D02*
X157947200Y-73124285D01*
X157947200Y-73124285D02*
X157994819Y-73267142D01*
X157994819Y-73267142D02*
X157994819Y-73362380D01*
X157994819Y-73362380D02*
X157947200Y-73505237D01*
X157947200Y-73505237D02*
X157851961Y-73600475D01*
X157851961Y-73600475D02*
X157756723Y-73648094D01*
X157756723Y-73648094D02*
X157566247Y-73695713D01*
X157566247Y-73695713D02*
X157423390Y-73695713D01*
X157423390Y-73695713D02*
X157232914Y-73648094D01*
X157232914Y-73648094D02*
X157137676Y-73600475D01*
X157137676Y-73600475D02*
X157042438Y-73505237D01*
X157042438Y-73505237D02*
X156994819Y-73362380D01*
X156994819Y-73362380D02*
X156994819Y-73267142D01*
X156994819Y-73267142D02*
X157042438Y-73124285D01*
X157042438Y-73124285D02*
X157090057Y-73076666D01*
X156994819Y-72743332D02*
X156994819Y-72076666D01*
X156994819Y-72076666D02*
X157994819Y-72505237D01*
X155109580Y-73986666D02*
X155157200Y-74034285D01*
X155157200Y-74034285D02*
X155204819Y-74177142D01*
X155204819Y-74177142D02*
X155204819Y-74272380D01*
X155204819Y-74272380D02*
X155157200Y-74415237D01*
X155157200Y-74415237D02*
X155061961Y-74510475D01*
X155061961Y-74510475D02*
X154966723Y-74558094D01*
X154966723Y-74558094D02*
X154776247Y-74605713D01*
X154776247Y-74605713D02*
X154633390Y-74605713D01*
X154633390Y-74605713D02*
X154442914Y-74558094D01*
X154442914Y-74558094D02*
X154347676Y-74510475D01*
X154347676Y-74510475D02*
X154252438Y-74415237D01*
X154252438Y-74415237D02*
X154204819Y-74272380D01*
X154204819Y-74272380D02*
X154204819Y-74177142D01*
X154204819Y-74177142D02*
X154252438Y-74034285D01*
X154252438Y-74034285D02*
X154300057Y-73986666D01*
X155204819Y-73510475D02*
X155204819Y-73319999D01*
X155204819Y-73319999D02*
X155157200Y-73224761D01*
X155157200Y-73224761D02*
X155109580Y-73177142D01*
X155109580Y-73177142D02*
X154966723Y-73081904D01*
X154966723Y-73081904D02*
X154776247Y-73034285D01*
X154776247Y-73034285D02*
X154395295Y-73034285D01*
X154395295Y-73034285D02*
X154300057Y-73081904D01*
X154300057Y-73081904D02*
X154252438Y-73129523D01*
X154252438Y-73129523D02*
X154204819Y-73224761D01*
X154204819Y-73224761D02*
X154204819Y-73415237D01*
X154204819Y-73415237D02*
X154252438Y-73510475D01*
X154252438Y-73510475D02*
X154300057Y-73558094D01*
X154300057Y-73558094D02*
X154395295Y-73605713D01*
X154395295Y-73605713D02*
X154633390Y-73605713D01*
X154633390Y-73605713D02*
X154728628Y-73558094D01*
X154728628Y-73558094D02*
X154776247Y-73510475D01*
X154776247Y-73510475D02*
X154823866Y-73415237D01*
X154823866Y-73415237D02*
X154823866Y-73224761D01*
X154823866Y-73224761D02*
X154776247Y-73129523D01*
X154776247Y-73129523D02*
X154728628Y-73081904D01*
X154728628Y-73081904D02*
X154633390Y-73034285D01*
X169807142Y-103129580D02*
X169759523Y-103177200D01*
X169759523Y-103177200D02*
X169616666Y-103224819D01*
X169616666Y-103224819D02*
X169521428Y-103224819D01*
X169521428Y-103224819D02*
X169378571Y-103177200D01*
X169378571Y-103177200D02*
X169283333Y-103081961D01*
X169283333Y-103081961D02*
X169235714Y-102986723D01*
X169235714Y-102986723D02*
X169188095Y-102796247D01*
X169188095Y-102796247D02*
X169188095Y-102653390D01*
X169188095Y-102653390D02*
X169235714Y-102462914D01*
X169235714Y-102462914D02*
X169283333Y-102367676D01*
X169283333Y-102367676D02*
X169378571Y-102272438D01*
X169378571Y-102272438D02*
X169521428Y-102224819D01*
X169521428Y-102224819D02*
X169616666Y-102224819D01*
X169616666Y-102224819D02*
X169759523Y-102272438D01*
X169759523Y-102272438D02*
X169807142Y-102320057D01*
X170759523Y-103224819D02*
X170188095Y-103224819D01*
X170473809Y-103224819D02*
X170473809Y-102224819D01*
X170473809Y-102224819D02*
X170378571Y-102367676D01*
X170378571Y-102367676D02*
X170283333Y-102462914D01*
X170283333Y-102462914D02*
X170188095Y-102510533D01*
X171235714Y-103224819D02*
X171426190Y-103224819D01*
X171426190Y-103224819D02*
X171521428Y-103177200D01*
X171521428Y-103177200D02*
X171569047Y-103129580D01*
X171569047Y-103129580D02*
X171664285Y-102986723D01*
X171664285Y-102986723D02*
X171711904Y-102796247D01*
X171711904Y-102796247D02*
X171711904Y-102415295D01*
X171711904Y-102415295D02*
X171664285Y-102320057D01*
X171664285Y-102320057D02*
X171616666Y-102272438D01*
X171616666Y-102272438D02*
X171521428Y-102224819D01*
X171521428Y-102224819D02*
X171330952Y-102224819D01*
X171330952Y-102224819D02*
X171235714Y-102272438D01*
X171235714Y-102272438D02*
X171188095Y-102320057D01*
X171188095Y-102320057D02*
X171140476Y-102415295D01*
X171140476Y-102415295D02*
X171140476Y-102653390D01*
X171140476Y-102653390D02*
X171188095Y-102748628D01*
X171188095Y-102748628D02*
X171235714Y-102796247D01*
X171235714Y-102796247D02*
X171330952Y-102843866D01*
X171330952Y-102843866D02*
X171521428Y-102843866D01*
X171521428Y-102843866D02*
X171616666Y-102796247D01*
X171616666Y-102796247D02*
X171664285Y-102748628D01*
X171664285Y-102748628D02*
X171711904Y-102653390D01*
X152569580Y-74912857D02*
X152617200Y-74960476D01*
X152617200Y-74960476D02*
X152664819Y-75103333D01*
X152664819Y-75103333D02*
X152664819Y-75198571D01*
X152664819Y-75198571D02*
X152617200Y-75341428D01*
X152617200Y-75341428D02*
X152521961Y-75436666D01*
X152521961Y-75436666D02*
X152426723Y-75484285D01*
X152426723Y-75484285D02*
X152236247Y-75531904D01*
X152236247Y-75531904D02*
X152093390Y-75531904D01*
X152093390Y-75531904D02*
X151902914Y-75484285D01*
X151902914Y-75484285D02*
X151807676Y-75436666D01*
X151807676Y-75436666D02*
X151712438Y-75341428D01*
X151712438Y-75341428D02*
X151664819Y-75198571D01*
X151664819Y-75198571D02*
X151664819Y-75103333D01*
X151664819Y-75103333D02*
X151712438Y-74960476D01*
X151712438Y-74960476D02*
X151760057Y-74912857D01*
X152664819Y-73960476D02*
X152664819Y-74531904D01*
X152664819Y-74246190D02*
X151664819Y-74246190D01*
X151664819Y-74246190D02*
X151807676Y-74341428D01*
X151807676Y-74341428D02*
X151902914Y-74436666D01*
X151902914Y-74436666D02*
X151950533Y-74531904D01*
X151998152Y-73103333D02*
X152664819Y-73103333D01*
X151617200Y-73341428D02*
X152331485Y-73579523D01*
X152331485Y-73579523D02*
X152331485Y-72960476D01*
X162119580Y-73132857D02*
X162167200Y-73180476D01*
X162167200Y-73180476D02*
X162214819Y-73323333D01*
X162214819Y-73323333D02*
X162214819Y-73418571D01*
X162214819Y-73418571D02*
X162167200Y-73561428D01*
X162167200Y-73561428D02*
X162071961Y-73656666D01*
X162071961Y-73656666D02*
X161976723Y-73704285D01*
X161976723Y-73704285D02*
X161786247Y-73751904D01*
X161786247Y-73751904D02*
X161643390Y-73751904D01*
X161643390Y-73751904D02*
X161452914Y-73704285D01*
X161452914Y-73704285D02*
X161357676Y-73656666D01*
X161357676Y-73656666D02*
X161262438Y-73561428D01*
X161262438Y-73561428D02*
X161214819Y-73418571D01*
X161214819Y-73418571D02*
X161214819Y-73323333D01*
X161214819Y-73323333D02*
X161262438Y-73180476D01*
X161262438Y-73180476D02*
X161310057Y-73132857D01*
X162214819Y-72180476D02*
X162214819Y-72751904D01*
X162214819Y-72466190D02*
X161214819Y-72466190D01*
X161214819Y-72466190D02*
X161357676Y-72561428D01*
X161357676Y-72561428D02*
X161452914Y-72656666D01*
X161452914Y-72656666D02*
X161500533Y-72751904D01*
X161214819Y-71561428D02*
X161214819Y-71466190D01*
X161214819Y-71466190D02*
X161262438Y-71370952D01*
X161262438Y-71370952D02*
X161310057Y-71323333D01*
X161310057Y-71323333D02*
X161405295Y-71275714D01*
X161405295Y-71275714D02*
X161595771Y-71228095D01*
X161595771Y-71228095D02*
X161833866Y-71228095D01*
X161833866Y-71228095D02*
X162024342Y-71275714D01*
X162024342Y-71275714D02*
X162119580Y-71323333D01*
X162119580Y-71323333D02*
X162167200Y-71370952D01*
X162167200Y-71370952D02*
X162214819Y-71466190D01*
X162214819Y-71466190D02*
X162214819Y-71561428D01*
X162214819Y-71561428D02*
X162167200Y-71656666D01*
X162167200Y-71656666D02*
X162119580Y-71704285D01*
X162119580Y-71704285D02*
X162024342Y-71751904D01*
X162024342Y-71751904D02*
X161833866Y-71799523D01*
X161833866Y-71799523D02*
X161595771Y-71799523D01*
X161595771Y-71799523D02*
X161405295Y-71751904D01*
X161405295Y-71751904D02*
X161310057Y-71704285D01*
X161310057Y-71704285D02*
X161262438Y-71656666D01*
X161262438Y-71656666D02*
X161214819Y-71561428D01*
X148617142Y-83649580D02*
X148569523Y-83697200D01*
X148569523Y-83697200D02*
X148426666Y-83744819D01*
X148426666Y-83744819D02*
X148331428Y-83744819D01*
X148331428Y-83744819D02*
X148188571Y-83697200D01*
X148188571Y-83697200D02*
X148093333Y-83601961D01*
X148093333Y-83601961D02*
X148045714Y-83506723D01*
X148045714Y-83506723D02*
X147998095Y-83316247D01*
X147998095Y-83316247D02*
X147998095Y-83173390D01*
X147998095Y-83173390D02*
X148045714Y-82982914D01*
X148045714Y-82982914D02*
X148093333Y-82887676D01*
X148093333Y-82887676D02*
X148188571Y-82792438D01*
X148188571Y-82792438D02*
X148331428Y-82744819D01*
X148331428Y-82744819D02*
X148426666Y-82744819D01*
X148426666Y-82744819D02*
X148569523Y-82792438D01*
X148569523Y-82792438D02*
X148617142Y-82840057D01*
X149569523Y-83744819D02*
X148998095Y-83744819D01*
X149283809Y-83744819D02*
X149283809Y-82744819D01*
X149283809Y-82744819D02*
X149188571Y-82887676D01*
X149188571Y-82887676D02*
X149093333Y-82982914D01*
X149093333Y-82982914D02*
X148998095Y-83030533D01*
X150474285Y-82744819D02*
X149998095Y-82744819D01*
X149998095Y-82744819D02*
X149950476Y-83221009D01*
X149950476Y-83221009D02*
X149998095Y-83173390D01*
X149998095Y-83173390D02*
X150093333Y-83125771D01*
X150093333Y-83125771D02*
X150331428Y-83125771D01*
X150331428Y-83125771D02*
X150426666Y-83173390D01*
X150426666Y-83173390D02*
X150474285Y-83221009D01*
X150474285Y-83221009D02*
X150521904Y-83316247D01*
X150521904Y-83316247D02*
X150521904Y-83554342D01*
X150521904Y-83554342D02*
X150474285Y-83649580D01*
X150474285Y-83649580D02*
X150426666Y-83697200D01*
X150426666Y-83697200D02*
X150331428Y-83744819D01*
X150331428Y-83744819D02*
X150093333Y-83744819D01*
X150093333Y-83744819D02*
X149998095Y-83697200D01*
X149998095Y-83697200D02*
X149950476Y-83649580D01*
X141756666Y-73294819D02*
X141756666Y-74009104D01*
X141756666Y-74009104D02*
X141709047Y-74151961D01*
X141709047Y-74151961D02*
X141613809Y-74247200D01*
X141613809Y-74247200D02*
X141470952Y-74294819D01*
X141470952Y-74294819D02*
X141375714Y-74294819D01*
X142709047Y-73294819D02*
X142232857Y-73294819D01*
X142232857Y-73294819D02*
X142185238Y-73771009D01*
X142185238Y-73771009D02*
X142232857Y-73723390D01*
X142232857Y-73723390D02*
X142328095Y-73675771D01*
X142328095Y-73675771D02*
X142566190Y-73675771D01*
X142566190Y-73675771D02*
X142661428Y-73723390D01*
X142661428Y-73723390D02*
X142709047Y-73771009D01*
X142709047Y-73771009D02*
X142756666Y-73866247D01*
X142756666Y-73866247D02*
X142756666Y-74104342D01*
X142756666Y-74104342D02*
X142709047Y-74199580D01*
X142709047Y-74199580D02*
X142661428Y-74247200D01*
X142661428Y-74247200D02*
X142566190Y-74294819D01*
X142566190Y-74294819D02*
X142328095Y-74294819D01*
X142328095Y-74294819D02*
X142232857Y-74247200D01*
X142232857Y-74247200D02*
X142185238Y-74199580D01*
X172994819Y-82416666D02*
X172518628Y-82749999D01*
X172994819Y-82988094D02*
X171994819Y-82988094D01*
X171994819Y-82988094D02*
X171994819Y-82607142D01*
X171994819Y-82607142D02*
X172042438Y-82511904D01*
X172042438Y-82511904D02*
X172090057Y-82464285D01*
X172090057Y-82464285D02*
X172185295Y-82416666D01*
X172185295Y-82416666D02*
X172328152Y-82416666D01*
X172328152Y-82416666D02*
X172423390Y-82464285D01*
X172423390Y-82464285D02*
X172471009Y-82511904D01*
X172471009Y-82511904D02*
X172518628Y-82607142D01*
X172518628Y-82607142D02*
X172518628Y-82988094D01*
X171994819Y-82083332D02*
X171994819Y-81464285D01*
X171994819Y-81464285D02*
X172375771Y-81797618D01*
X172375771Y-81797618D02*
X172375771Y-81654761D01*
X172375771Y-81654761D02*
X172423390Y-81559523D01*
X172423390Y-81559523D02*
X172471009Y-81511904D01*
X172471009Y-81511904D02*
X172566247Y-81464285D01*
X172566247Y-81464285D02*
X172804342Y-81464285D01*
X172804342Y-81464285D02*
X172899580Y-81511904D01*
X172899580Y-81511904D02*
X172947200Y-81559523D01*
X172947200Y-81559523D02*
X172994819Y-81654761D01*
X172994819Y-81654761D02*
X172994819Y-81940475D01*
X172994819Y-81940475D02*
X172947200Y-82035713D01*
X172947200Y-82035713D02*
X172899580Y-82083332D01*
X174351431Y-73407691D02*
X174351431Y-74121976D01*
X174351431Y-74121976D02*
X174303812Y-74264833D01*
X174303812Y-74264833D02*
X174208574Y-74360072D01*
X174208574Y-74360072D02*
X174065717Y-74407691D01*
X174065717Y-74407691D02*
X173970479Y-74407691D01*
X175256193Y-73741024D02*
X175256193Y-74407691D01*
X175018098Y-73360072D02*
X174780003Y-74074357D01*
X174780003Y-74074357D02*
X175399050Y-74074357D01*
%TO.C,U3*%
D11*
X148300000Y-100052500D02*
X148300000Y-97832500D01*
X150520000Y-98243248D02*
X150520000Y-100052500D01*
X150720000Y-98092500D02*
X150530000Y-97952500D01*
X150720000Y-97812500D01*
X150720000Y-98092500D01*
G36*
X150720000Y-98092500D02*
G01*
X150530000Y-97952500D01*
X150720000Y-97812500D01*
X150720000Y-98092500D01*
G37*
%TO.C,C2*%
X168181252Y-89015000D02*
X167658748Y-89015000D01*
X168181252Y-90485000D02*
X167658748Y-90485000D01*
%TO.C,C12*%
X163135000Y-76361252D02*
X163135000Y-75838748D01*
X164605000Y-76361252D02*
X164605000Y-75838748D01*
%TO.C,SW1*%
X167140000Y-74230000D02*
X167140000Y-78630000D01*
X168640000Y-74230000D02*
X168740000Y-74230000D01*
X168640000Y-78630000D02*
X168740000Y-78630000D01*
X170240000Y-78630000D02*
X170240000Y-74230000D01*
%TO.C,R6*%
X171197500Y-79342258D02*
X171197500Y-78867742D01*
X172242500Y-79342258D02*
X172242500Y-78867742D01*
%TO.C,U4*%
X151168310Y-85496069D02*
X151840061Y-84824318D01*
X151840061Y-86167820D02*
X151168310Y-85496069D01*
X157723190Y-78941189D02*
X158394941Y-78269438D01*
X158394941Y-78269438D02*
X159066692Y-78941189D01*
X158394941Y-92722700D02*
X157723190Y-92050949D01*
X159066692Y-92050949D02*
X158394941Y-92722700D01*
X164949821Y-84824318D02*
X165621572Y-85496069D01*
X165621572Y-85496069D02*
X164949821Y-86167820D01*
X165975126Y-84463693D02*
X165494293Y-84944526D01*
X165402369Y-84371769D01*
X165975126Y-84463693D01*
G36*
X165975126Y-84463693D02*
G01*
X165494293Y-84944526D01*
X165402369Y-84371769D01*
X165975126Y-84463693D01*
G37*
%TO.C,U2*%
X160860000Y-102560000D02*
X160860000Y-106320000D01*
X160860000Y-106320000D02*
X162120000Y-106320000D01*
X167680000Y-102560000D02*
X167680000Y-106320000D01*
X167680000Y-106320000D02*
X166420000Y-106320000D01*
X167910000Y-101520000D02*
X167580000Y-101280000D01*
X167910000Y-101040000D01*
X167910000Y-101520000D01*
G36*
X167910000Y-101520000D02*
G01*
X167580000Y-101280000D01*
X167910000Y-101040000D01*
X167910000Y-101520000D01*
G37*
%TO.C,C8*%
X159015000Y-75541252D02*
X159015000Y-75018748D01*
X160485000Y-75541252D02*
X160485000Y-75018748D01*
%TO.C,J1*%
X165690000Y-99160000D02*
X165690000Y-91320000D01*
X168340000Y-96510000D02*
X168340000Y-99160000D01*
X168340000Y-99160000D02*
X165690000Y-99160000D01*
X170990000Y-91320000D02*
X165690000Y-91320000D01*
X170990000Y-96510000D02*
X168340000Y-96510000D01*
X170990000Y-96510000D02*
X170990000Y-91320000D01*
X170990000Y-97780000D02*
X170990000Y-99160000D01*
X170990000Y-99160000D02*
X169610000Y-99160000D01*
%TO.C,R2*%
X151817500Y-98447742D02*
X151817500Y-98922258D01*
X152862500Y-98447742D02*
X152862500Y-98922258D01*
%TO.C,C18*%
X162658748Y-98205000D02*
X163181252Y-98205000D01*
X162658748Y-99675000D02*
X163181252Y-99675000D01*
%TO.C,J3*%
X149580000Y-105240000D02*
X149580000Y-103540000D01*
X158920000Y-105240000D02*
X158920000Y-103540000D01*
%TO.C,Y1*%
X166435304Y-82878686D02*
X168146503Y-81167487D01*
X168146503Y-81167487D02*
X166152462Y-79173446D01*
%TO.C,R1*%
X154947500Y-98892258D02*
X154947500Y-98417742D01*
X155992500Y-98892258D02*
X155992500Y-98417742D01*
%TO.C,C13*%
X149425000Y-79101252D02*
X149425000Y-78578748D01*
X150895000Y-79101252D02*
X150895000Y-78578748D01*
%TO.C,SW2*%
X167470000Y-83750000D02*
X167470000Y-88150000D01*
X169070000Y-83750000D02*
X168970000Y-83750000D01*
X169070000Y-88150000D02*
X168970000Y-88150000D01*
X170570000Y-88150000D02*
X170570000Y-83750000D01*
%TO.C,C1*%
X168468748Y-71825000D02*
X168991252Y-71825000D01*
X168468748Y-73295000D02*
X168991252Y-73295000D01*
%TO.C,C7*%
X156725000Y-75831252D02*
X156725000Y-75308748D01*
X158195000Y-75831252D02*
X158195000Y-75308748D01*
%TO.C,C9*%
X154025000Y-76761252D02*
X154025000Y-76238748D01*
X155495000Y-76761252D02*
X155495000Y-76238748D01*
%TO.C,C19*%
X170308748Y-100265000D02*
X170831252Y-100265000D01*
X170308748Y-101735000D02*
X170831252Y-101735000D01*
%TO.C,C14*%
X151505000Y-77641252D02*
X151505000Y-77118748D01*
X152975000Y-77641252D02*
X152975000Y-77118748D01*
%TO.C,C10*%
X161015000Y-75831252D02*
X161015000Y-75308748D01*
X162485000Y-75831252D02*
X162485000Y-75308748D01*
%TO.C,C15*%
X149521252Y-80875000D02*
X148998748Y-80875000D01*
X149521252Y-82345000D02*
X148998748Y-82345000D01*
%TO.C,J5*%
X140710000Y-74840000D02*
X142090000Y-74840000D01*
X140710000Y-76220000D02*
X140710000Y-74840000D01*
X140710000Y-77490000D02*
X140710000Y-105540000D01*
X140710000Y-77490000D02*
X143470000Y-77490000D01*
X140710000Y-105540000D02*
X143470000Y-105540000D01*
X143470000Y-77490000D02*
X143470000Y-105540000D01*
%TO.C,R3*%
X169922742Y-81667500D02*
X170397258Y-81667500D01*
X169922742Y-82712500D02*
X170397258Y-82712500D01*
%TO.C,J4*%
X173304765Y-74952872D02*
X174684765Y-74952872D01*
X173304765Y-76332872D02*
X173304765Y-74952872D01*
X173304765Y-77602872D02*
X173304765Y-105652872D01*
X173304765Y-77602872D02*
X176064765Y-77602872D01*
X173304765Y-105652872D02*
X176064765Y-105652872D01*
X176064765Y-77602872D02*
X176064765Y-105652872D01*
%TD*%
M02*
